<?xml version="1.0" encoding="UTF-8" standalone="no"?>
<!DOCTYPE svg PUBLIC "-//W3C//DTD SVG 1.1//EN" "http://www.w3.org/Graphics/SVG/1.1/DTD/svg11.dtd">
<!-- Created with Vectornator (http://vectornator.io/) -->
<svg height="32.0px" stroke-miterlimit="10" style="fill-rule:nonzero;clip-rule:evenodd;stroke-linecap:round;stroke-linejoin:round;" version="1.1" viewBox="0 0 32 32" width="32.0px" xml:space="preserve" xmlns="http://www.w3.org/2000/svg" xmlns:xlink="http://www.w3.org/1999/xlink">
<defs/>
<g id="Layer-1">
<path d="M16 0C30.6667 0 32 1.33333 32 16C32 30.6667 30.6667 32 16 32C1.33333 32 0 30.6667 0 16C0 1.33333 1.33333 0 16 0Z" fill="#2d2d2d" fill-rule="nonzero" opacity="1" stroke="none"/>
<path d="M19 27L24 27C24 27 26 27 26 25C26 23 24 23 24 23L8 23C8 23 6 23 6 21C6 19 8 19 8 19M12 19L13 14L21 6C21 6 23 4 25 6C27 8 25 10 25 10L17 18L12 19ZM14 15L13 16M15 16L14 17M16 17L15 18M21 7L24 10" fill="none" opacity="1" stroke="#ffffff" stroke-linecap="round" stroke-linejoin="round" stroke-width="2"/>
</g>
</svg>
