<?xml version="1.0" encoding="UTF-8" standalone="no"?>
<!DOCTYPE svg PUBLIC "-//W3C//DTD SVG 1.1//EN" "http://www.w3.org/Graphics/SVG/1.1/DTD/svg11.dtd">
<!-- Created with Vectornator (http://vectornator.io/) -->
<svg height="32.0px" stroke-miterlimit="10" style="fill-rule:nonzero;clip-rule:evenodd;stroke-linecap:round;stroke-linejoin:round;" version="1.1" viewBox="0 0 32 32" width="32.0px" xml:space="preserve" xmlns="http://www.w3.org/2000/svg" xmlns:xlink="http://www.w3.org/1999/xlink">
<defs/>
<g id="Layer-1">
<path d="M16 0C30.6667 0 32 1.33333 32 16C32 30.6667 30.6667 32 16 32C1.33333 32 0 30.6667 0 16C0 1.33333 1.33333 0 16 0Z" fill="#2d2d2d" fill-rule="nonzero" opacity="1" stroke="none"/>
<path d="M19 27L25 27C25 27 27 27 27 25C27 23 25 23 25 23L7 23C7 23 5 23 5 21C5 19 7 19 7 19L11 19M14 18L15 13L22 6C22 6 24 4 26 6C28 8 26 10 26 10L19 17L14 18ZM16 14L15 15M17 15L16 16M18 16L17 17M22 7L25 10" fill="none" opacity="1" stroke="#ffffff" stroke-linecap="round" stroke-linejoin="round" stroke-width="2"/>
</g>
</svg>
