<?xml version="1.0" encoding="UTF-8" standalone="no"?>
<!-- Created with Inkpad (http://www.taptrix.com/) -->

<svg
   height="32pt"
   width="32pt"
   version="1.1"
   viewBox="0 0 32 32"
   id="svg10"
   xmlns="http://www.w3.org/2000/svg"
   xmlns:svg="http://www.w3.org/2000/svg">
  <defs
     id="defs2">
    <filter
       style="color-interpolation-filters:sRGB"
       id="filter15"
       x="-0.084383921"
       y="-0.090766731"
       width="1.1687678"
       height="1.1815335">
      <feFlood
         result="flood"
         in="SourceGraphic"
         flood-opacity="0.498039"
         flood-color="rgb(0,0,0)"
         id="feFlood14" />
      <feGaussianBlur
         result="blur"
         in="SourceGraphic"
         stdDeviation="1.000000"
         id="feGaussianBlur14" />
      <feOffset
         result="offset"
         in="blur"
         dx="0.000000"
         dy="0.000000"
         id="feOffset14" />
      <feComposite
         result="comp1"
         operator="in"
         in="flood"
         in2="offset"
         id="feComposite14" />
      <feComposite
         result="comp2"
         operator="over"
         in="SourceGraphic"
         in2="comp1"
         id="feComposite15" />
    </filter>
  </defs>
  <path
     id="path13"
     style="fill:#ffffff;fill-opacity:1;filter:url(#filter15)"
     d="m 14,2.7792969 c -5.4068912,0 -8.4462198,2.8826767 -9.8417969,5.6738281 C 2.7626261,11.244276 2.7792969,14 2.7792969,14 v 2.09375 c -0.5512649,0.821734 -1,1.784043 -1,2.90625 0,0 -0.00781,0.630485 0.2753906,1.318359 0.210072,0.510247 0.7416368,1.048803 1.4316406,1.435547 0.4821391,1.521496 1.2774735,3.260198 2.8164063,4.712891 C 7.9981055,28.067162 10.53385,29.220703 14,29.220703 h 4 c 3.466181,0 6.001897,-1.153539 7.697266,-2.753906 1.53893,-1.452696 2.334279,-3.191392 2.816406,-4.712891 0.689512,-0.386829 1.219535,-0.925628 1.429687,-1.435547 0.283312,-0.687433 0.277344,-1.316406 0.277344,-1.316406 a 1.2208252,1.2208252 0 0 0 0,-0.002 c 0,-1.122761 -0.449039,-2.085307 -1,-2.90625 V 14 c 0,0 0.01667,-2.755724 -1.378906,-5.546875 C 26.44622,5.6619736 23.406891,2.7792969 18,2.7792969 Z" />
  <path
     d="M 4,14 C 4,14 4,4 14,4 h 4 c 10,0 10,10 10,10 v 4 c 0,0 0,10 -10,10 H 14 C 4,28 4,18 4,18 Z"
     opacity="1"
     fill="#f3c160"
     id="path2" />
  <path
     d="m 9,17 c 0,0 -1,0 -1,1 0,2 2,7 8,7 6,0 8,-5 8,-7 0,-1 -1,-1 -1,-1 z"
     opacity="1"
     fill="#0d1c30"
     id="path3" />
  <path
     d="m 16,25 c 3,0 4,-1 4,-1 0,0 -1,-1 -4,-1 -3,0 -4,1 -4,1 0,0 1,1 4,1 z"
     opacity="1"
     fill="#eb7162"
     id="path4" />
  <path
     d="m 9,17 c 0,0 0,2 1,2 h 12 c 1,0 1,-2 1,-2 z"
     opacity="1"
     fill="#ffffff"
     id="path5" />
  <path
     stroke="#0d1c30"
     stroke-width="2"
     d="m 9,14 c 0,-3 5,-3 5,0"
     fill="none"
     stroke-linecap="round"
     opacity="1"
     stroke-linejoin="round"
     id="path6" />
  <path
     stroke="#0d1c30"
     stroke-width="2"
     d="m 18,14 c 0,-3 5,-3 5,0"
     fill="none"
     stroke-linecap="round"
     opacity="1"
     stroke-linejoin="round"
     id="path7" />
  <path
     d="m 4,18 c 0,0 0,10 10,10 h 4 C 28,28 28,18 28,18 v -3 c 0,0 0,12 -15,12 -9,0 -9,-9 -9,-9 z"
     opacity="1"
     fill="#f3b360"
     id="path8" />
  <path
     d="m 7,16 v 3 c 0,0 0,2 -2,2 -2,0 -2,-2 -2,-2 0,-2 2,-4 3,-4 1,0 1,1 1,1 z"
     opacity="1"
     fill="#81dbf4"
     id="path10" />
  <path
     d="m 26,15 c -1,0 -1,1 -1,1 v 3 c 0,0 0,2 2,2 2,0 2,-2 2,-2 0,-2 -2,-4 -3,-4 z"
     opacity="1"
     fill="#81dbf4"
     id="path9" />
</svg>
