<?xml version="1.0" encoding="UTF-8" standalone="no"?>
<!-- Created with Inkpad (http://www.taptrix.com/) -->

<svg
   height="32pt"
   width="32pt"
   version="1.1"
   viewBox="0 0 32 32"
   id="svg11"
   xmlns="http://www.w3.org/2000/svg"
   xmlns:svg="http://www.w3.org/2000/svg">
  <defs
     id="defs2">
    <filter
       style="color-interpolation-filters:sRGB"
       id="filter13"
       x="-0.085616996"
       y="-0.089850833"
       width="1.171234"
       height="1.1797017">
      <feFlood
         result="flood"
         in="SourceGraphic"
         flood-opacity="0.498039"
         flood-color="rgb(0,0,0)"
         id="feFlood12" />
      <feGaussianBlur
         result="blur"
         in="SourceGraphic"
         stdDeviation="1.000000"
         id="feGaussianBlur12" />
      <feOffset
         result="offset"
         in="blur"
         dx="0.000000"
         dy="0.000000"
         id="feOffset12" />
      <feComposite
         result="comp1"
         operator="in"
         in="flood"
         in2="offset"
         id="feComposite12" />
      <feComposite
         result="comp2"
         operator="over"
         in="SourceGraphic"
         in2="comp1"
         id="feComposite13" />
    </filter>
  </defs>
  <path
     id="path12"
     style="fill:#ffffff;filter:url(#filter13)"
     d="m 14,2.6445313 c -3.891135,0 -6.6353154,1.4580377 -8.34375,3.3535156 C 4.1588535,7.6593818 3.4980195,9.5218807 3.1230469,11.052734 1.8106517,11.781062 1.6070937,13.697821 2.6445313,14.724609 V 18 c 0,0 -0.019126,2.782063 1.3925781,5.605469 1.411704,2.823405 4.5109231,5.75 9.9628906,5.75 h 4 c 5.451967,0 8.551187,-2.926595 9.962891,-5.75 C 29.374595,20.782063 29.355469,18 29.355469,18 V 14.724609 C 30.392906,13.697821 30.189348,11.781062 28.876953,11.052734 28.501981,9.5218805 27.841147,7.6593818 26.34375,5.9980469 24.635315,4.102569 21.891135,2.6445313 18,2.6445313 Z" />
  <path
     d="M 4,18 V 14 C 4,14 4,4 14,4 h 4 c 10,0 10,10 10,10 v 4 c 0,0 0,10 -10,10 H 14 C 4,28 4,18 4,18 Z"
     opacity="1"
     fill="#f3c160"
     id="path2" />
  <path
     d="m 4,12 c -1,0 -1,2 0,2 h 24 c 1,0 1,-2 0,-2 z"
     opacity="1"
     fill="#0d1c30"
     id="path3" />
  <path
     d="m 11,19 c 0,0 -1,0 -1,1 0,3 2,5 6,5 4,0 6,-2 6,-5 0,-1 -1,-1 -1,-1 z"
     opacity="1"
     fill="#0d1c30"
     id="path4" />
  <path
     d="m 16,25 c 3,0 4,-1 4,-1 0,0 -1,-1 -4,-1 -3,0 -4,1 -4,1 0,0 1,1 4,1 z"
     opacity="1"
     fill="#eb7162"
     id="path5" />
  <path
     d="m 12,19 c 0,0 0,2 1,2 h 6 c 1,0 1,-2 1,-2 z"
     opacity="1"
     fill="#ffffff"
     id="path6" />
  <path
     stroke="#0d1c30"
     stroke-width="1"
     d="m 7,12.9153 c 0,-2.2559 1.82876,-4.08462 4.0847,-4.08462 2.2559,0 4.0846,1.82872 4.0846,4.08462 C 15.1693,15.1712 13.3406,17 11.0847,17 8.82876,17 7,15.1712 7,12.9153 Z"
     fill="#ffffff"
     stroke-linecap="round"
     opacity="1"
     stroke-linejoin="round"
     id="path7" />
  <path
     stroke="#0d1c30"
     stroke-width="1"
     d="M 16.8122,13.0939 C 16.8122,10.8329 18.6451,9 20.9061,9 23.1671,9 25,10.8329 25,13.0939 c 0,2.261 -1.8329,4.0939 -4.0939,4.0939 -2.261,0 -4.0939,-1.8329 -4.0939,-4.0939 z"
     fill="#ffffff"
     stroke-linecap="round"
     opacity="1"
     stroke-linejoin="round"
     id="path8" />
  <path
     d="M 11,13.5 C 11,12.6716 11.6716,12 12.5,12 13.3284,12 14,12.6716 14,13.5 14,14.3284 13.3284,15 12.5,15 11.6716,15 11,14.3284 11,13.5 Z"
     opacity="1"
     fill="#0d1c30"
     id="path9" />
  <path
     d="M 18,13.5 C 18,12.6716 18.6716,12 19.5,12 20.3284,12 21,12.6716 21,13.5 21,14.3284 20.3284,15 19.5,15 18.6716,15 18,14.3284 18,13.5 Z"
     opacity="1"
     fill="#0d1c30"
     id="path10" />
</svg>
