<?xml version="1.0" encoding="UTF-8" standalone="no"?>
<svg
   width="40"
   height="40"
   viewBox="0 0 40 40"
   fill="none"
   version="1.1"
   id="svg11"
   xmlns:xlink="http://www.w3.org/1999/xlink"
   xmlns="http://www.w3.org/2000/svg"
   xmlns:svg="http://www.w3.org/2000/svg">
  <defs
     id="defs11">
    <filter
       style="color-interpolation-filters:sRGB"
       id="filter23"
       x="-0.077876905"
       y="-0.086238188"
       width="1.1557538"
       height="1.1724764">
      <feFlood
         result="flood"
         in="SourceGraphic"
         flood-opacity="0.498039"
         flood-color="rgb(0,0,0)"
         id="feFlood22" />
      <feGaussianBlur
         result="blur"
         in="SourceGraphic"
         stdDeviation="1.000000"
         id="feGaussianBlur22" />
      <feOffset
         result="offset"
         in="blur"
         dx="0.000000"
         dy="0.000000"
         id="feOffset22" />
      <feComposite
         result="comp1"
         operator="in"
         in="flood"
         in2="offset"
         id="feComposite22" />
      <feComposite
         result="comp2"
         operator="over"
         in="SourceGraphic"
         in2="comp1"
         id="feComposite23" />
    </filter>
  </defs>
  <path
     xlink:href="#path12"
     id="path22"
     d="M 9.5722656,5.5878906 C 8.0814339,5.5334694 6.5839844,6.7372463 6.5839844,8.4296875 V 20.736328 c -0.7306369,-0.02553 -1.4539372,0.222271 -1.796875,0.908203 -0.4663845,0.93277 -0.069961,2.104649 0.8574218,2.56836 l 0.9394532,0.470703 v 1.632812 l -0.9394532,0.470703 c -0.927383,0.463711 -1.3238059,1.635591 -0.8574218,2.56836 0.4264686,0.853007 1.4345792,1.170199 2.3203125,0.875 0.8472857,1.860498 2.6654129,3.185547 4.8105471,3.185547 h 16.164062 c 2.146303,0 3.929777,-1.342296 4.783203,-3.189454 0.890809,0.312387 1.918977,-0.01373 2.347657,-0.871093 0.463705,-0.927412 0.0746,-2.103321 -0.855469,-2.56836 l -0.941406,-0.470703 v -1.632812 l 0.941406,-0.470703 c 0.93007,-0.465036 1.31917,-1.640956 0.855469,-2.56836 -0.341273,-0.682546 -1.065814,-0.931134 -1.796875,-0.90625 V 8.4296875 c 0,-1.2271335 -0.818831,-2.2554314 -1.804688,-2.6425781 -0.985857,-0.3871468 -2.245889,-0.2145347 -3.099609,0.6445312 l -4.126953,4.1523434 h -8.644532 l -4.238281,-4.1562496 -0.0039,-0.00195 C 10.961276,5.8908114 10.246428,5.6125003 9.5722656,5.5878906 Z"
     style="fill:#ffffff;fill-opacity:1;filter:url(#filter23)" />
  <path
     d="m 7.9999998,27.942005 c 0,2.2319 1.76327,4.058 3.9183702,4.058 H 28.0816 c 2.1551,0 3.9184,-1.9275 3.9184,-4.1594 V 8.429705 C 32,7.1297046 30.4099,6.5297046 29.5155,7.4297046 L 24.9736,12.000005 H 15.1617 L 10.5,7.4297046 c -0.9000002,-0.9 -2.5000002,-0.3 -2.5000002,1.0000004 z"
     fill="#ffb02e"
     id="path1" />
  <path
     d="m 13.00005,12.926505 -2.8,2.6 c -0.5000002,0.5 -1.4000002,0.1 -1.4000002,-0.6 v -5.20002 c 0,-0.6 0.9,-1 1.4000002,-0.5 l 2.8,2.6 c 0.3,0.30002 0.3,0.80002 0,1.10002 z"
     fill="#ff822d"
     id="path2" />
  <path
     d="m 27.05,12.926505 2.8,2.6 c 0.5,0.5 1.4,0.1 1.4,-0.6 v -5.20002 c 0,-0.6 -0.9,-1 -1.4,-0.5 l -2.8,2.6 c -0.3,0.30002 -0.3,0.80002 0,1.10002 z"
     fill="#ff822d"
     id="path3" />
  <path
     d="m 21.0429,22.000005 h -2.0858 c -0.4454,0 -0.6685,0.5386 -0.3535,0.8536 l 1.0429,1.0428 c 0.1952,0.1953 0.5118,0.1953 0.7071,0 l 1.0429,-1.0428 c 0.3149,-0.315 0.0919,-0.8536 -0.3536,-0.8536 z"
     fill="#f70a8d"
     id="path4" />
  <path
     d="m 6.7237198,22.052805 c -0.24699,-0.1235 -0.54733,-0.0234 -0.67082,0.2236 -0.1235,0.247 -0.02339,0.5473 0.2236,0.6708 l 4.0000002,2 c 0.24699,0.1235 0.54733,0.0234 0.67082,-0.2236 0.1235,-0.247 0.02339,-0.5473 -0.2236,-0.6708 z"
     fill="#ff6723"
     id="path5" />
  <path
     d="m 6.7237198,28.947205 c -0.24699,0.1235 -0.54733,0.0234 -0.67082,-0.2236 -0.1235,-0.247 -0.02339,-0.5473 0.2236,-0.6708 l 4.0000002,-2 c 0.24699,-0.1235 0.54733,-0.0234 0.67082,0.2236 0.1235,0.247 0.02339,0.5473 -0.2236,0.6708 z"
     fill="#ff6723"
     id="path6" />
  <path
     d="m 33.9473,22.276405 c -0.1235,-0.247 -0.4238,-0.3471 -0.6708,-0.2236 l -4,2 c -0.247,0.1235 -0.3471,0.4238 -0.2236,0.6708 0.1235,0.247 0.4238,0.3471 0.6708,0.2236 l 4,-2 c 0.247,-0.1235 0.3471,-0.4238 0.2236,-0.6708 z"
     fill="#ff6723"
     id="path7" />
  <path
     d="m 33.2765,28.947205 c 0.247,0.1235 0.5473,0.0234 0.6708,-0.2236 0.1235,-0.247 0.0234,-0.5473 -0.2236,-0.6708 l -4,-2 c -0.247,-0.1235 -0.5473,-0.0234 -0.6708,0.2236 -0.1235,0.247 -0.0234,0.5473 0.2236,0.6708 z"
     fill="#ff6723"
     id="path8" />
  <path
     d="m 16,19.000005 c -0.5523,0 -1,0.4477 -1,1 v 1 c 0,0.5523 0.4477,1 1,1 0.5523,0 1,-0.4477 1,-1 v -1 c 0,-0.5523 -0.4477,-1 -1,-1 z"
     fill="#402a32"
     id="path9" />
  <path
     d="m 24,19.000005 c -0.5523,0 -1,0.4477 -1,1 v 1 c 0,0.5523 0.4477,1 1,1 0.5523,0 1,-0.4477 1,-1 v -1 c 0,-0.5523 -0.4477,-1 -1,-1 z"
     fill="#402a32"
     id="path10" />
  <path
     d="m 19.9999,25.106005 c -0.5374,0.5389 -1.4565,0.894 -2.5,0.894 -1.0318,0 -1.942,-0.3473 -2.4818,-0.8761 0.1203,0.7242 0.928,4.3761 4.9818,4.3761 4.0539,0 4.8616,-3.6519 4.9819,-4.3761 -0.5399,0.5288 -1.4501,0.8761 -2.4819,0.8761 -1.0435,0 -1.9625,-0.3551 -2.5,-0.894 z"
     fill="#bb1d80"
     id="path11" />
</svg>
