<?xml version="1.0" encoding="UTF-8" standalone="no"?>
<svg
   width="40"
   height="40"
   viewBox="0 0 40 40"
   fill="none"
   version="1.1"
   id="svg1"
   xmlns:xlink="http://www.w3.org/1999/xlink"
   xmlns="http://www.w3.org/2000/svg"
   xmlns:svg="http://www.w3.org/2000/svg">
  <defs
     id="defs1">
    <filter
       style="color-interpolation-filters:sRGB"
       id="filter3"
       x="-0.076621207"
       y="-0.077104867"
       width="1.1532424"
       height="1.1542097">
      <feFlood
         result="flood"
         in="SourceGraphic"
         flood-opacity="0.498039"
         flood-color="rgb(0,0,0)"
         id="feFlood2" />
      <feGaussianBlur
         result="blur"
         in="SourceGraphic"
         stdDeviation="1.000000"
         id="feGaussianBlur2" />
      <feOffset
         result="offset"
         in="blur"
         dx="0.000000"
         dy="0.000000"
         id="feOffset2" />
      <feComposite
         result="comp1"
         operator="in"
         in="flood"
         in2="offset"
         id="feComposite2" />
      <feComposite
         result="comp2"
         operator="over"
         in="SourceGraphic"
         in2="comp1"
         id="feComposite3" />
    </filter>
  </defs>
  <path
     style="fill:#ffffff;fill-opacity:1;filter:url(#filter3)"
     xlink:href="#path1"
     id="path2"
     d="M 31.070312,4.3164062 C 29.063994,4.094121 27.027329,5.0723569 25.988281,6.9277344 L 17.302734,22.4375 12.917969,18.576172 c -2.127652,-1.874406 -5.4224037,-1.66678 -7.2968753,0.460937 -1.8737907,2.127092 -1.6661775,5.421002 0.4609375,7.294922 l 8.7246098,7.683594 c 2.680962,2.36176 6.946988,1.63432 8.693359,-1.482422 v -0.002 L 35.011719,11.980469 a 1.6691288,1.6691288 0 0 0 0,-0.002 C 36.396784,9.5050069 35.50071,6.3284883 33.027344,4.9433594 32.408025,4.5965505 31.738971,4.3904886 31.070312,4.3164062 Z" />
  <path
     d="m 32.21016,6.3998559 c 1.6865,0.94447 2.2881,3.07733 1.3437,4.7638801 l -11.5102,20.55375 c -1.2447,2.2228 -4.2225,2.7311 -6.1341,1.0471 l -8.7231203,-7.6847 c -1.45045,-1.2778 -1.59042,-3.4894 -0.31265,-4.9399 1.27777,-1.4504 3.4894203,-1.5904 4.9398603,-0.3126 l 5.93681,5.23 9.6958,-17.3138701 c 0.9445,-1.68655 3.0773,-2.28813 4.7639,-1.34366 z"
     fill="#321b41"
     id="path1"
     style="fill:#41d26a;fill-opacity:1" />
</svg>
