<?xml version="1.0" encoding="UTF-8" standalone="no"?>
<svg
   width="40"
   height="40"
   viewBox="0 0 40 40"
   fill="none"
   version="1.1"
   id="svg15"
   xmlns:xlink="http://www.w3.org/1999/xlink"
   xmlns="http://www.w3.org/2000/svg"
   xmlns:svg="http://www.w3.org/2000/svg">
  <defs
     id="defs15">
    <filter
       style="color-interpolation-filters:sRGB"
       id="filter31"
       x="-0.079469412"
       y="-0.079480533"
       width="1.1589388"
       height="1.1589611">
      <feFlood
         result="flood"
         in="SourceGraphic"
         flood-opacity="0.498039"
         flood-color="rgb(0,0,0)"
         id="feFlood30" />
      <feGaussianBlur
         result="blur"
         in="SourceGraphic"
         stdDeviation="1.000000"
         id="feGaussianBlur30" />
      <feOffset
         result="offset"
         in="blur"
         dx="0.000000"
         dy="0.000000"
         id="feOffset30" />
      <feComposite
         result="comp1"
         operator="in"
         in="flood"
         in2="offset"
         id="feComposite30" />
      <feComposite
         result="comp2"
         operator="over"
         in="SourceGraphic"
         in2="comp1"
         id="feComposite31" />
    </filter>
  </defs>
  <path
     xlink:href="#path16"
     id="path30"
     d="m 12.488281,4.8847656 c -0.136179,0.0055 -0.272377,0.031884 -0.396484,0.070312 a 1.1154004,1.1154004 0 0 0 -0.002,0 L 10.732422,5.3789062 C 9.9467308,5.6222086 9.6999415,6.4182236 9.8320313,7.1679687 9.569591,6.9647977 9.356181,6.6643448 9.03125,6.6523437 8.6121605,6.6368611 8.1467374,6.8103669 7.8300781,7.15625 L 6.875,8.1679688 c -4.747e-4,4.962e-4 4.738e-4,0.00146 0,0.00195 C 6.4098596,8.6576009 6.4811909,9.314844 6.7636719,9.8847656 6.0905811,9.9063686 5.4417492,10.36791 5.2695312,11.097656 v 0.002 c -2.232e-4,9.51e-4 -0.00173,0.001 -0.00195,0.002 L 4.9277344,12.53125 a 1.1154004,1.1154004 0 0 0 -0.00391,0.01172 c -0.2294942,1.018261 0.6861476,2.057865 1.7382813,1.921875 a 1.1154004,1.1154004 0 0 0 0.00195,0 l 2.0625,-0.267578 c 6.135e-4,-7.5e-5 0.00134,7.5e-5 0.00195,0 C 9.3973682,14.11469 9.9300302,13.57785 10.070313,13.001953 10.195844,12.486614 9.9914017,11.89294 9.5644531,11.490234 10.100926,11.587639 10.664697,11.453636 11,11.097656 c 0.352513,-0.374252 0.465578,-0.963503 0.310547,-1.5117185 0.412605,0.4237545 1.040356,0.6177255 1.554687,0.4589845 0.57091,-0.1762034 1.044249,-0.7214182 1.105469,-1.3691407 a 1.1154004,1.1154004 0 0 0 0.0039,-0.029297 l 0.140625,-2.0761719 a 1.1154004,1.1154004 0 0 0 0,-0.00586 C 14.172693,5.6451417 13.418281,4.8471376 12.488281,4.8847656 Z M 24.746094,9.3925781 C 24.168446,9.3842713 23.614023,9.5348269 23.136719,9.8261719 22.89874,9.9714315 22.736496,10.139405 22.585937,10.298828 22.18622,9.9653147 21.737755,9.7294087 21.285156,9.6464844 20.809067,9.5592562 20.346781,9.6771243 19.884766,9.78125 19.063838,9.5615476 18.222808,9.6459923 17.546875,10.058594 17.311233,10.20244 17.148746,10.369773 16.998047,10.529297 16.549864,10.157918 16.039353,9.9122559 15.53125,9.8476563 c -0.719712,-0.091503 -1.437815,-0.00629 -2.097656,0.3964847 -1.098411,0.67046 -1.653464,1.850495 -1.576172,2.972656 0.0046,0.06641 0.01322,0.144182 0.02539,0.228516 -0.235264,0.08865 -0.390709,0.01377 -0.646485,0.169921 -0.707459,0.432384 -1.048354,1.11823 -1.210937,1.78711 -0.1564738,0.643741 -0.1353086,1.315406 0.09961,1.96875 -0.0013,4.99e-4 -0.0026,-5.02e-4 -0.0039,0 l -0.0625,-0.310547 a 1.1154004,1.1154004 0 0 0 0.06055,0.3125 c -0.2532863,0.09856 -0.4323532,0.03235 -0.7011722,0.21289 -0.7434851,0.499496 -1.0563441,1.249227 -1.1972657,1.986329 -0.1408123,0.73653 -0.1215569,1.523174 0.3261719,2.257812 3.473e-4,5.7e-4 -3.478e-4,0.0014 0,0.002 l 2.488281,4.195313 a 1.1154004,1.1154004 0 0 0 0.0078,0.01367 l 3.435547,5.613281 a 1.1154004,1.1154004 0 0 0 0.03906,0.06055 c 2.10466,2.983123 6.157544,4.130335 9.615234,2.841797 2.253499,0.770138 4.823813,0.721901 6.986329,-0.591797 2.559409,-1.554768 4.189286,-4.634691 3.945312,-7.683594 l 0.0039,0.08984 v -9.484375 a 1.1154004,1.1154004 0 0 0 -0.0059,-0.123047 c -0.07323,-0.659105 -0.331727,-1.401246 -0.916016,-2.029297 -0.584288,-0.628051 -1.52068,-1.072266 -2.630859,-1.072266 a 1.1154004,1.1154004 0 0 0 -0.05273,0.002 c -0.873679,0.04158 -1.523921,0.440674 -2.015625,0.902343 l -2.00586,-3.583984 a 1.1154004,1.1154004 0 0 0 -0.04102,-0.06836 C 26.747901,9.9213993 25.70941,9.4063208 24.746094,9.3925781 Z m -3.044922,2.5292969 h 0.002 c -0.0014,0.0067 -0.0087,0.03173 -0.0098,0.03711 0.0037,-0.01788 0.0078,-0.03711 0.0078,-0.03711 z"
     style="fill:#ffffff;fill-opacity:1;filter:url(#filter31)" />
  <path
     d="m 28.262302,26.447605 -0.1547,-9.3901 c -0.099,-0.891 -0.5879,-2.0883 -2.2586,-2.0883 -1.9492,0.0928 -2.0265,2.0883 -2.0265,2.0883 l -2.9702,-5.30599 c -0.7425,-1.12929 -1.9603,-1.20788 -2.7226,-0.74256 -0.7623,0.46533 -0.9282,1.40774 -0.9282,1.40774 l -0.6188,-0.80442 c -0.4653,-0.76234 -1.8578,-0.85112 -2.5679,-0.41767 -1.17864,0.71943 -1.34992,2.209 -0.58784,3.032 -0.04999,-0.054 -0.63241,-0.25565 -1.60884,0.3404 -0.76234,0.4653 -0.99782,1.8564 -0.5724,2.6453 0.42543,0.7888 0.4873,0.9126 0.4873,0.9126 0,0 -0.65745,-0.3094 -1.69391,0.3867 -0.7414297,0.498 -1.0067697,1.9759 -0.5414397,2.7382 l 2.4961697,4.2087 3.43546,5.6136 c 2.0197,2.8627 6.326,3.8512 9.455,1.9504 2.1335,-1.2961 3.5812,-4.0349 3.378,-6.5749 z"
     fill="#f59f00"
     id="path1" />
  <path
     d="m 17.293302,12.563735 -0.0917,-0.14754 c 0.0031,-0.01741 0.1091,-0.59135 0.5188,-1.05974 l 0.4222,0.67936 c 0.3344,0.53799 0.7874,1.26635 1.2619,2.02789 0.9506,1.5256 1.9827,3.177 2.3235,3.7037 0.1501,0.2318 0.0837,0.5414 -0.1481,0.6914 -0.2319,0.15 -0.5414,0.0837 -0.6914,-0.1481 -0.3467,-0.5359 -1.3849,-2.1969 -2.3327,-3.7182 -0.4748,-0.76191 -0.928,-1.49059 -1.2625,-2.02877 z"
     fill="#d67d00"
     id="path2" />
  <path
     d="m 13.377542,14.198705 c -0.08013,-0.0218 -0.15554,-0.0363 -0.22589,-0.0455 0.10376,0.0075 0.1797,0.0271 0.22589,0.0455 z"
     fill="#d67d00"
     id="path3" />
  <path
     d="m 13.409982,14.207905 c 0.27992,0.0818 0.61522,0.2525 0.99222,0.5876 0.0286,0.0255 0.0955,0.1012 0.2025,0.2516 0.1008,0.1417 0.2195,0.3243 0.3524,0.5396 0.2655,0.4302 0.5748,0.9705 0.8908,1.5344 0.166,0.2962 0.3348,0.6006 0.4998,0.8982 0.4534,0.8178 0.8783,1.5842 1.1388,1.9867 0.15,0.2318 0.4595,0.2981 0.6914,0.1481 0.2318,-0.15 0.2981,-0.4595 0.1481,-0.6914 -0.2405,-0.3716 -0.6366,-1.0861 -1.0813,-1.8882 -0.1697,-0.306 -0.3465,-0.6249 -0.5245,-0.9424 -0.3171,-0.5658 -0.6349,-1.1215 -0.9121,-1.5706 -0.1385,-0.2244 -0.27,-0.4273 -0.3885,-0.594 -0.1124,-0.1579 -0.2339,-0.3135 -0.353,-0.4194 -0.7958,-0.70733 -1.52923,-0.90334 -2.09672,-0.9079 0.02741,0.3956 0.17521,0.77276 0.4401,1.0677 z"
     fill="#d67d00"
     id="path4" />
  <path
     d="m 11.690202,18.108505 c -0.11209,-0.0245 -0.21844,-0.0411 -0.31424,-0.0514 0.15214,0.0053 0.25916,0.0331 0.31424,0.0514 z"
     fill="#d67d00"
     id="path5" />
  <path
     d="m 11.729242,18.117305 c 0.03139,0.0073 0.06318,0.0152 0.09526,0.0237 0.32562,0.0867 0.62567,0.2249 0.8277,0.4045 0.10132,0.09 0.25465,0.2755 0.45218,0.5555 0.19114,0.271 0.40297,0.6003 0.62208,0.9533 0.17706,0.2853 0.36174,0.591 0.54194,0.8892 0.2549,0.4218 0.5006,0.8286 0.7024,1.1405 0.1501,0.2319 0.4596,0.2982 0.6915,0.1482 0.2318,-0.15 0.2981,-0.4596 0.1481,-0.6914 -0.1974,-0.3051 -0.4255,-0.6829 -0.6704,-1.0886 -0.1806,-0.2991 -0.3705,-0.6136 -0.5639,-0.9253 -0.2227,-0.3587 -0.4466,-0.7075 -0.65457,-1.0023 -0.20161,-0.2858 -0.41085,-0.554 -0.60497,-0.7265 -0.36047,-0.3204 -0.82344,-0.5139 -1.2348,-0.6234 -0.32068,-0.0854 -0.64404,-0.1287 -0.91339,-0.1306 0.02278,0.0584 0.04856,0.1146 0.07736,0.168 0.37016,0.6864 0.46509,0.8693 0.48351,0.9052 z"
     fill="#d67d00"
     id="path6" />
  <path
     d="m 33.953102,26.371605 v -9.4844 c -0.1,-0.9 -0.75,-2.1093 -2.4375,-2.1093 -1.9687,0.0937 -2.0468,2.1093 -2.0468,2.1093 l -3,-5.3593 c -0.75,-1.14064 -1.98,-1.22002 -2.75,-0.75002 -0.77,0.47 -0.9375,1.42188 -0.9375,1.42188 l -0.625,-0.8125 c -0.47,-0.77 -1.8765,-0.85968 -2.5938,-0.42188 -1.1905,0.72666 -1.3635,2.2312 -0.5937,3.06252 -0.0505,-0.05455 -0.6388,-0.25826 -1.625,0.3437 -0.77,0.47 -1.0079,1.8751 -0.5782,2.6719 0.4297,0.7968 0.4922,0.9218 0.4922,0.9218 0,0 -0.664,-0.3125 -1.7109,0.3907 -0.7489,0.5029 -1.0169,1.9956 -0.5469,2.7656 l 2.5212,4.251 3.47,5.67 c 2.0401,2.8915 6.3896,3.8899 9.55,1.97 2.155,-1.3091 3.6172,-4.0754 3.4119,-6.641 z"
     fill="#ffc83d"
     id="path7" />
  <path
     d="m 22.784502,12.183415 0.013,0.02101 c 0.3345,0.53818 0.7878,1.26686 1.2625,2.02878 0.9479,1.5213 1.986,3.1823 2.3327,3.7181 0.15,0.2319 0.4596,0.2982 0.6914,0.1482 0.2319,-0.15 0.2982,-0.4596 0.1482,-0.6914 -0.3408,-0.5267 -1.373,-2.1781 -2.3236,-3.70373 -0.4745,-0.76152 -0.9275,-1.48988 -1.2619,-2.02787 l -0.3407,-0.54833 c -0.3796,0.43348 -0.5014,0.95681 -0.5216,1.05524 z"
     fill="#d67d00"
     id="path8" />
  <path
     d="m 18.888802,13.989135 c -0.1551,-0.02931 -0.2905,-0.0378 -0.3973,-0.03448 0.1842,-0.01352 0.3182,0.0092 0.3973,0.03448 z"
     fill="#d67d00"
     id="path9" />
  <path
     d="m 20.175602,14.646105 c -0.4357,-0.3873 -0.8791,-0.5701 -1.2319,-0.6459 -0.2574,-0.29068 -0.4033,-0.65899 -0.4348,-1.04602 0.5978,-0.0063 1.4964,0.20252 2.3311,0.9445 0.2057,0.18282 0.4666,0.54912 0.7249,0.94112 0.2723,0.4131 0.5835,0.9209 0.8942,1.4395 0.2318,0.3871 0.462,0.7777 0.6772,1.1429 0.3696,0.6272 0.695,1.1793 0.9085,1.5093 0.15,0.2318 0.0837,0.5414 -0.1482,0.6914 -0.2318,0.15 -0.5414,0.0837 -0.6914,-0.1482 -0.2241,-0.3464 -0.5698,-0.9328 -0.9495,-1.577 -0.2126,-0.3607 -0.4359,-0.7396 -0.6545,-1.1045 -0.3088,-0.5156 -0.6111,-1.0084 -0.8712,-1.403 -0.2741,-0.4158 -0.4647,-0.6644 -0.5544,-0.7441 z"
     fill="#d67d00"
     id="path10" />
  <path
     d="m 17.374302,17.986305 c -0.0454,-0.0185 -0.0893,-0.0353 -0.1317,-0.0505 -0.0363,-0.0699 -0.151,-0.2878 -0.477,-0.8923 -0.0395,-0.0734 -0.0735,-0.1519 -0.1018,-0.2344 0.3332,-0.0044 0.7335,0.1071 1.087,0.2507 0.406,0.165 0.8406,0.4094 1.1751,0.7067 0.2025,0.18 0.4151,0.4724 0.6148,0.7776 0.2079,0.3177 0.4317,0.6964 0.6537,1.0836 0.1348,0.2351 0.2683,0.472 0.3982,0.7023 0.3064,0.5437 0.5925,1.0513 0.8272,1.414 0.15,0.2318 0.0837,0.5414 -0.1482,0.6914 -0.2318,0.15 -0.5414,0.0837 -0.6914,-0.1482 -0.2522,-0.3898 -0.5636,-0.9421 -0.8777,-1.4994 -0.1259,-0.2235 -0.2524,-0.4478 -0.3756,-0.6626 -0.2197,-0.3832 -0.4317,-0.7412 -0.6229,-1.0335 -0.1994,-0.3046 -0.3494,-0.4951 -0.4424,-0.5778 -0.228,-0.2026 -0.5564,-0.3932 -0.8873,-0.5276 z"
     fill="#d67d00"
     id="path11" />
  <path
     d="m 30.403402,18.539905 c -0.1723,-0.297 -0.5193,-0.9164 -0.9341,-1.6623 0.005,-0.0855 0.0549,-0.7184 0.44,-1.2678 0.5973,1.0777 1.1339,2.0401 1.3592,2.4284 0.1385,0.2389 0.0572,0.5449 -0.1817,0.6834 -0.2389,0.1385 -0.5448,0.0572 -0.6834,-0.1817 z"
     fill="#d67d00"
     id="path12" />
  <path
     d="m 12.051852,8.8170746 -1.22,-1.65155 c -0.19,-0.25806 -0.07,-0.62967 0.23,-0.72257 l 1.36,-0.42321 c 0.3,-0.0929 0.6,0.15483 0.58,0.47482 l -0.14,2.07479 c -0.04,0.42321 -0.56,0.58836 -0.81,0.24772 z"
     fill="#46a4fb"
     id="path13" />
  <path
     d="m 9.6918523,10.439105 -1.86,-0.7800004 c -0.29,-0.12 -0.37,-0.49 -0.15,-0.72 l 0.97,-1.03 c 0.21,-0.23 0.59,-0.17 0.73,0.11 l 0.8899997,1.81 c 0.17,0.3700004 -0.2,0.7700004 -0.5799997,0.6100004 z"
     fill="#46a4fb"
     id="path14" />
  <path
     d="m 6.5197923,13.358985 2.07148,-0.26979 c 0.42466,-0.05188 0.55931,-0.60185 0.20715,-0.85089 l -1.72969,-1.16217 c -0.26929,-0.1764 -0.64216,-0.03114 -0.71466,0.28016 l -0.3418,1.43197 c -0.0725,0.32168 0.18644,0.61222 0.50752,0.57072 z"
     fill="#46a4fb"
     id="path15" />
</svg>
