<?xml version="1.0" encoding="UTF-8" standalone="no"?>
<svg
   width="40"
   height="40"
   viewBox="0 0 40 40"
   fill="none"
   version="1.1"
   id="svg6"
   xmlns:xlink="http://www.w3.org/1999/xlink"
   xmlns="http://www.w3.org/2000/svg"
   xmlns:svg="http://www.w3.org/2000/svg">
  <defs
     id="defs6">
    <filter
       style="color-interpolation-filters:sRGB"
       id="filter8"
       x="-0.077258724"
       y="-0.077258724"
       width="1.1545174"
       height="1.1545174">
      <feFlood
         result="flood"
         in="SourceGraphic"
         flood-opacity="0.498039"
         flood-color="rgb(0,0,0)"
         id="feFlood7" />
      <feGaussianBlur
         result="blur"
         in="SourceGraphic"
         stdDeviation="1.000000"
         id="feGaussianBlur7" />
      <feOffset
         result="offset"
         in="blur"
         dx="0.000000"
         dy="0.000000"
         id="feOffset7" />
      <feComposite
         result="comp1"
         operator="in"
         in="flood"
         in2="offset"
         id="feComposite7" />
      <feComposite
         result="comp2"
         operator="over"
         in="SourceGraphic"
         in2="comp1"
         id="feComposite8" />
    </filter>
  </defs>
  <path
     xlink:href="#path1"
     id="path7"
     d="m 19.998047,4.4667969 c -5.010262,0 -8.990097,1.7303812 -11.6269532,4.59375 -2.6368563,2.8633691 -3.9042969,6.7635971 -3.9042969,10.9375001 0,4.173907 1.2675021,8.073647 3.9042969,10.9375 2.6367942,2.863852 6.6165852,4.595703 11.6269532,4.595703 5.010335,0 8.991612,-1.731919 11.628906,-4.595703 2.637294,-2.863785 3.904297,-6.763459 3.904297,-10.9375 0,-4.174036 -1.268894,-8.074199 -3.90625,-10.9375001 -2.637356,-2.863301 -6.616724,-4.59375 -11.626953,-4.59375 z"
     style="fill:#ffffff;fill-opacity:1;filter:url(#filter8)" />
  <path
     d="m 19.9989,33.9978 c 9.3344,0 13.9989,-6.2675 13.9989,-13.9989 C 33.9978,12.26751 29.3333,6 19.9989,6 10.66443,6 6,12.26751 6,19.9989 c 0,7.7314 4.66443,13.9989 13.9989,13.9989 z"
     fill="#ffb02e"
     id="path1" />
  <path
     d="M 14.5,20 C 16.9853,20 19,17.9853 19,15.5 19,13.01472 16.9853,11 14.5,11 12.01472,11 10,13.01472 10,15.5 c 0,2.4853 2.01472,4.5 4.5,4.5 z"
     fill="#ffffff"
     id="path2" />
  <path
     d="M 25.5,20 C 27.9853,20 30,17.9853 30,15.5 30,13.01472 27.9853,11 25.5,11 23.0147,11 21,13.01472 21,15.5 c 0,2.4853 2.0147,4.5 4.5,4.5 z"
     fill="#ffffff"
     id="path3" />
  <path
     d="m 18,16 c 0,1.6569 -1.3431,3 -3,3 -1.65685,0 -3,-1.3431 -3,-3 0,-1.6569 1.34315,-3 3,-3 1.6569,0 3,1.3431 3,3 z"
     fill="#402a32"
     id="path4" />
  <path
     d="m 28,16 c 0,1.6569 -1.3431,3 -3,3 -1.6569,0 -3,-1.3431 -3,-3 0,-1.6569 1.3431,-3 3,-3 1.6569,0 3,1.3431 3,3 z"
     fill="#402a32"
     id="path5" />
  <path
     d="m 16.4642,26.4961 c 1.5848,-2.495 4.8872,-3.2351 7.3798,-1.652 0.4662,0.2961 1.0841,0.1582 1.3802,-0.308 0.2961,-0.4662 0.1583,-1.0841 -0.3079,-1.3802 -3.4275,-2.1769 -7.965,-1.157 -10.1403,2.268 -0.2961,0.4662 -0.1582,1.0841 0.308,1.3802 0.4662,0.2961 1.0841,0.1582 1.3802,-0.308 z"
     fill="#402a32"
     id="path6" />
</svg>
