<?xml version="1.0" encoding="UTF-8" standalone="no"?>
<svg
   width="40"
   height="40"
   viewBox="0 0 40 40"
   fill="none"
   version="1.1"
   id="svg1"
   xmlns:xlink="http://www.w3.org/1999/xlink"
   xmlns="http://www.w3.org/2000/svg"
   xmlns:svg="http://www.w3.org/2000/svg">
  <defs
     id="defs1">
    <filter
       style="color-interpolation-filters:sRGB"
       id="filter3"
       x="-0.077785486"
       y="-0.077764456"
       width="1.155571"
       height="1.1555289">
      <feFlood
         result="flood"
         in="SourceGraphic"
         flood-opacity="0.498039"
         flood-color="rgb(0,0,0)"
         id="feFlood2" />
      <feGaussianBlur
         result="blur"
         in="SourceGraphic"
         stdDeviation="1.000000"
         id="feGaussianBlur2" />
      <feOffset
         result="offset"
         in="blur"
         dx="0.000000"
         dy="0.000000"
         id="feOffset2" />
      <feComposite
         result="comp1"
         operator="in"
         in="flood"
         in2="offset"
         id="feComposite2" />
      <feComposite
         result="comp2"
         operator="over"
         in="SourceGraphic"
         in2="comp1"
         id="feComposite3" />
    </filter>
  </defs>
  <path
     style="fill:#ffffff;fill-opacity:1;filter:url(#filter3)"
     xlink:href="#path1"
     id="path2"
     d="m 9.0566406,4.5390625 c -1.1540673,0 -2.3208285,0.4438754 -3.1972656,1.3203125 a 1.4605297,1.4605297 0 0 0 -0.00391,0.00586 c -1.7440831,1.7587393 -1.7440831,4.6357916 0,6.3945316 a 1.4605297,1.4605297 0 0 0 0.00391,0.0059 l 7.716797,7.710937 -7.7070314,7.714844 c -1.7528742,1.754188 -1.7536727,4.640859 0,6.394531 1.7540718,1.754072 4.6424124,1.754072 6.3964844,0 l 7.707031,-7.71289 7.707031,7.703125 c 1.754072,1.754072 4.642413,1.754072 6.396485,0 1.754072,-1.754072 1.754072,-4.642413 0,-6.396485 l -7.707031,-7.705078 7.716796,-7.71875 c 1.754072,-1.754071 1.754072,-4.6424122 0,-6.396484 a 1.4605297,1.4605297 0 0 0 -0.0059,-0.00391 C 32.318459,4.1085295 29.433691,4.1053712 27.679687,5.859375 L 19.970703,13.574219 12.255859,5.859375 C 11.378293,4.9818081 10.210708,4.5390625 9.0566406,4.5390625 Z" />
  <path
     d="m 11.2225,6.8925 c -1.19,-1.19 -3.14,-1.19 -4.33,0 -1.19,1.2 -1.19,3.14 0,4.34 l 8.748,8.744 -8.738,8.746 c -1.19,1.19 -1.19,3.14 0,4.33 1.19,1.19 3.14,1.19 4.33,0 l 8.741,-8.745 8.739,8.735 c 1.19,1.19 3.14,1.19 4.33,0 1.19,-1.19 1.19,-3.14 0,-4.33 l -8.738,-8.738 8.748,-8.752 c 1.19,-1.19 1.19,-3.14 0,-4.33 -1.2,-1.19 -3.15,-1.19 -4.34,0 l -8.741,8.749 z"
     fill="#635994"
     id="path1"
     style="fill:#f42f61;fill-opacity:1" />
</svg>
