<?xml version="1.0" encoding="UTF-8" standalone="no"?>
<svg
   width="40"
   height="40"
   viewBox="0 0 40 40"
   fill="none"
   version="1.1"
   id="svg9"
   xmlns:xlink="http://www.w3.org/1999/xlink"
   xmlns="http://www.w3.org/2000/svg"
   xmlns:svg="http://www.w3.org/2000/svg">
  <defs
     id="defs9">
    <filter
       style="color-interpolation-filters:sRGB"
       id="filter19"
       x="-0.078327384"
       y="-0.083071931"
       width="1.1566548"
       height="1.1661439">
      <feFlood
         result="flood"
         in="SourceGraphic"
         flood-opacity="0.498039"
         flood-color="rgb(0,0,0)"
         id="feFlood18" />
      <feGaussianBlur
         result="blur"
         in="SourceGraphic"
         stdDeviation="1.000000"
         id="feGaussianBlur18" />
      <feOffset
         result="offset"
         in="blur"
         dx="0.000000"
         dy="0.000000"
         id="feOffset18" />
      <feComposite
         result="comp1"
         operator="in"
         in="flood"
         in2="offset"
         id="feComposite18" />
      <feComposite
         result="comp2"
         operator="over"
         in="SourceGraphic"
         in2="comp1"
         id="feComposite19" />
    </filter>
  </defs>
  <path
     xlink:href="#path10"
     id="path18"
     d="m 10.65625,6.6015625 c -3.291357,0 -5.9921875,2.70083 -5.9921875,5.9921875 v 7.044922 c 0,1.218927 0.8280863,2.09607 1.84375,2.476562 V 27 c 0,3.015191 2.4769537,5.492187 5.4921875,5.492187 h 2.269531 c 0.772805,0.584278 1.588664,1.106521 2.476563,1.460938 0.824962,0.900891 1.946444,1.539062 3.253906,1.539062 1.303214,0 2.426602,-0.630746 3.25,-1.52539 0.891056,-0.36949 1.663483,-0.898422 2.384766,-1.47461 H 28 c 3.015209,0 5.492187,-2.476978 5.492187,-5.492187 v -4.892578 c 1.000604,-0.388626 1.8125,-1.26197 1.8125,-2.46875 V 12.59375 c 0,-3.2913493 -2.700816,-5.9921875 -5.992187,-5.9921875 h -4.050781 c -0.781405,0 -1.400734,0.3924865 -1.894532,0.90625 h -6.765625 c -0.494473,-0.5144983 -1.114424,-0.90625 -1.896484,-0.90625 z"
     style="fill:#ffffff;fill-opacity:1;filter:url(#filter19)" />
  <path
     d="m 7.99975,13.00025 c 0,-2.20914 1.79086,-4 4,-4 h 16 c 2.2091,0 4,1.79086 4,4 v 14 c 0,2.2091 -1.7909,4 -4,4 h -16 c -2.20914,0 -4,-1.7909 -4,-4 z"
     fill="#f3c07b"
     id="path1" />
  <path
     d="m 28.06225,25.84405 c 0,-4.475 -4.3125,-5.875 -8,-5.875 -4.125,0 -8.0625,1.5624 -8.0625,5.875 0,3.9499 4.3125,7.3437 8.0625,7.3437 4.5,0 8,-4.6563 8,-7.3437 z"
     fill="#ffdea7"
     id="path2" />
  <path
     d="m 16.99195,28.65645 3.0078,-2.25 3.0078,2.25 v 2.3438 c 0,1.6569 -1.3509,3 -3.0078,3 -1.6569,0 -3.0078,-1.3431 -3.0078,-3 z"
     fill="#ca0b4a"
     id="path3" />
  <path
     d="M 15.72565,10.06704 8.42567,20.36195 C 7.72099,21.35575 6.156,20.85715 6.156,19.63895 V 12.594 c 0,-2.48528 2.01472,-4.5 4.5,-4.5 h 4.05005 c 1.0147,0 1.6066,1.14527 1.0196,1.97304 z"
     fill="#6d4534"
     id="path4" />
  <path
     d="m 24.24255,10.06704 7.3,10.29491 c 0.7047,0.9938 2.2697,0.4952 2.2697,-0.723 V 12.594 c 0,-2.48528 -2.0147,-4.5 -4.5,-4.5 h -4.05 c -1.0148,0 -1.6066,1.14527 -1.0197,1.97304 z"
     fill="#6d4534"
     id="path5" />
  <path
     d="m 15.99975,17.00025 c 0,-0.5523 0.4477,-1 1,-1 0.5523,0 1,0.4477 1,1 v 1 c 0,0.5523 -0.4477,1 -1,1 -0.5523,0 -1,-0.4477 -1,-1 z"
     fill="#212121"
     id="path6" />
  <path
     d="m 21.99975,17.00025 c 0,-0.5523 0.4477,-1 1,-1 0.5523,0 1,0.4477 1,1 v 1 c 0,0.5523 -0.4477,1 -1,1 -0.5523,0 -1,-0.4477 -1,-1 z"
     fill="#212121"
     id="path7" />
  <path
     d="m 21.14435,21.00025 h -2.3169 c -0.5838,0 -1.1269,0.816 -0.6377,1.4728 0.3323,0.446 1.1657,1.3381 1.841,1.3381 0.6754,0 1.4668,-0.8921 1.7782,-1.3381 0.5388,-0.8442 -0.1856,-1.4608 -0.6646,-1.4728 z"
     fill="#212121"
     id="path8" />
  <path
     d="m 20.49975,24.51585 c 0,-0.2761 -0.2239,-0.5 -0.5,-0.5 l -0.0057,10e-5 -0.0057,-10e-5 c -0.2762,0 -0.5,0.2239 -0.5,0.5 0,0.0825 0.0017,0.1639 0.0051,0.244 -0.1158,2.2205 -1.8062,3.2248 -2.9625,3.2248 -0.2761,0 -0.5,0.2238 -0.5,0.5 0,0.2761 0.2239,0.5 0.5,0.5 1.2109,0 2.699,-0.7459 3.4631,-2.2427 0.7641,1.4968 2.2522,2.2427 3.463,2.2427 0.2762,0 0.5,-0.2239 0.5,-0.5 0,-0.2762 -0.2238,-0.5 -0.5,-0.5 -1.1562,0 -2.8466,-1.0043 -2.9624,-3.2248 0.0034,-0.0801 0.0051,-0.1615 0.0051,-0.244 z"
     fill="#212121"
     id="path9" />
</svg>
