<?xml version="1.0" encoding="UTF-8" standalone="no"?>
<svg
   width="40"
   height="40"
   viewBox="0 0 40 40"
   fill="none"
   version="1.1"
   id="svg2"
   xmlns:xlink="http://www.w3.org/1999/xlink"
   xmlns="http://www.w3.org/2000/svg"
   xmlns:svg="http://www.w3.org/2000/svg">
  <defs
     id="defs2">
    <filter
       style="color-interpolation-filters:sRGB"
       id="filter5"
       x="-0.29077142"
       y="-0.076790401"
       width="1.5815428"
       height="1.1535808">
      <feFlood
         result="flood"
         in="SourceGraphic"
         flood-opacity="0.498039"
         flood-color="rgb(0,0,0)"
         id="feFlood4" />
      <feGaussianBlur
         result="blur"
         in="SourceGraphic"
         stdDeviation="1.000000"
         id="feGaussianBlur4" />
      <feOffset
         result="offset"
         in="blur"
         dx="0.000000"
         dy="0.000000"
         id="feOffset4" />
      <feComposite
         result="comp1"
         operator="in"
         in="flood"
         in2="offset"
         id="feComposite4" />
      <feComposite
         result="comp2"
         operator="over"
         in="SourceGraphic"
         in2="comp1"
         id="feComposite5" />
    </filter>
  </defs>
  <path
     xlink:href="#path3"
     id="path4"
     d="m 19.5,4.3730469 c -2.258506,0 -4.125962,1.8554688 -4.126953,4.1152344 V 24.511719 c 0,1.502465 0.864931,2.76974 2.082031,3.488281 -1.218556,0.721114 -2.082031,1.994818 -2.082031,3.5 0,2.262604 1.864349,4.126953 4.126953,4.126953 2.262604,0 4.126953,-1.864349 4.126953,-4.126953 0,-1.504792 -0.863995,-2.776805 -2.082031,-3.498047 1.217445,-0.717878 2.082031,-1.985559 2.082031,-3.488281 V 8.4882813 C 23.626953,6.2281259 21.75872,4.3730469 19.5,4.3730469 Z"
     style="fill:#ffffff;fill-opacity:1;filter:url(#filter5)" />
  <path
     d="M 17,24.5125 C 17,25.8806 18.1251,27 19.5,27 20.8749,27 22,25.8812 22,24.5131 V 8.48748 C 22,7.11943 20.8749,6 19.5,6 18.1257,6 17.0006,7.11943 17,8.48748 Z"
     fill="#f8312f"
     id="path1" />
  <path
     d="M 17,31.5 C 17,32.8748 18.1252,34 19.5,34 20.8748,34 22,32.8748 22,31.5 22,30.1252 20.8748,29 19.5,29 18.1252,29 17,30.1252 17,31.5 Z"
     fill="#f8312f"
     id="path2" />
</svg>
