<?xml version="1.0" encoding="UTF-8" standalone="no"?>
<svg
   width="40"
   height="40"
   viewBox="0 0 40 40"
   fill="none"
   version="1.1"
   id="svg8"
   xmlns:xlink="http://www.w3.org/1999/xlink"
   xmlns="http://www.w3.org/2000/svg"
   xmlns:svg="http://www.w3.org/2000/svg">
  <defs
     id="defs8">
    <filter
       style="color-interpolation-filters:sRGB"
       id="filter17"
       x="-0.071267834"
       y="-0.086718419"
       width="1.1425357"
       height="1.1734368">
      <feFlood
         result="flood"
         in="SourceGraphic"
         flood-opacity="0.498039"
         flood-color="rgb(0,0,0)"
         id="feFlood16" />
      <feGaussianBlur
         result="blur"
         in="SourceGraphic"
         stdDeviation="1.000000"
         id="feGaussianBlur16" />
      <feOffset
         result="offset"
         in="blur"
         dx="0.000000"
         dy="0.000000"
         id="feOffset16" />
      <feComposite
         result="comp1"
         operator="in"
         in="flood"
         in2="offset"
         id="feComposite16" />
      <feComposite
         result="comp2"
         operator="over"
         in="SourceGraphic"
         in2="comp1"
         id="feComposite17" />
    </filter>
  </defs>
  <path
     style="fill:#ffffff;fill-opacity:1;filter:url(#filter17)"
     xlink:href="#path9"
     id="path16"
     d="M 13.527344,6.1621094 C 7.8392109,6.1621094 3.1894531,10.811889 3.1894531,16.5 v 7 c 0,5.688111 4.6497578,10.337891 10.3378909,10.337891 2.522083,0 4.701607,-1.083344 6.5,-2.591797 1.7984,1.508455 3.977935,2.591797 6.5,2.591797 5.688116,0 10.33789,-4.649775 10.33789,-10.337891 v -7 c 0,-5.688116 -4.649774,-10.3378906 -10.33789,-10.3378906 -2.522054,0 -4.701593,1.0833275 -6.5,2.5917969 -1.7984,-1.5084669 -3.977929,-2.5917969 -6.5,-2.5917969 z" />
  <path
     d="m 13.528,8 c -4.69442,0 -8.5,3.8056 -8.5,8.5 v 7 c 0,4.6944 3.80558,8.5 8.5,8.5 2.60853,0 4.94173,-1.1754 6.50003,-3.0227 1.5583,1.8473 3.8915,3.0227 6.5,3.0227 4.6944,0 8.5,-3.8056 8.5,-8.5 v -7 c 0,-4.6944 -3.8056,-8.5 -8.5,-8.5 -2.6085,0 -4.9417,1.17537 -6.5,3.0227 C 18.46973,9.17537 16.13653,8 13.528,8 Z"
     fill="#9b9b9b"
     id="path1" />
  <path
     d="m 13.528,9 c -4.14213,0 -7.5,3.3579 -7.5,7.5 v 7 c 0,4.1421 3.35787,7.5 7.5,7.5 2.77843,0 5.20403,-1.5109 6.50003,-3.7558 1.2959,2.2449 3.7215,3.7558 6.5,3.7558 4.1421,0 7.5,-3.3579 7.5,-7.5 v -7 c 0,-4.1421 -3.3579,-7.5 -7.5,-7.5 -2.7785,0 -5.2041,1.51086 -6.5,3.7558 C 18.73203,10.51086 16.30643,9 13.528,9 Z"
     fill="#ffffff"
     id="path2" />
  <path
     d="m 19.02803,16.5 c 0,-1.3637 0.3639,-2.6423 1,-3.7442 -0.8523,-1.4764 -2.1933,-2.63536 -3.8018,-3.2558 h -0.167 c 1.0938,0.65625 1.9375,3.25 1.9375,4.5 v 12.125 c 0,1.3747 -0.1562,3.0931 -1.9365,4.4368 1.6822,-0.6033 3.0863,-1.7907 3.9678,-3.3176 -0.6361,-1.1019 -1,-2.3805 -1,-3.7442 z"
     fill="#d3d3d3"
     id="path3" />
  <path
     d="m 34.02803,16.5 c 0,-3.191 -1.9928,-5.91654 -4.8018,-7 h -0.167 c 1.6563,1.09375 2.9063,3.0625 2.9063,4.5312 V 26 c 0,1.3747 -1.1246,3.2181 -2.9053,4.5618 2.8961,-1.0387 4.9678,-3.8083 4.9678,-7.0618 z"
     fill="#d3d3d3"
     id="path4" />
  <path
     d="m 10.5905,14 c -1.933,0 -3.5,1.567 -3.5,3.5 v 5 c 0,1.933 1.567,3.5 3.5,3.5 1.933,0 3.50003,-1.567 3.50003,-3.5 v -5 c 0,-1.933 -1.56703,-3.5 -3.50003,-3.5 z"
     fill="#321b41"
     id="path5" />
  <path
     d="m 23.52803,14 c -1.933,0 -3.5,1.567 -3.5,3.5 v 5 c 0,1.933 1.567,3.5 3.5,3.5 1.933,0 3.5,-1.567 3.5,-3.5 v -5 c 0,-1.933 -1.567,-3.5 -3.5,-3.5 z"
     fill="#321b41"
     id="path6" />
  <path
     d="m 12.76651,17.861 c 0.37145,-0.3092 0.35427,-0.9422 -0.03838,-1.4139 -0.39265,-0.4717 -1.01207,-0.6034 -1.38352,-0.2943 -0.37144,0.3092 -0.35426,0.9423 0.03839,1.414 0.39264,0.4717 1.01206,0.6034 1.38351,0.2942 z"
     fill="#f4f4f4"
     id="path7" />
  <path
     d="m 25.76313,17.861 c 0.3714,-0.3092 0.3542,-0.9422 -0.0384,-1.4139 -0.3927,-0.4717 -1.0121,-0.6034 -1.3835,-0.2943 -0.3715,0.3092 -0.3543,0.9423 0.0383,1.414 0.3927,0.4717 1.0121,0.6034 1.3836,0.2942 z"
     fill="#f4f4f4"
     id="path8" />
</svg>
