<?xml version="1.0" encoding="UTF-8" standalone="no"?>
<svg
   width="40"
   height="40"
   viewBox="0 0 40 40"
   fill="none"
   version="1.1"
   id="svg8"
   xmlns:xlink="http://www.w3.org/1999/xlink"
   xmlns="http://www.w3.org/2000/svg"
   xmlns:svg="http://www.w3.org/2000/svg">
  <defs
     id="defs8">
    <filter
       style="color-interpolation-filters:sRGB"
       id="filter17"
       x="-0.074967828"
       y="-0.077777074"
       width="1.1499357"
       height="1.1555541">
      <feFlood
         result="flood"
         in="SourceGraphic"
         flood-opacity="0.498039"
         flood-color="rgb(0,0,0)"
         id="feFlood16" />
      <feGaussianBlur
         result="blur"
         in="SourceGraphic"
         stdDeviation="1.000000"
         id="feGaussianBlur16" />
      <feOffset
         result="offset"
         in="blur"
         dx="0.000000"
         dy="0.000000"
         id="feOffset16" />
      <feComposite
         result="comp1"
         operator="in"
         in="flood"
         in2="offset"
         id="feComposite16" />
      <feComposite
         result="comp2"
         operator="over"
         in="SourceGraphic"
         in2="comp1"
         id="feComposite17" />
    </filter>
  </defs>
  <path
     xlink:href="#path9"
     id="path16"
     d="m 20,4.5703125 c -4.798478,0 -8.634176,1.5887246 -11.2480469,4.2441406 C 6.1380818,11.469869 4.7768581,15.115202 4.59375,19.0625 L 4.8320312,18.335937 C 4.4920351,18.845788 4.3081804,19.489568 4.375,20.15625 l 0.2949219,2.941406 -0.080078,2.435547 c -0.00292,0.09 -0.00175,0.18168 0.00391,0.273438 l 0.00781,-0.25586 c -0.116035,0.97549 9.423e-4,1.996951 0.3808594,2.96875 0.8852909,2.264765 2.9903327,3.671221 5.2792971,3.861328 2.506944,1.89192 5.758349,3.046875 9.738281,3.046875 5.190256,0 9.233359,-1.886932 11.84375,-4.929687 0.315534,-0.202053 0.629914,-0.411142 0.902344,-0.683594 1.284859,-1.284718 1.586533,-2.912503 1.855468,-4.107422 0.1315,-0.584107 0.254058,-1.083051 0.38086,-1.40039 l 1.140625,-2.689454 -0.07031,0.142579 c 0.678662,-1.205943 0.226003,-2.619898 -0.798828,-3.46875 C 34.931488,14.640968 33.669909,11.259757 31.216797,8.7832031 28.604543,6.145986 24.779681,4.5703125 20,4.5703125 Z"
     style="fill:#ffffff;fill-opacity:1;filter:url(#filter17)" />
  <path
     d="m 19.999087,33.9978 c 9.3345,0 13.9989,-6.2675 13.9989,-13.9989 C 33.997987,12.26751 29.333587,6 19.999087,6 10.664667,6 6.0002268,12.26751 6.0002268,19.9989 c 0,7.7314 4.6644402,13.9989 13.9988602,13.9989 z"
     fill="#ffb02e"
     id="path1" />
  <path
     d="m 25.999987,24 c -2.7614,0 -5,-2.2386 -5,-5 0,-2.7614 2.2386,-5 5,-5 2.7614,0 5,2.2386 5,5 0,2.7614 -2.2386,5 -5,5 z"
     fill="#ffffff"
     id="path2" />
  <path
     d="m 25.499987,23 c -1.3807,0 -2.5,-1.1193 -2.5,-2.5 0,-1.3807 1.1193,-2.5 2.5,-2.5 1.3807,0 2.5,1.1193 2.5,2.5 0,1.3807 -1.1193,2.5 -2.5,2.5 z"
     fill="#402a32"
     id="path3" />
  <path
     d="m 14.775287,10.99958 c 0.4139,-0.01395 0.7382,-0.36086 0.7243,-0.77484 -0.014,-0.41398 -0.3609,-0.73826 -0.7749,-0.72431 -3.05112,0.10285 -4.7247002,2.6628 -4.7247002,4.74957 0,0.4142 0.3357902,0.75 0.7500002,0.75 0.41421,0 0.75,-0.3358 0.75,-0.75 0,-1.41321 1.16105,-3.17915 3.2753,-3.25042 z"
     fill="#402a32"
     id="path4" />
  <path
     d="m 25.724687,10.99958 c -0.4139,-0.01395 -0.7382,-0.36086 -0.7243,-0.77484 0.014,-0.41398 0.3609,-0.73826 0.7749,-0.72431 3.0511,0.10285 4.7247,2.6628 4.7247,4.74957 0,0.4142 -0.3358,0.75 -0.75,0.75 -0.4142,0 -0.75,-0.3358 -0.75,-0.75 0,-1.41321 -1.1611,-3.17915 -3.2753,-3.25042 z"
     fill="#402a32"
     id="path5" />
  <path
     d="m 19.999987,31 c -1.6518,0 -3,-1.3482 -3,-3 0,-1.6518 1.3482,-3 3,-3 1.6518,0 3,1.3482 3,3 0,1.6518 -1.3482,3 -3,3 z"
     fill="#bb1d80"
     id="path6" />
  <path
     d="m 26.994087,15.0118 c -0.8252,0.0731 -1.4348,0.8014 -1.3617,1.6266 l 0.394,4.4456 -0.0292,0.0127 -3.1982,-1.8465 c -0.7174,-0.4142 -1.6348,-0.1684 -2.049,0.5491 -0.4142,0.7174 -0.1684,1.6348 0.549,2.049 l 0.079,0.0456 c -0.4555,0.0527 -0.8811,0.3127 -1.128,0.7403 -0.4142,0.7175 -0.1684,1.6349 0.549,2.0491 l 2.4725,1.4275 c 0.6398,0.4439 0.995,0.9846 1.3558,1.5336 0.4376,0.666 0.8832,1.3442 1.8544,1.8768 2.0027,0.8628 4.0264,0.5077 5.2532,-0.7192 0.9104,-0.9103 1.204,-2.2151 1.473,-3.4103 0.1317,-0.585 0.2575,-1.1437 0.4467,-1.6172 l 1.1524,-2.7152 c 0.3694,-0.6564 0.1237,-1.5051 -0.5475,-1.8903 -0.6675,-0.3832 -1.5024,-0.1621 -1.8649,0.4938 l -1.1446,1.8245 v -4.4871 c 0,-0.8284 -0.6716,-1.5 -1.5,-1.5 -0.4817,0 -0.9104,0.227 -1.1849,0.58 -0.1978,-0.6713 -0.8471,-1.1325 -1.571,-1.0684 z"
     fill="#ff822d"
     id="path7" />
  <path
     d="m 10.920427,16.7997 c 0.36077,-0.6368 1.17544,-0.8782 1.81962,-0.5391 0.51362,0.2704 0.76377,0.8282 0.66119,1.366 l 0.36804,-0.6497 c 0.37751,-0.6665 1.23011,-0.9191 1.90421,-0.5642 0.6741,0.3548 0.9146,1.1828 0.537,1.8493 l -0.0992,0.1751 c 0.3007,-0.0537 0.6194,-0.0126 0.9058,0.1382 0.6741,0.3548 0.9145,1.1828 0.537,1.8493 l -0.323,0.5702 c 0.3101,-0.0499 0.637,0.002 0.9243,0.1697 0.6597,0.3852 0.8554,1.2316 0.4338,1.8767 l -3.5943,5.5003 c -0.5265,0.9433 -1.37437,1.7182 -2.46329,2.1438 -2.47529,0.9677 -5.2589502,-0.2357 -6.2174702,-2.6878 -0.29305,-0.7496 -0.38157,-1.5292 -0.2925,-2.278 -0.00284,-0.046 -0.00353,-0.0923 -0.00202,-0.1388 l 0.08235,-2.5312 -0.30426,-3.0354 c -0.07512,-0.7495 0.49043,-1.4283 1.25973,-1.512 0.76517,-0.0832 1.4413,0.4543 1.51019,1.2004 l 0.09929,1.0754 z"
     fill="#ff822d"
     id="path8" />
</svg>
