<?xml version="1.0" encoding="UTF-8" standalone="no"?>
<svg
   width="40"
   height="40"
   viewBox="0 0 40 40"
   fill="none"
   version="1.1"
   id="svg7"
   xmlns:xlink="http://www.w3.org/1999/xlink"
   xmlns="http://www.w3.org/2000/svg"
   xmlns:svg="http://www.w3.org/2000/svg">
  <defs
     id="defs7">
    <filter
       style="color-interpolation-filters:sRGB"
       id="filter15"
       x="-0.0721726"
       y="-0.077317058"
       width="1.1443452"
       height="1.1546341">
      <feFlood
         result="flood"
         in="SourceGraphic"
         flood-opacity="0.498039"
         flood-color="rgb(0,0,0)"
         id="feFlood14" />
      <feGaussianBlur
         result="blur"
         in="SourceGraphic"
         stdDeviation="1.000000"
         id="feGaussianBlur14" />
      <feOffset
         result="offset"
         in="blur"
         dx="0.000000"
         dy="0.000000"
         id="feOffset14" />
      <feComposite
         result="comp1"
         operator="in"
         in="flood"
         in2="offset"
         id="feComposite14" />
      <feComposite
         result="comp2"
         operator="over"
         in="SourceGraphic"
         in2="comp1"
         id="feComposite15" />
    </filter>
  </defs>
  <path
     style="fill:#ffffff;fill-opacity:1;filter:url(#filter15)"
     xlink:href="#path8"
     id="path14"
     d="m 20,4.4785156 c -5.007631,0 -8.984121,1.7290686 -11.6191406,4.5898438 C 5.7458399,11.929135 4.4785156,15.82638 4.4785156,19.998047 c 0,0.133794 0.0088,0.259418 0.011719,0.390625 -1.2508491,1.335959 -1.3299586,3.428446 -0.140625,4.833984 C 4.6590938,25.58841 5.1080037,25.69497 5.5097656,25.90625 7.4570973,31.459972 12.487201,35.519531 20,35.519531 c 7.353645,0 12.296631,-3.907834 14.332031,-9.279297 0.584564,-0.208047 1.141979,-0.511398 1.570313,-1.017578 1.215822,-1.436941 1.122386,-3.60027 -0.207032,-4.929687 l -0.177734,-0.177735 c 1.98e-4,-0.03898 0.002,-0.07827 0.002,-0.117187 10e-7,-4.171544 -1.265855,-8.06885 -3.90039,-10.9296876 C 28.984605,6.207522 25.007598,4.4785156 20,4.4785156 Z" />
  <path
     d="m 19.999111,33.9978 c 9.3344,0 13.9989,-6.2675 13.9989,-13.9989 C 33.998011,12.26751 29.333511,6 19.999111,6 10.664641,6 6.0002109,12.26751 6.0002109,19.9989 c 0,7.7314 4.6644301,13.9989 13.9989001,13.9989 z"
     fill="#ffb02e"
     id="path1" />
  <path
     d="m 12.981771,15.1909 c 0.04808,-0.2473 0.15815,-0.5504 0.3674,-0.7784 0.17933,-0.1954 0.49802,-0.4125 1.15094,-0.4125 0.6418,0 0.9686,0.2216 1.1573,0.4288 0.2181,0.2395 0.3232,0.5449 0.3575,0.7423 0.0945,0.5441 0.6122,0.9086 1.1563,0.8142 0.5442,-0.0945 0.9087,-0.6123 0.8142,-1.1564 -0.079,-0.4549 -0.3053,-1.1495 -0.8495,-1.74694 C 16.562211,12.45218 15.695711,12 14.500111,12 c -1.18426,0 -2.04721,0.4313 -2.62439,1.06013 -0.54725,0.59624 -0.76855,1.29317 -0.85718,1.74897 -0.10542,0.5422 0.24861,1.0671 0.79074,1.1725 0.54213,0.1054 1.06707,-0.2486 1.17249,-0.7907 z"
     fill="#402a32"
     id="path2" />
  <path
     d="m 23.982011,15.1909 c 0.0481,-0.2473 0.1582,-0.5504 0.3674,-0.7784 0.1793,-0.1954 0.498,-0.4125 1.151,-0.4125 0.6417,0 0.9685,0.2216 1.1572,0.4288 0.2182,0.2395 0.3233,0.5449 0.3575,0.7423 0.0945,0.5441 0.6122,0.9086 1.1564,0.8142 0.5441,-0.0945 0.9086,-0.6123 0.8141,-1.1564 -0.079,-0.4549 -0.3052,-1.1495 -0.8495,-1.74694 C 27.562511,12.45218 26.695911,12 25.500411,12 c -1.1843,0 -2.0473,0.4313 -2.6244,1.06013 -0.5473,0.59624 -0.7686,1.29317 -0.8572,1.74897 -0.1054,0.5422 0.2486,1.0671 0.7907,1.1725 0.5421,0.1054 1.0671,-0.2486 1.1725,-0.7907 z"
     fill="#402a32"
     id="path3" />
  <path
     d="m 20.000211,29 c -9,0 -9,-9 -9,-9 h 18 c 0,0 0,9 -9,9 z"
     fill="#bb1d80"
     id="path4" />
  <path
     d="M 12.000211,20.5 V 20 h 16 v 0.5 c 0,0.5523 -0.4477,1 -1,1 h -14 c -0.55228,0 -1,-0.4477 -1,-1 z"
     fill="#ffffff"
     id="path5" />
  <path
     d="M 8.6303309,24.3698 12.000131,21 c 0.82843,-0.8284 0.82843,-2.1716 0,-3 -0.82843,-0.8284 -2.1715701,-0.8284 -3.0000001,0 l -3.3698,3.3698 c -0.780134,0.7801 -0.83204,2.028 -0.11939,2.8702 0.80165,0.9474 2.24183,1.0073 3.11939,0.1298 z"
     fill="#3f5fff"
     id="path6" />
  <path
     d="M 31.620011,24.3698 28.250211,21 c -0.8284,-0.8284 -0.8284,-2.1716 0,-3 0.8284,-0.8284 2.1716,-0.8284 3,0 l 3.3698,3.3698 c 0.7801,0.7801 0.832,2.028 0.1194,2.8702 -0.8017,0.9474 -2.2419,1.0073 -3.1194,0.1298 z"
     fill="#3f5fff"
     id="path7" />
</svg>
