<?xml version="1.0" encoding="UTF-8" standalone="no"?>
<svg
   width="40"
   height="40"
   viewBox="0 0 40 40"
   fill="none"
   version="1.1"
   id="svg5"
   xmlns:xlink="http://www.w3.org/1999/xlink"
   xmlns="http://www.w3.org/2000/svg"
   xmlns:svg="http://www.w3.org/2000/svg">
  <defs
     id="defs5">
    <filter
       style="color-interpolation-filters:sRGB"
       id="filter7"
       x="-0.077875658"
       y="-0.077875658"
       width="1.1557513"
       height="1.1557513">
      <feFlood
         result="flood"
         in="SourceGraphic"
         flood-opacity="0.498039"
         flood-color="rgb(0,0,0)"
         id="feFlood6" />
      <feGaussianBlur
         result="blur"
         in="SourceGraphic"
         stdDeviation="1.000000"
         id="feGaussianBlur6" />
      <feOffset
         result="offset"
         in="blur"
         dx="0.000000"
         dy="0.000000"
         id="feOffset6" />
      <feComposite
         result="comp1"
         operator="in"
         in="flood"
         in2="offset"
         id="feComposite6" />
      <feComposite
         result="comp2"
         operator="over"
         in="SourceGraphic"
         in2="comp1"
         id="feComposite7" />
    </filter>
  </defs>
  <path
     xlink:href="#path1"
     id="path6"
     d="m 19.998047,4.5898437 c -4.982659,0 -8.924727,1.7178952 -11.5371095,4.5546876 -2.6123822,2.8367927 -3.8710938,6.7044137 -3.8710938,10.8535157 0,4.149107 1.2587682,8.016239 3.8710938,10.853515 2.6123255,2.837277 6.5543525,4.556641 11.5371095,4.556641 4.982724,0 8.924285,-1.719427 11.537109,-4.556641 2.612825,-2.837213 3.873047,-6.704285 3.873047,-10.853515 0,-4.149225 -1.260165,-8.016786 -3.873047,-10.8535157 -2.612881,-2.83673 -6.554483,-4.5546875 -11.537109,-4.5546876 z"
     style="fill:#ffffff;fill-opacity:1;filter:url(#filter7)" />
  <path
     d="m 19.9989,33.9978 c 9.3344,0 13.9989,-6.2675 13.9989,-13.9989 C 33.9978,12.26751 29.3333,6 19.9989,6 10.66443,6 6,12.26751 6,19.9989 c 0,7.7314 4.66443,13.9989 13.9989,13.9989 z"
     fill="#ffb02e"
     id="path1" />
  <path
     d="m 12.98156,15.1909 c 0.04808,-0.2473 0.15815,-0.5504 0.3674,-0.7784 C 13.52829,14.2171 13.84698,14 14.4999,14 c 0.6418,0 0.9686,0.2216 1.1573,0.4288 0.2181,0.2395 0.3232,0.5449 0.3575,0.7423 0.0945,0.5441 0.6122,0.9086 1.1563,0.8142 0.5442,-0.0945 0.9087,-0.6123 0.8142,-1.1564 C 17.9062,14.374 17.6799,13.6794 17.1357,13.08196 16.562,12.45218 15.6955,12 14.4999,12 c -1.18426,0 -2.04721,0.4313 -2.62439,1.06013 -0.54725,0.59624 -0.76855,1.29317 -0.85718,1.74897 -0.10542,0.5422 0.24861,1.0671 0.79074,1.1725 0.54213,0.1054 1.06707,-0.2486 1.17249,-0.7907 z"
     fill="#402a32"
     id="path2" />
  <path
     d="M 23.9818,15.1909 C 24.0299,14.9436 24.14,14.6405 24.3492,14.4125 24.5285,14.2171 24.8472,14 25.5002,14 c 0.6417,0 0.9685,0.2216 1.1572,0.4288 0.2182,0.2395 0.3233,0.5449 0.3575,0.7423 0.0945,0.5441 0.6122,0.9086 1.1564,0.8142 0.5441,-0.0945 0.9086,-0.6123 0.8141,-1.1564 C 28.9064,14.374 28.6802,13.6794 28.1359,13.08196 27.5623,12.45218 26.6957,12 25.5002,12 c -1.1843,0 -2.0473,0.4313 -2.6244,1.06013 -0.5473,0.59624 -0.7686,1.29317 -0.8572,1.74897 -0.1054,0.5422 0.2486,1.0671 0.7907,1.1725 0.5421,0.1054 1.0671,-0.2486 1.1725,-0.7907 z"
     fill="#402a32"
     id="path3" />
  <path
     d="m 20,29 c -9,0 -9,-9 -9,-9 h 18 c 0,0 0,9 -9,9 z"
     fill="#bb1d80"
     id="path4" />
  <path
     d="M 12,20.5 V 20 h 16 v 0.5 c 0,0.5523 -0.4477,1 -1,1 H 13 c -0.55228,0 -1,-0.4477 -1,-1 z"
     fill="#ffffff"
     id="path5" />
</svg>
