<?xml version="1.0" encoding="UTF-8" standalone="no"?>
<svg
   width="40"
   height="40"
   viewBox="0 0 40 40"
   fill="none"
   version="1.1"
   id="svg3"
   xmlns:xlink="http://www.w3.org/1999/xlink"
   xmlns="http://www.w3.org/2000/svg"
   xmlns:svg="http://www.w3.org/2000/svg">
  <defs
     id="defs3">
    <filter
       style="color-interpolation-filters:sRGB"
       id="filter7"
       x="-0.07563879"
       y="-0.084922264"
       width="1.1512776"
       height="1.1698445">
      <feFlood
         result="flood"
         in="SourceGraphic"
         flood-opacity="0.498039"
         flood-color="rgb(0,0,0)"
         id="feFlood6" />
      <feGaussianBlur
         result="blur"
         in="SourceGraphic"
         stdDeviation="1.000000"
         id="feGaussianBlur6" />
      <feOffset
         result="offset"
         in="blur"
         dx="0.000000"
         dy="0.000000"
         id="feOffset6" />
      <feComposite
         result="comp1"
         operator="in"
         in="flood"
         in2="offset"
         id="feComposite6" />
      <feComposite
         result="comp2"
         operator="over"
         in="SourceGraphic"
         in2="comp1"
         id="feComposite7" />
    </filter>
  </defs>
  <path
     style="fill:#ffffff;fill-opacity:1;filter:url(#filter7)"
     xlink:href="#path4"
     id="path6"
     d="m 13.550781,6.2109375 c -0.130747,-2.365e-4 -0.194284,0.004 -0.189453,0.00391 -0.05436,0.00103 -0.11474,0.00139 -0.179687,0.00391 -0.113544,0.00441 -0.21005,0.011829 -0.291016,0.017578 -0.04943,0.00351 -0.114267,0.00853 -0.191406,0.015625 -0.124661,0.011472 -0.231295,0.025486 -0.322266,0.037109 0.0042,-5.324e-4 -0.05009,0.00318 -0.162109,0.019531 -0.131332,0.019157 -0.235809,0.03813 -0.316406,0.052734 -0.03742,0.00678 -0.11077,0.019675 -0.214844,0.041016 -0.125948,0.025833 -0.216503,0.048595 -0.275391,0.0625 -0.0065,0.00153 -0.07761,0.014158 -0.210937,0.048828 -0.148127,0.038527 -0.239098,0.069508 -0.275391,0.080078 -0.04444,0.012944 -0.131975,0.036423 -0.261719,0.078125 -0.0788,0.025322 -0.122247,0.040731 -0.128906,0.042969 -0.103163,0.034662 -0.2273,0.076894 -0.365234,0.1289063 0.112159,-0.041577 0.109737,-0.040823 -0.0059,0.00195 -0.0038,0.00142 -0.006,0.00247 -0.0098,0.00391 a 1.9108816,1.9108816 0 0 0 -0.0059,0.00195 C 9.98315,6.9130584 9.8237939,6.9787712 9.6679688,7.046875 9.493746,7.1230266 9.3210176,7.203749 9.1464844,7.2910156 5.5198664,9.1043135 3.9297613,12.667082 4.15625,16.064453 c 0.2264887,3.397372 1.94195,6.736877 4.4921875,9.287109 1.1085028,1.108483 2.7014825,2.638397 4.3554685,4.166016 0.827045,0.763857 1.667797,1.524917 2.470703,2.232422 0.803019,0.707606 1.56791,1.359204 2.248047,1.908203 1.295241,1.045438 3.197813,1.09749 4.541016,0.07617 0.27077,-0.2059 0.550949,-0.426608 0.835937,-0.658203 a 1.9108816,1.9108816 0 0 0 0.01367,-0.01953 c 2.860044,-2.324599 6.239705,-5.706412 8.238281,-7.705079 2.550232,-2.550231 4.265697,-5.889738 4.492188,-9.287109 0.226491,-3.397371 -1.363615,-6.9601395 -4.990234,-8.7734374 -0.163768,-0.081883 -0.297757,-0.1397355 -0.404297,-0.1875 a 1.9108816,1.9108816 0 0 0 -0.0059,-0.00781 c -0.10137,-0.045644 -0.127731,-0.054885 -0.07422,-0.03125 -0.09511,-0.042021 -0.159388,-0.066662 -0.191407,-0.080078 -0.0726,-0.030417 -0.173497,-0.07596 -0.30664,-0.1269531 -0.140373,-0.053753 -0.247878,-0.088904 -0.31836,-0.1132813 -0.0053,-0.00183 -0.06214,-0.0228 -0.171875,-0.058594 -0.101637,-0.033148 -0.194869,-0.062515 -0.28125,-0.087891 -0.08315,-0.024423 -0.17616,-0.049625 -0.277343,-0.076172 -0.08483,-0.022271 -0.163713,-0.041475 -0.236329,-0.058594 -0.08754,-0.020624 -0.168507,-0.039335 -0.242187,-0.054687 h -0.002 c -0.08309,-0.017291 -0.162654,-0.033155 -0.238281,-0.046875 -0.08374,-0.015184 -0.185063,-0.033144 -0.304688,-0.050781 -0.102327,-0.015097 -0.168526,-0.022018 -0.195312,-0.025391 -0.09184,-0.011555 -0.188668,-0.021819 -0.289063,-0.03125 -0.05359,-0.00503 -0.119281,-0.011836 -0.199219,-0.017578 -0.09461,-0.00679 -0.196541,-0.013444 -0.304687,-0.017578 -0.05623,-0.00214 -0.112457,-0.00279 -0.169922,-0.00391 -0.117529,-0.00227 -0.234611,-0.00229 -0.351563,0 -0.085,0.00166 -0.129964,0.00381 -0.132812,0.00391 -0.07879,0.0027 -0.167179,0.00738 -0.265625,0.013672 -0.05979,0.00383 -0.129152,0.00708 -0.205078,0.013672 -0.272866,0.023664 -0.535062,0.060123 -0.783203,0.1035157 -0.04222,0.00739 -0.08648,0.016191 -0.134766,0.025391 -0.252285,0.048026 -0.506771,0.106661 -0.761719,0.1777344 -0.01536,0.00428 -0.04893,0.01341 -0.103515,0.029297 -0.252055,0.073383 -0.488209,0.1549962 -0.708985,0.2382813 -0.0029,0.0011 -0.04394,0.013871 -0.123047,0.044922 -0.227829,0.089424 -0.454455,0.1878102 -0.677734,0.2949218 -0.02848,0.013669 -0.0566,0.027567 -0.08398,0.041016 -0.216783,0.1064174 -0.426155,0.2179203 -0.626953,0.3339843 -0.01642,0.00949 -0.04631,0.027004 -0.08984,0.052734 C 21.38643,7.7092873 21.189111,7.8359539 21,7.9648437 c -0.0041,0.00279 -0.02679,0.017506 -0.06641,0.044922 -0.197234,0.1365201 -0.383357,0.2744935 -0.5625,0.4160157 0.02667,-0.021074 0.01892,-0.01646 -0.03125,0.023437 C 20.207269,8.554691 20.083992,8.6645947 19.958984,8.7734375 19.047719,7.9797394 17.976943,7.2468167 16.603516,6.7617187 a 1.9108816,1.9108816 0 0 0 -0.0293,-0.029297 C 16.374113,6.6626954 16.278142,6.642435 16.291016,6.6464844 16.209877,6.620958 16.086058,6.5800803 15.919922,6.5351562 15.706914,6.4775329 15.469688,6.4184441 15.207031,6.3691406 a 1.9108816,1.9108816 0 0 0 0,-0.00195 C 15.1179,6.3504689 15.083264,6.3460497 15.103516,6.3496094 v 0.00195 c -0.256245,-0.045071 -0.518077,-0.08204 -0.78711,-0.1054688 -0.07564,-0.00658 -0.15281,-0.010764 -0.232422,-0.015625 -0.09207,-0.00562 -0.168201,-0.00962 -0.226562,-0.011719 -0.03276,-0.00118 -0.08282,-0.00259 -0.152344,-0.00391 0.03163,5.999e-4 -0.02058,-0.00364 -0.154297,-0.00391 z" />
  <path
     d="m 9.9993911,8.999819 c 4.6647299,-2.33238 8.5000299,0.5 10.0000299,2.5 1.5,-2.00001 5.3352,-4.83238 10,-2.5 6,2.99998 4.4999,10.49999 -1e-4,14.99999 -2.1957,2.1958 -6.0627,6.0628 -8.8911,8.2137 -0.6535,0.4969 -1.5473,0.4747 -2.1861,-0.0409 -2.5927,-2.0928 -6.75769,-6.0078 -8.9227299,-8.1728 -4.50001,-4.5 -5.9999969,-12.00001 0,-14.99999 z"
     fill="#f8312f"
     id="path1" />
  <path
     d="m 19.999321,11.499789 v 3.04922 c 1.2697,-2.68419 4.4254,-6.26869 9.658,-5.71174 -4.5096,-2.03123 -8.1948,0.71162 -9.658,2.66252 z"
     fill="#ca0b4a"
     id="path2" />
  <path
     d="m 15.945121,8.536719 c -1.6842,-0.58686 -3.72061,-0.64946 -5.9457299,0.4631 -5.9999969,2.99998 -4.50001,10.49999 0,14.99999 2.1650399,2.165 6.3300299,6.08 8.9227299,8.1728 0.6388,0.5156 1.5326,0.5378 2.1861,0.0409 0.2542,-0.1933 0.5168,-0.4005 0.7858,-0.6191 -2.8547,-2.1422 -6.861,-5.5184 -9.03552,-7.4621 -4.9567999,-4.4305 -6.6090499,-11.81462 0,-14.76825 1.07381,-0.4799 2.10772,-0.73771 3.08662,-0.82734 z"
     fill="#ca0b4a"
     id="path3" />
  <ellipse
     cx="31.592205"
     cy="-0.23393528"
     rx="2.8355401"
     ry="4.78125"
     transform="rotate(30)"
     fill="#f37366"
     id="ellipse3" />
</svg>
