<?xml version="1.0" encoding="UTF-8" standalone="no"?>
<svg
   width="40"
   height="40"
   viewBox="0 0 40 40"
   fill="none"
   version="1.1"
   id="svg1"
   xmlns:xlink="http://www.w3.org/1999/xlink"
   xmlns="http://www.w3.org/2000/svg"
   xmlns:svg="http://www.w3.org/2000/svg">
  <defs
     id="defs1">
    <filter
       style="color-interpolation-filters:sRGB"
       id="filter3"
       x="-0.077320646"
       y="-0.086524073"
       width="1.1546413"
       height="1.1730481">
      <feFlood
         result="flood"
         in="SourceGraphic"
         flood-opacity="0.498039"
         flood-color="rgb(0,0,0)"
         id="feFlood2" />
      <feGaussianBlur
         result="blur"
         in="SourceGraphic"
         stdDeviation="1.000000"
         id="feGaussianBlur2" />
      <feOffset
         result="offset"
         in="blur"
         dx="0.000000"
         dy="0.000000"
         id="feOffset2" />
      <feComposite
         result="comp1"
         operator="in"
         in="flood"
         in2="offset"
         id="feComposite2" />
      <feComposite
         result="comp2"
         operator="over"
         in="SourceGraphic"
         in2="comp1"
         id="feComposite3" />
    </filter>
  </defs>
  <path
     xlink:href="#path1"
     id="path2"
     d="M 29.128906,6.6875 C 27.432715,6.9112625 25.859722,7.823036 24.832031,9.2675781 24.407156,9.8621686 24.151572,10.523025 23.896484,11.179688 23.710964,10.863956 23.661415,10.498435 23.400391,10.216797 22.105346,8.8074943 20.22787,8.4765355 18.628906,8.6875 16.932715,8.9112625 15.359722,9.8230361 14.332031,11.267578 14.02902,11.691614 13.877344,12.171322 13.664063,12.630859 13.543727,12.228415 13.42892,11.80392 13.046875,11.421875 12.554196,10.929196 11.785388,10.630859 11,10.630859 c -0.834869,0 -1.3807928,0.351281 -1.9121094,0.72461 -0.5313165,0.373328 -1.0355901,0.835672 -1.5332031,1.341797 -0.9952261,1.012248 -1.951792,2.203167 -2.6464844,3.113281 -1.0387684,1.361029 -0.6122845,3.363953 0.8320313,4.230469 0.3453478,0.207224 0.7401841,0.185103 1.1230468,0.238281 l -0.9355468,6.554687 c -0.2630931,1.841723 1.2060576,3.535157 3.0664062,3.535157 1.5369694,0 2.8602064,-1.150477 3.0703124,-2.673829 l 0.638672,-4.630859 c 0.2269,0.601459 0.389859,1.225074 0.882813,1.738281 a 1.3700028,1.3700028 0 0 0 0.0039,0.0039 c 0.38142,0.393458 0.871117,0.548905 1.326172,0.787109 l -0.421875,0.0918 c -1.260739,0.275748 -2.084853,1.557229 -1.808594,2.820312 0.09146,0.418185 0.41492,0.682869 0.689453,0.980469 l -0.896484,0.203125 a 1.3700028,1.3700028 0 0 0 -0.002,0 c -1.260561,0.284768 -2.07133,1.57332 -1.78711,2.832031 0.284643,1.260714 1.575262,2.073416 2.833985,1.789063 l 15.498046,-3.5 c 1.25951,-0.284308 2.074801,-1.570686 1.791016,-2.832031 -0.08458,-0.374702 -0.390709,-0.596906 -0.625,-0.875 l 1.320312,-0.289063 c 1.261234,-0.276092 2.082231,-1.560308 1.806641,-2.820312 -0.137002,-0.626494 -0.525178,-1.141124 -1.033203,-1.470704 0.288004,-0.276096 0.637489,-0.469139 0.871094,-0.808593 a 1.3700028,1.3700028 0 0 0 0.0039,-0.0059 c 1.045739,-1.536241 1.591203,-3.360569 1.753906,-5.140625 l -0.002,0.02734 c 0.08135,-0.723762 0.172196,-1.459158 0.263672,-2.197265 0.03736,-0.301444 0.07292,-0.600741 0.109375,-0.900391 C 35.550075,11.73155 35.274363,9.6992749 33.900391,8.2167969 32.605346,6.8074944 30.72787,6.4765355 29.128906,6.6875 Z m -0.0078,11.484375 c 8e-6,-7.4e-5 0.0019,7.4e-5 0.002,0 l -0.002,0.0078 c 2.7e-4,-0.0026 -2.71e-4,-0.0053 0,-0.0078 z m -10.5,2 c 8e-6,-7.4e-5 0.0019,7.4e-5 0.002,0 l -0.002,0.0078 c 2.7e-4,-0.0026 -2.71e-4,-0.0053 0,-0.0078 z m 4.960937,1.638672 c 0.189005,0.327087 0.22254,0.699254 0.503906,0.992187 a 1.3700028,1.3700028 0 0 0 0.0039,0.0039 c 0.276372,0.285095 0.64319,0.367932 0.960937,0.570312 l -2.660156,0.582031 c 0.07566,-0.09652 0.191372,-0.141919 0.261719,-0.24414 a 1.3700028,1.3700028 0 0 0 0.0039,-0.0059 c 0.400475,-0.588317 0.665208,-1.244348 0.925781,-1.898437 z"
     style="fill:#ffffff;fill-opacity:1;filter:url(#filter3)" />
  <path
     fill-rule="evenodd"
     clip-rule="evenodd"
     d="m 25.074551,21.8533 c -1.0144,-1.0561 -1.1785,-2.7451 -1.0238,-4.1573 0.0588,-0.5231 0.1223,-1.0494 0.1858,-1.5758 0.0635,-0.5263 0.127,-1.0527 0.1858,-1.5757 0.1884,-1.55485 0.6185,-3.21596 1.5243,-4.48295 0.8008,-1.1256201 2.0383,-1.8413901 3.3619,-2.0160001 1.2734,-0.1680102 2.6829,0.11354 3.5869,1.09926 0.9843,1.0601301 1.2536,2.6927001 1.0325,4.1455901 -0.038,0.3125 -0.0769,0.626 -0.1158,0.9399 -0.0915,0.7383 -0.1833,1.4789 -0.2658,2.2129 -0.1445,1.5809 -0.6411,3.1977 -1.5231,4.4934 -0.7881,1.1452 -2.0383,1.8414 -3.3618,2.016 -1.2722,0.1785 -2.6554,-0.1384 -3.5869,-1.0993 z m 2.9417,-6.0343 c -0.0893,0.7376 -0.1786,1.4755 -0.2569,2.2164 -0.0877,0.8722 0.2049,1.2692 0.8366,1.1859 0.6418,-0.0847 0.9808,-0.565 1.0686,-1.4372 0.0803,-0.8075 0.1789,-1.612 0.2774,-2.4166 0.0985,-0.8046 0.197,-1.6091 0.2774,-2.41655 0.0877,-0.87219 -0.2049,-1.2692 -0.8466,-1.18454 -0.6317,0.08334 -0.9708,0.56369 -1.0586,1.43589 -0.087,0.8746 -0.1924,1.7454 -0.2979,2.6167 z m -14.46552,3.877 c -0.15471,1.4122 0.0094,3.1012 1.02382,4.1573 0.9315,0.9609 2.3147,1.2778 3.5869,1.0993 1.3235,-0.1746 2.5737,-0.8708 3.3618,-2.016 0.882,-1.2957 1.3786,-2.9125 1.5231,-4.4934 0.0825,-0.7339 0.1743,-1.4744 0.2658,-2.2127 v -2e-4 l 10e-5,-6e-4 c 0.0388,-0.3137 0.0777,-0.627 0.1157,-0.9393 0.2211,-1.4529 -0.0482,-3.08546 -1.0325,-4.14559 -0.904,-0.98572 -2.3135,-1.2672701 -3.5869,-1.09926 -1.3236,0.17461 -2.5611,0.89038 -3.3619,2.016 -0.9058,1.26695 -1.3359,2.92805 -1.5243,4.48295 -0.0588,0.523 -0.12231,1.0494 -0.18581,1.5757 -0.0635,0.5264 -0.12701,1.0527 -0.18581,1.5758 z m 3.96552,-1.877 v 0 c 0.1055,-0.8713 0.2109,-1.7421 0.2979,-2.6167 0.0878,-0.8722 0.4269,-1.3526 1.0586,-1.4359 0.6417,-0.0847 0.9343,0.3124 0.8466,1.1846 -0.0804,0.8074 -0.1789,1.6119 -0.2774,2.4165 v 0 c -0.0985,0.8046 -0.1971,1.6091 -0.2774,2.4166 -0.0878,0.8722 -0.4268,1.3525 -1.0686,1.4372 -0.6317,0.0833 -0.9243,-0.3137 -0.8366,-1.1859 0.0783,-0.7409 0.1676,-1.4788 0.2569,-2.2164 z m -6.81003,9.6884 1.79413,-13.0074 c 0,0 0.5,-2.5 -1.5,-2.5 -1.2640601,0 -3.6517901,2.8731 -5.0027601,4.643 -0.55326,0.7249 -0.334,1.755 0.4479,2.2241 0.61995,0.372 1.4135,0.2743 1.9247,-0.2369 l 0.13017,-0.1302 -1.21811,8.5267 c -0.14878,1.0415 0.65936,1.9733 1.71141,1.9733 0.8635,0 1.5945801,-0.6372 1.7125601,-1.4926 z m 21.27103,-3.2211 c 0.118,0.5395 -0.2237,1.0725 -0.7632,1.1906 l -16,3.5 c -0.5395,0.118 -1.0726,-0.2237 -1.1906,-0.7632 -0.11802,-0.5396 0.2237,-1.0726 0.7632,-1.1906 l 16,-3.5 c 0.5395,-0.1181 1.0726,0.2236 1.1906,0.7632 z m -2.5015,3.9934 c 0.1217,0.5387 -0.2164,1.0741 -0.7551,1.1957 l -15.50004,3.5 c -0.53872,0.1217 -1.07405,-0.2164 -1.1957,-0.7552 -0.12164,-0.5387 0.21646,-1.074 0.75518,-1.1957 l 15.49996,-3.5 c 0.5388,-0.1216 1.0741,0.2165 1.1957,0.7552 z"
     fill="#f8312f"
     id="path1" />
</svg>
