<?xml version="1.0" encoding="UTF-8" standalone="no"?>
<svg
   width="40"
   height="40"
   viewBox="0 0 40 40"
   fill="none"
   version="1.1"
   id="svg8"
   xmlns:xlink="http://www.w3.org/1999/xlink"
   xmlns="http://www.w3.org/2000/svg"
   xmlns:svg="http://www.w3.org/2000/svg">
  <defs
     id="defs8">
    <filter
       style="color-interpolation-filters:sRGB"
       id="filter10"
       x="-0.07737548"
       y="-0.07737548"
       width="1.154751"
       height="1.154751">
      <feFlood
         result="flood"
         in="SourceGraphic"
         flood-opacity="0.498039"
         flood-color="rgb(0,0,0)"
         id="feFlood9" />
      <feGaussianBlur
         result="blur"
         in="SourceGraphic"
         stdDeviation="1.000000"
         id="feGaussianBlur9" />
      <feOffset
         result="offset"
         in="blur"
         dx="0.000000"
         dy="0.000000"
         id="feOffset9" />
      <feComposite
         result="comp1"
         operator="in"
         in="flood"
         in2="offset"
         id="feComposite9" />
      <feComposite
         result="comp2"
         operator="over"
         in="SourceGraphic"
         in2="comp1"
         id="feComposite10" />
    </filter>
  </defs>
  <path
     xlink:href="#path1"
     id="path9"
     d="m 19.998047,4.4902344 c -5.005007,0 -8.977178,1.7295807 -11.6093751,4.5878906 -2.6321976,2.85831 -3.8984375,6.75074 -3.8984375,10.919922 0,4.169186 1.2663005,8.063081 3.8984375,10.921875 2.6321371,2.858793 6.6042631,4.587891 11.6093751,4.58789 5.005079,0 8.978692,-1.729163 11.611328,-4.58789 2.632636,-2.858727 3.898437,-6.752557 3.898437,-10.921875 0,-4.169314 -1.26574,-8.063632 -3.898437,-10.9218751 C 28.976678,6.2179287 25.003022,4.4902344 19.998047,4.4902344 Z"
     style="fill:#ffffff;fill-opacity:1;filter:url(#filter10)" />
  <path
     d="m 19.9989,33.9978 c 9.3344,0 13.9989,-6.2675 13.9989,-13.9989 C 33.9978,12.26751 29.3333,6 19.9989,6 10.66443,6 6,12.26751 6,19.9989 c 0,7.7314 4.66443,13.9989 13.9989,13.9989 z"
     fill="#ffb02e"
     id="path1" />
  <path
     d="m 17,28 c 0,-1.6569 1.3431,-3 3,-3 1.6569,0 3,1.3431 3,3 0,1.6569 -1.3431,3 -3,3 -1.6569,0 -3,-1.3431 -3,-3 z"
     fill="#bb1d80"
     id="path2" />
  <path
     d="M 14.5,23 C 16.9853,23 19,20.9853 19,18.5 19,16.0147 16.9853,14 14.5,14 12.01472,14 10,16.0147 10,18.5 c 0,2.4853 2.01472,4.5 4.5,4.5 z"
     fill="#ffffff"
     id="path3" />
  <path
     d="M 25.5,23 C 27.9853,23 30,20.9853 30,18.5 30,16.0147 27.9853,14 25.5,14 23.0147,14 21,16.0147 21,18.5 c 0,2.4853 2.0147,4.5 4.5,4.5 z"
     fill="#ffffff"
     id="path4" />
  <path
     d="m 12.06915,11.98761 c -0.5929,0.56288 -0.95146,1.24013 -1.09492,1.6705 -0.08732,0.26198 -0.37048,0.40359 -0.63245,0.31623 -0.26197,-0.08732 -0.40355,-0.37048 -0.31623,-0.63245 0.18987,-0.56963 0.63132,-1.39238 1.35509,-2.0795 C 12.1129,10.5672 13.1478,10 14.4999,10 c 0.2761,0 0.5,0.22386 0.5,0.5 0,0.27614 -0.2239,0.5 -0.5,0.5 -1.04791,0 -1.84635,0.4328 -2.43075,0.98761 z"
     fill="#402a32"
     id="path5" />
  <path
     d="m 15.9999,21 c 1.1046,0 2,-0.8954 2,-2 0,-1.1046 -0.8954,-2 -2,-2 -1.1046,0 -2.00001,0.8954 -2.00001,2 0,1.1046 0.89541,2 2.00001,2 z"
     fill="#402a32"
     id="path6" />
  <path
     d="m 23.9999,21 c 1.1046,0 2,-0.8954 2,-2 0,-1.1046 -0.8954,-2 -2,-2 -1.1046,0 -2,0.8954 -2,2 0,1.1046 0.8954,2 2,2 z"
     fill="#402a32"
     id="path7" />
  <path
     d="M 29.0255,13.65811 C 28.8821,13.22774 28.5235,12.55049 27.9306,11.98761 27.3462,11.4328 26.5478,11 25.4999,11 c -0.2762,0 -0.5,-0.22386 -0.5,-0.5 0,-0.27614 0.2238,-0.5 0.5,-0.5 1.3521,0 2.387,0.5672 3.1192,1.26239 0.7238,0.68712 1.1653,1.50987 1.3551,2.0795 0.0874,0.26197 -0.0542,0.54513 -0.3162,0.63245 -0.262,0.08736 -0.5451,-0.05425 -0.6325,-0.31623 z"
     fill="#402a32"
     id="path8" />
</svg>
