<?xml version="1.0" encoding="UTF-8" standalone="no"?>
<svg
   width="40"
   height="40"
   viewBox="0 0 40 40"
   fill="none"
   version="1.1"
   id="svg3"
   xmlns:xlink="http://www.w3.org/1999/xlink"
   xmlns="http://www.w3.org/2000/svg"
   xmlns:svg="http://www.w3.org/2000/svg">
  <defs
     id="defs3">
    <filter
       style="color-interpolation-filters:sRGB"
       id="filter7"
       x="-0.07919336"
       y="-0.079192393"
       width="1.1583867"
       height="1.1583848">
      <feFlood
         result="flood"
         in="SourceGraphic"
         flood-opacity="0.498039"
         flood-color="rgb(0,0,0)"
         id="feFlood6" />
      <feGaussianBlur
         result="blur"
         in="SourceGraphic"
         stdDeviation="1.000000"
         id="feGaussianBlur6" />
      <feOffset
         result="offset"
         in="blur"
         dx="0.000000"
         dy="0.000000"
         id="feOffset6" />
      <feComposite
         result="comp1"
         operator="in"
         in="flood"
         in2="offset"
         id="feComposite6" />
      <feComposite
         result="comp2"
         operator="over"
         in="SourceGraphic"
         in2="comp1"
         id="feComposite7" />
    </filter>
  </defs>
  <path
     style="fill:#ffffff;fill-opacity:1;filter:url(#filter7)"
     xlink:href="#path4"
     id="path6"
     d="m 23,4.8417969 c -1.17838,0 -2.158203,0.9798353 -2.158203,2.1582031 0,1.1783678 0.979823,2.1582031 2.158203,2.1582031 1.17838,0 2.158203,-0.9798353 2.158203,-2.1582031 C 25.158203,5.8216322 24.17838,4.8417969 23,4.8417969 Z m 7.5,0 c -0.555367,0 -1.170614,0.3075624 -1.464844,0.8964843 a 1.1586249,1.1586249 0 0 0 -0.02344,0.050781 l -0.953125,2.1679687 a 1.1586249,1.1586249 0 0 0 -0.0059,0.013672 c 0.0017,-0.00404 -0.0015,0.00903 -0.03906,0.025391 a 1.1586249,1.1586249 0 0 0 -0.002,0.00195 l -1.205078,0.5273437 a 1.1586249,1.1586249 0 0 0 -0.01758,0.00781 C 26.210434,8.798771 25.841797,9.4126978 25.841797,10 c 0,0.587302 0.368622,1.201241 0.947265,1.466797 a 1.1586249,1.1586249 0 0 0 0.01758,0.0078 l 1.205078,0.527344 a 1.1586249,1.1586249 0 0 0 0.002,0.002 c 0.02855,0.01244 0.03238,0.01251 0.05273,0.05664 l 0.945313,2.150391 a 1.1586249,1.1586249 0 0 0 0.02344,0.05078 c 0.586348,1.173558 2.34334,1.173558 2.929688,0 a 1.1586249,1.1586249 0 0 0 0.02344,-0.05078 l 0.953125,-2.167969 a 1.1586249,1.1586249 0 0 0 0.0059,-0.01367 c -0.0017,0.004 0.0015,-0.009 0.03906,-0.02539 a 1.1586249,1.1586249 0 0 0 0.002,-0.002 l 1.205078,-0.527344 a 1.1586249,1.1586249 0 0 0 0.01758,-0.0078 C 34.789581,11.201241 35.158203,10.587302 35.158203,10 c 0,-0.5873022 -0.368637,-1.201229 -0.947266,-1.4667969 a 1.1586249,1.1586249 0 0 0 -0.02148,-0.00977 L 32.976562,7.9960937 c -0.02865,-0.012486 -0.0327,-0.013174 -0.05273,-0.056641 L 31.990234,5.7929687 a 1.1586249,1.1586249 0 0 0 -0.02539,-0.054687 C 31.670615,5.1493581 31.055365,4.8417969 30.5,4.8417969 Z m -11.5,1.5 c -0.494728,0 -1.04654,0.2603931 -1.328125,0.7871093 a 1.1586249,1.1586249 0 0 0 -0.0332,0.068359 l -0.625,1.3769532 L 16.25,8.8925781 a 1.1586249,1.1586249 0 0 0 -0.0293,0.013672 c -0.51393,0.2308037 -0.878907,0.7902194 -0.878906,1.34375 0,0.553531 0.364978,1.112945 0.878906,1.34375 a 1.1586249,1.1586249 0 0 0 0.0293,0.01367 l 0.763672,0.318359 0.625,1.376953 a 1.1586249,1.1586249 0 0 0 0.0332,0.06836 c 0.565492,1.057768 2.090758,1.057768 2.65625,0 a 1.1586249,1.1586249 0 0 0 0.0332,-0.06641 L 20.990234,11.923828 21.75,11.607422 a 1.1586249,1.1586249 0 0 0 0.0293,-0.01367 c 0.513928,-0.230804 0.878906,-0.790219 0.878906,-1.34375 0,-0.5535315 -0.364977,-1.1129465 -0.878906,-1.34375 A 1.1586249,1.1586249 0 0 0 21.75,8.8925781 L 20.990234,8.5761719 20.361328,7.1953125 a 1.1586249,1.1586249 0 0 0 -0.0332,-0.066406 C 20.04654,6.6021913 19.494731,6.3417969 19,6.3417969 Z m 5.78125,6.5605471 c -0.77279,-0.05663 -1.516675,0.196351 -2.099609,0.779297 l -0.5,0.5 -1,1 -13.9960941,13.99414 -1.6582032,1.623047 a 1.1586249,1.1586249 0 0 0 -0.00977,0.0098 c -0.8865214,0.889083 -0.8866684,2.372687 0,3.261718 a 1.1586249,1.1586249 0 0 0 0.00195,0 l 0.3984375,0.400391 c 0.00109,0.0011 0.00282,8.4e-4 0.00391,0.002 0.8870579,0.905838 2.3929934,0.90145 3.2734375,-0.02148 l 1.6250005,-1.626953 a 1.1586249,1.1586249 0 0 0 0.216796,-1.335938 l 0.371094,0.742188 13.410156,-13.410157 1.673828,-1.667968 a 1.1586249,1.1586249 0 0 0 0.0098,-0.01172 c 0.914896,-0.936793 0.923548,-2.365228 -0.0059,-3.298828 l -0.002,-0.002 -0.328125,-0.330078 A 1.1586249,1.1586249 0 0 0 26.154297,13.5 C 25.751422,13.104846 25.24294,12.936174 24.78125,12.902344 Z M 16,14.841797 c -1.178366,0 -2.158203,0.979837 -2.158203,2.158203 0,1.178366 0.979837,2.158203 2.158203,2.158203 1.178366,0 2.158203,-0.979837 2.158203,-2.158203 0,-1.178366 -0.979837,-2.158203 -2.158203,-2.158203 z m 17,0 c -1.178366,0 -2.158203,0.979837 -2.158203,2.158203 0,1.178366 0.979837,2.158203 2.158203,2.158203 1.178366,0 2.158203,-0.979837 2.158203,-2.158203 0,-1.178366 -0.979837,-2.158203 -2.158203,-2.158203 z m -4.503906,2 c -0.53184,0 -1.11487,0.338476 -1.357422,0.876953 a 1.1586249,1.1586249 0 0 0 -0.0098,0.02539 l -0.65039,1.541015 -0.767579,0.351563 a 1.1586249,1.1586249 0 0 0 -0.04297,0.01953 c -1.046538,0.53203 -1.051952,2.198549 0.03516,2.705078 a 1.1586249,1.1586249 0 0 0 0.0078,0.002 l 0.767579,0.351563 0.65039,1.541015 a 1.1586249,1.1586249 0 0 0 0.02734,0.06055 c 0.254922,0.518776 0.811103,0.841797 1.347656,0.841797 0.536553,0 1.115267,-0.339364 1.357422,-0.876953 a 1.1586249,1.1586249 0 0 0 0.0098,-0.02539 l 0.65039,-1.541015 0.767578,-0.351563 a 1.1586249,1.1586249 0 0 0 0.04297,-0.01953 c 1.046538,-0.53203 1.051952,-2.198549 -0.03516,-2.705078 a 1.1586249,1.1586249 0 0 0 -0.0078,-0.002 l -0.767578,-0.351563 -0.65039,-1.541015 a 1.1586249,1.1586249 0 0 0 -0.02734,-0.06055 c -0.254951,-0.518833 -0.815795,-0.841797 -1.347656,-0.841797 z m -5.496094,6 c -1.178366,0 -2.158203,0.979837 -2.158203,2.158203 0,1.178366 0.979837,2.158203 2.158203,2.158203 1.178366,0 2.158203,-0.979837 2.158203,-2.158203 0,-1.178366 -0.979837,-2.158203 -2.158203,-2.158203 z" />
  <path
     d="m 9,33.000002 -2,-2 16,-16 2,2 z"
     fill="#433b6b"
     id="path1" />
  <path
     d="m 22,16.000002 2,2 1.6741,-1.6673 c 0.4345,-0.4449 0.4345,-1.2392 0,-1.6747 l -0.3305,-0.3314 C 24.8996,13.891112 24,13.999992 23.5,14.500002 Z m -15.6625,17.2516 0.41,0.4112 c 0.44,0.4512 1.17,0.4512 1.61,-0.01 L 10,32.005603 8,30.000002 l -1.6625,1.6271 c -0.45,0.4513 -0.45,1.1733 0,1.6245 z"
     fill="#f4f4f4"
     id="path2" />
  <path
     d="m 31.8709,8.4234325 c 0.1305,0.2831 0.3515,0.50762 0.6427,0.63453 l 1.2152,0.52715 c 0.3616,0.16596 0.3616,0.6638195 0,0.8297695 l -1.2051,0.52715 c -0.2913,0.12691 -0.5223,0.35144 -0.6428,0.63454 l -0.9541,2.16718 c -0.1707,0.34165 -0.6829,0.34165 -0.8536,0 l -0.9541,-2.16718 c -0.1306,-0.283099 -0.3515,-0.50763 -0.6428,-0.634539 l -1.2051,-0.527151 c -0.3616,-0.16595 -0.3616,-0.6638095 0,-0.8297695 l 1.2051,-0.52715 c 0.2913,-0.12691 0.5223,-0.35143 0.6428,-0.63453 l 0.9541,-2.16718 c 0.1707,-0.34167 0.6829,-0.34167 0.8536,0 z m -11.4297,1.17923 c -0.2081,-0.08761 -0.3642,-0.24337 -0.4578,-0.43806 l -0.6764,-1.48938 c -0.1249,-0.23363 -0.4891,-0.23363 -0.614,0 l -0.6763,1.48938 c -0.0833,0.19469 -0.2498,0.35045 -0.4579,0.43806 l -0.8637,0.36017 c -0.2601,0.1168095 -0.2601,0.4575305 0,0.5743405 l 0.8637,0.36018 c 0.2081,0.08761 0.3642,0.243359 0.4579,0.438049 l 0.6763,1.489381 c 0.1249,0.233629 0.4891,0.233629 0.614,0 l 0.6764,-1.489381 c 0.0832,-0.19469 0.2497,-0.35044 0.4578,-0.438049 l 0.8637,-0.36018 c 0.2601,-0.11681 0.2601,-0.457531 0,-0.5743405 z m 9.5095,10.6949405 c -0.2034,-0.098 -0.364,-0.2613 -0.4603,-0.479101 l -0.6853,-1.6225 c -0.1284,-0.2613 -0.4925,-0.2613 -0.6102,0 l -0.6853,1.6225 c -0.0856,0.2069 -0.2569,0.3811 -0.4603,0.4791 l -0.8566,0.3921 c -0.2569,0.1306 -0.2569,0.5009 0,0.6206 l 0.8566,0.3921 c 0.2034,0.098 0.364,0.2613 0.4603,0.4791 l 0.6853,1.6225 c 0.1284,0.2613 0.4925,0.2613 0.6102,0 l 0.6853,-1.6225 c 0.0856,-0.2069 0.2569,-0.3811 0.4603,-0.4791 l 0.8566,-0.3921 c 0.2569,-0.1306 0.2569,-0.5009 0,-0.6206 z M 16,18.000002 c 0.5523,0 1,-0.4477 1,-1 0,-0.5523 -0.4477,-1 -1,-1 -0.5523,0 -1,0.4477 -1,1 0,0.5523 0.4477,1 1,1 z m 18,-1 c 0,0.5523 -0.4477,1 -1,1 -0.5523,0 -1,-0.4477 -1,-1 0,-0.5523 0.4477,-1 1,-1 0.5523,0 1,0.4477 1,1 z M 23,8.0000025 c 0.5523,0 1,-0.44771 1,-1 0,-0.55229 -0.4477,-1 -1,-1 -0.5523,0 -1,0.44771 -1,1 0,0.55229 0.4477,1 1,1 z m 1,16.9999995 c 0,0.5523 -0.4477,1 -1,1 -0.5523,0 -1,-0.4477 -1,-1 0,-0.5523 0.4477,-1 1,-1 0.5523,0 1,0.4477 1,1 z"
     fill="#f9c23c"
     id="path3" />
</svg>
