<?xml version="1.0" encoding="UTF-8" standalone="no"?>
<svg
   width="40"
   height="40"
   viewBox="0 0 40 40"
   fill="none"
   version="1.1"
   id="svg10"
   xmlns:xlink="http://www.w3.org/1999/xlink"
   xmlns="http://www.w3.org/2000/svg"
   xmlns:svg="http://www.w3.org/2000/svg">
  <defs
     id="defs10">
    <filter
       style="color-interpolation-filters:sRGB"
       id="filter21"
       x="-0.08566356"
       y="-0.077458396"
       width="1.1713271"
       height="1.1549168">
      <feFlood
         result="flood"
         in="SourceGraphic"
         flood-opacity="0.498039"
         flood-color="rgb(0,0,0)"
         id="feFlood20" />
      <feGaussianBlur
         result="blur"
         in="SourceGraphic"
         stdDeviation="1.000000"
         id="feGaussianBlur20" />
      <feOffset
         result="offset"
         in="blur"
         dx="0.000000"
         dy="0.000000"
         id="feOffset20" />
      <feComposite
         result="comp1"
         operator="in"
         in="flood"
         in2="offset"
         id="feComposite20" />
      <feComposite
         result="comp2"
         operator="over"
         in="SourceGraphic"
         in2="comp1"
         id="feComposite21" />
    </filter>
  </defs>
  <path
     xlink:href="#path11"
     id="path20"
     d="m 9.5,4.5078125 a 1.4916746,1.4916746 0 0 0 -0.017578,0.00977 h -0.125 c -2.5199961,0 -4.1829241,2.8520634 -2.9472657,5.0449219 a 1.4916746,1.4916746 0 0 0 0.00195,0.00195 c 1.3358985,2.3580639 3.2193583,4.3391609 5.4316406,5.8906249 -2.0716449,2.133676 -3.3847656,5.028796 -3.3847656,8.253906 0,6.46931 5.1599326,11.783203 11.5312496,11.783203 6.371232,0 11.533203,-5.31353 11.533203,-11.783203 0,-3.218569 -1.308975,-6.106112 -3.373046,-8.238281 2.221619,-1.550979 4.10731,-3.534275 5.435546,-5.8945311 1.247479,-2.2004119 -0.420235,-5.0585938 -2.9375,-5.0585938 h -0.349609 -4.191406 -2.039063 c -1.188025,0 -2.303865,0.6404299 -2.90625,1.6660156 -4.8e-4,8.172e-4 -0.0015,0.00114 -0.002,0.00195 L 20.001953,8.0898438 18.845703,6.1914062 C 18.245337,5.1362192 17.116707,4.5078125 15.927734,4.5078125 h -2.039062 z m 2.714844,11.2695315 c 0.012,0.0093 0.027,0.01228 0.03906,0.02148 0.02214,0.01457 0.03834,0.03631 0.06055,0.05078 z m 15.568359,0.0098 -0.101562,0.07422 c 0.02347,-0.01523 0.04106,-0.0374 0.06445,-0.05273 0.01158,-0.0088 0.02558,-0.01254 0.03711,-0.02149 z"
     style="fill:#ffffff;fill-opacity:1;filter:url(#filter21)" />
  <path
     d="m 21.32823,15.51 c -0.2,-0.02 -0.4,-0.04 -0.6,-0.08 -1.24,-0.22 -2.4,-0.78 -3.34,-1.63999 -2.74,-2.11 -6.01002,-4.77 -7.6800201,-7.78 h -0.35 c -1.45,0 -2.36,1.56001 -1.65,2.82001 1.32,2.33 3.1800001,4.30999 5.4200001,5.76998 0.76,0.59 1.70002,0.91 2.66002,0.91 z"
     fill="#0074ba"
     id="path1" />
  <path
     d="m 20.73753,15.2945 -0.5793,-4.07451 -2.61,-4.29 C 17.21823,6.34999 16.59813,6 15.92813,6 h -2.1778 l 6.2152,9.4755 c -0.0958,0.0131 -0.1916,0.0249 -0.2873,0.0345 v 0.01 h 4.53 c 0.97,0 1.9,-0.32 2.66,-0.91 2.25,-1.45998 4.11,-3.43999 5.42,-5.76999 0.72,-1.27 -0.2,-2.83 -1.64,-2.83 h -0.35 c -2.7101,2.83 -5.94,5.67 -8.68,7.78 -0.4176,0.38199 -0.4839,0.70489 -0.5374,0.96499 -0.0471,0.2294 -0.0842,0.41 -0.3433,0.5395 z"
     fill="#f8312f"
     id="path2" />
  <path
     d="m 20.56213,14.0608 0.1806,1.27 c 1.0642,-0.2666 2.0539,-0.7891 2.8755,-1.54079 2.74,-2.11 5.01,-4.77 6.68,-7.78 h -4.57 z"
     fill="#d3d3d3"
     id="path3" />
  <path
     d="m 20.37433,15.51 h -0.0463 c 0,0 1e-4,0 0,0 l 0.2002,0.24 z"
     fill="#d3d3d3"
     id="path4" />
  <path
     d="m 19.96813,15.4788 c -0.0966,0.0119 -0.1933,0.0215 -0.2899,0.0312 l -0.2,0.24 0.2099,-0.3272 c -1.2249,-0.2249 -2.3701,-0.7821 -3.2999,-1.63279 C 13.64818,11.68001 11.17033,9.01 9.5003299,6 H 13.88818 Z"
     fill="#d3d3d3"
     id="path5" />
  <path
     d="m 26.10813,6.01001 h -2.04 c -0.67,0 -1.28,0.35001 -1.62,0.93001 l -5.22,8.57998 h 2.78 z"
     fill="#00a6ed"
     id="path6" />
  <path
     d="m 20.60823,19.67 0.83,1.72 c 0.1,0.2 0.29,0.35 0.51,0.38 l 1.85,0.28 c 0.55,0.08 0.78,0.78 0.37,1.18 l -1.28,1.28 c -0.19,0.19 -0.25,0.47 -0.17,0.73 l 0.59,1.71 c 0.2,0.57 -0.36,1.11 -0.91,0.87 l -2.14,-0.96 c -0.17,-0.08 -0.37,-0.08 -0.54,0 l -2.14,0.96 c -0.54,0.24 -1.11,-0.3 -0.91,-0.87 l 0.59,-1.71 c 0.09,-0.26 0.02,-0.54 -0.17,-0.73 l -1.28,-1.28 c -0.4,-0.4 -0.18,-1.1 0.37,-1.18 l 1.85,-0.28 c 0.22,-0.03 0.41,-0.17 0.51,-0.38 l 0.83,-1.72 c 0.27,-0.52 0.99,-0.52 1.24,0 z"
     fill="#d3883e"
     id="path7" />
  <path
     d="m 19.99043,33.9999 c 5.5449,0 10.04,-4.607 10.04,-10.29 0,-5.683 -4.4951,-10.28998 -10.04,-10.28998 -5.545,0 -10.0400301,4.60698 -10.0400301,10.28998 0,5.683 4.4950301,10.29 10.0400301,10.29 z"
     fill="#ffb02e"
     id="path8" />
  <path
     d="m 20.00043,32.7599 c -2.36,0 -4.58,-0.94 -6.23999,-2.65 -1.67,-1.71 -2.59001,-3.98 -2.59001,-6.4 0,-2.42 0.92001,-4.69 2.59001,-6.4 3.43999,-3.53005 9.03999,-3.53005 12.48999,0 3.44,3.53 3.44,9.27 0,12.8 -1.68,1.71 -3.9,2.65 -6.25,2.65 z m -0.01,-16.87 c -1.95,0 -3.91,0.76 -5.39,2.29 -1.43999,1.48 -2.23,3.44 -2.23,5.53 0,2.09 0.79001,4.05 2.23,5.53 1.44,1.48 3.36,2.29 5.39,2.29 2.04,0 3.95,-0.81 5.39,-2.29 2.97,-3.05 2.97,-8.01 0,-11.06 -1.48,-1.53 -3.43,-2.29 -5.39,-2.29 z"
     fill="#fcd53f"
     id="path9" />
  <path
     d="m 20.60043,19.66 0.83,1.72 c 0.1,0.2 0.29,0.35 0.51,0.38 l 1.85,0.28 c 0.55,0.08 0.78,0.78 0.37,1.18 l -1.28,1.28 c -0.19,0.19 -0.25,0.47 -0.17,0.73 l 0.59,1.71 c 0.2,0.57 -0.36,1.11 -0.91,0.87 l -2.14,-0.96 c -0.17,-0.08 -0.37,-0.08 -0.54,0 l -2.14,0.96 c -0.54,0.24 -1.11,-0.3 -0.91,-0.87 l 0.59,-1.71 c 0.09,-0.26 0.02,-0.54 -0.17,-0.73 l -1.28,-1.28 c -0.4,-0.4 -0.18,-1.1 0.37,-1.18 l 1.85,-0.28 c 0.22,-0.03 0.41,-0.17 0.51,-0.38 l 0.83,-1.72 c 0.27,-0.52 0.99,-0.52 1.24,0 z"
     fill="#6d4534"
     id="path10" />
</svg>
