<?xml version="1.0" encoding="UTF-8" standalone="no"?>
<svg
   width="40"
   height="40"
   viewBox="0 0 40 40"
   fill="none"
   version="1.1"
   id="svg10"
   xmlns:xlink="http://www.w3.org/1999/xlink"
   xmlns="http://www.w3.org/2000/svg"
   xmlns:svg="http://www.w3.org/2000/svg">
  <defs
     id="defs10">
    <filter
       style="color-interpolation-filters:sRGB"
       id="filter21"
       x="-0.077752468"
       y="-0.089334561"
       width="1.1555049"
       height="1.1786691">
      <feFlood
         result="flood"
         in="SourceGraphic"
         flood-opacity="0.498039"
         flood-color="rgb(0,0,0)"
         id="feFlood20" />
      <feGaussianBlur
         result="blur"
         in="SourceGraphic"
         stdDeviation="1.000000"
         id="feGaussianBlur20" />
      <feOffset
         result="offset"
         in="blur"
         dx="0.000000"
         dy="0.000000"
         id="feOffset20" />
      <feComposite
         result="comp1"
         operator="in"
         in="flood"
         in2="offset"
         id="feComposite20" />
      <feComposite
         result="comp2"
         operator="over"
         in="SourceGraphic"
         in2="comp1"
         id="feComposite21" />
    </filter>
  </defs>
  <path
     xlink:href="#path11"
     id="path20"
     d="m 12.5,6.5664062 c -4.3650215,0 -7.9335938,3.5685728 -7.9335938,7.9335938 0,3.354752 2.1487725,6.138137 5.1113282,7.292969 -0.00188,0.06964 -0.017578,0.137181 -0.017578,0.207031 0,1.737549 0.4990397,3.22071 1.1796877,4.566406 H 10.5 c -1.0514695,0 -1.9335937,0.882191 -1.9335937,1.933594 0,0.927052 0.7281912,1.623488 1.6113277,1.798828 -0.4747596,0.533281 -0.7537047,1.222115 -0.474609,1.919922 0.390599,0.976498 1.536608,1.469884 2.515625,1.078125 l 3.921875,-1.570313 c 0.760014,0.380926 1.525888,0.755876 2.28125,0.978516 1.019144,0.300454 2.129202,0.320215 3.183594,-0.01758 0.706527,-0.226275 1.433931,-0.612618 2.15625,-0.998047 l 4.019531,1.607422 c 0.979097,0.391792 2.125075,-0.101189 2.515625,-1.078125 0.279381,-0.698181 5.94e-4,-1.386598 -0.474609,-1.919922 0.883173,-0.175316 1.611328,-0.871654 1.611328,-1.798828 0,-1.051542 -0.882052,-1.933594 -1.933594,-1.933594 H 29.082031 C 29.838472,25.206616 30.402344,23.71776 30.402344,22 c 0,-0.07373 -0.02253,-0.15576 -0.02539,-0.230469 2.933391,-1.168621 5.056641,-3.935571 5.056641,-7.269531 0,-4.365008 -3.568534,-7.9335938 -7.933594,-7.9335938 -3.615964,0 -6.553461,2.4973354 -7.5,5.8222658 C 19.053721,9.0637456 16.115836,6.5664062 12.5,6.5664062 Z"
     style="fill:#ffffff;fill-opacity:1;filter:url(#filter21)" />
  <path
     d="M 18.9868,14.0829 C 18.7718,10.68741 15.9497,8 12.5,8 8.91015,8 6,10.91015 6,14.5 c 0,3.1421 2.22946,5.7635 5.19278,6.3685 -0.06537,0.375 -0.09903,0.7534 -0.09903,1.1315 0,5.2261 4.16835,8.2796 7.73515,9.3309 0.7649,0.2255 1.5792,0.234 2.3386,-0.0093 3.3738,-1.0805 7.8013,-4.4984 7.8013,-9.3216 0,-0.3396 -0.0426,-0.7247 -0.1307,-1.1379 C 31.786,20.2452 34,17.6312 34,14.5 34,10.91015 31.0899,8 27.5,8 24.0522,8 21.2313,10.68447 21.0135,14.0773 20.687,14.047 20.3492,14.0312 20,14.0312 c -0.3444,0 -0.6824,0.0177 -1.0132,0.0517 z"
     fill="#cdc4d6"
     id="path1" />
  <path
     d="m 16,23 c -0.5523,0 -1,0.4477 -1,1 v 1 c 0,0.5523 0.4477,1 1,1 0.5523,0 1,-0.4477 1,-1 v -1 c 0,-0.5523 -0.4477,-1 -1,-1 z"
     fill="#1c1c1c"
     id="path2" />
  <path
     d="m 24,23 c -0.5523,0 -1,0.4477 -1,1 v 1 c 0,0.5523 0.4477,1 1,1 0.5523,0 1,-0.4477 1,-1 v -1 c 0,-0.5523 -0.4477,-1 -1,-1 z"
     fill="#1c1c1c"
     id="path3" />
  <path
     d="m 16.9765,14.5126 c -2.7777,0.9217 -4.81105,3.0583 -5.5636,5.4533 C 8.92813,19.6753 7,17.5628 7,15 c 0,-2.7614 2.23858,-5 5,-5 2.597,0 4.7315,1.97991 4.9765,4.5126 z"
     fill="#ff8687"
     id="path4" />
  <path
     d="m 33,15 c 0,2.5626 -1.9279,4.675 -4.4123,4.9658 C 27.8732,17.8891 26.1185,15.4639 23.0267,14.48 23.2868,11.96291 25.4142,10 28,10 c 2.7614,0 5,2.2386 5,5 z"
     fill="#ff8687"
     id="path5" />
  <path
     d="m 20.0312,29.9688 c 1.1954,0 1.9376,-1.7344 1.9376,-2.1094 0,-0.375 -0.325,-0.8594 -1.9376,-0.8594 -1.8281,0 -2.0156,0.4219 -2.0156,0.8594 0,0.3203 0.8203,2.1094 2.0156,2.1094 z"
     fill="#ff8687"
     id="path6" />
  <path
     d="M 16,28.5 C 16,28.2239 15.7761,28 15.5,28 h -5 c -0.27614,0 -0.5,0.2239 -0.5,0.5 0,0.2761 0.22386,0.5 0.5,0.5 h 5 c 0.2761,0 0.5,-0.2239 0.5,-0.5 z"
     fill="#b4acbc"
     id="path7" />
  <path
     d="m 24.5,28 c -0.2761,0 -0.5,0.2239 -0.5,0.5 0,0.2761 0.2239,0.5 0.5,0.5 h 5 C 29.7761,29 30,28.7761 30,28.5 30,28.2239 29.7761,28 29.5,28 Z"
     fill="#b4acbc"
     id="path8" />
  <path
     d="m 23.6857,29.0358 c -0.2564,-0.1026 -0.5474,0.0221 -0.6499,0.2785 -0.1026,0.2564 0.0221,0.5474 0.2785,0.6499 l 5,2 c 0.2564,0.1026 0.5474,-0.0221 0.6499,-0.2785 0.1026,-0.2564 -0.0221,-0.5474 -0.2785,-0.6499 z"
     fill="#b4acbc"
     id="path9" />
  <path
     d="m 16.3143,29.0358 c 0.2564,-0.1026 0.5474,0.0221 0.6499,0.2785 0.1026,0.2564 -0.0221,0.5474 -0.2785,0.6499 l -5,2 c -0.2564,0.1026 -0.54738,-0.0221 -0.64994,-0.2785 -0.10255,-0.2564 0.02215,-0.5474 0.27854,-0.6499 z"
     fill="#b4acbc"
     id="path10" />
</svg>
