<?xml version="1.0" encoding="UTF-8" standalone="no"?>
<svg
   width="40"
   height="40"
   viewBox="0 0 40 40"
   fill="none"
   version="1.1"
   id="svg8"
   xmlns:xlink="http://www.w3.org/1999/xlink"
   xmlns="http://www.w3.org/2000/svg"
   xmlns:svg="http://www.w3.org/2000/svg">
  <defs
     id="defs8">
    <filter
       style="color-interpolation-filters:sRGB"
       id="filter17"
       x="-0.072231366"
       y="-0.076862451"
       width="1.1444627"
       height="1.1537249">
      <feFlood
         result="flood"
         in="SourceGraphic"
         flood-opacity="0.498039"
         flood-color="rgb(0,0,0)"
         id="feFlood16" />
      <feGaussianBlur
         result="blur"
         in="SourceGraphic"
         stdDeviation="1.000000"
         id="feGaussianBlur16" />
      <feOffset
         result="offset"
         in="blur"
         dx="0.000000"
         dy="0.000000"
         id="feOffset16" />
      <feComposite
         result="comp1"
         operator="in"
         in="flood"
         in2="offset"
         id="feComposite16" />
      <feComposite
         result="comp2"
         operator="over"
         in="SourceGraphic"
         in2="comp1"
         id="feComposite17" />
    </filter>
  </defs>
  <path
     xlink:href="#path9"
     id="path16"
     d="m 19.998047,4.3867187 c -7.815042,0 -12.9071748,4.418058 -14.7246095,10.3046873 C 4.2349204,15.038255 3.3867188,15.85719 3.3867188,17 c 0,0.821522 0.4483198,1.477135 1.0566406,1.958984 -0.018268,0.346789 -0.056641,0.686188 -0.056641,1.039063 0,4.189951 1.2731532,8.111138 3.9257813,10.992187 2.652628,2.881049 6.657317,4.621094 11.685547,4.621094 5.028197,0 9.034372,-1.740116 11.6875,-4.621094 2.653127,-2.880977 3.925781,-6.802095 3.925781,-10.992187 0,-0.35089 -0.03858,-0.68833 -0.05664,-1.033203 0.609306,-0.468201 1.058594,-1.116048 1.058594,-1.964844 0,-1.178647 -0.863686,-1.938117 -1.880859,-2.289062 C 32.920459,8.8137451 27.822046,4.3867187 19.998047,4.3867187 Z"
     style="fill:#ffffff;fill-opacity:1;filter:url(#filter17)" />
  <path
     d="m 19.9989,33.9978 c 9.3344,0 13.9989,-6.2675 13.9989,-13.9989 C 33.9978,12.26751 29.3333,6 19.9989,6 10.66443,6 6,12.26751 6,19.9989 c 0,7.7314 4.66443,13.9989 13.9989,13.9989 z"
     fill="#ffb02e"
     id="path1" />
  <path
     d="m 27,24 c 0,3.87 -3.13,7 -7,7 -3.87,0 -7,-3.13 -7,-7 h 4.0182 l 2.9792,1 2.9792,-1 z"
     fill="#bb1d80"
     id="path2" />
  <path
     d="m 17,24 h 6 v 0.5 c 0,0.5523 -0.4477,1 -1,1 h -4 c -0.5523,0 -1,-0.4477 -1,-1 z"
     fill="#ffffff"
     id="path3" />
  <path
     d="m 18.5,17.5 c 0,2.7614 -2.2386,5 -5,5 -2.76142,0 -5,-2.2386 -5,-5 0,-2.7614 2.23858,-5 5,-5 2.7614,0 5,2.2386 5,5 z"
     fill="#ffffff"
     id="path4" />
  <path
     d="m 31.5,17.5 c 0,2.7614 -2.2386,5 -5,5 -2.7614,0 -5,-2.2386 -5,-5 0,-2.7614 2.2386,-5 5,-5 2.7614,0 5,2.2386 5,5 z"
     fill="#ffffff"
     id="path5" />
  <path
     d="M 12,17.5 C 12,16.119 13.11895,15 14.5,15 15.881,15 17,16.119 17,17.5 17,18.881 15.881,20 14.5,20 13.11895,20 12,18.881 12,17.5 Z"
     fill="#402a32"
     id="path6" />
  <path
     d="M 23,17.5 C 23,16.119 24.119,15 25.5,15 26.8811,15 28,16.119 28,17.5 28,18.881 26.8811,20 25.5,20 24.119,20 23,18.881 23,17.5 Z"
     fill="#402a32"
     id="path7" />
  <path
     d="m 13.5,12 c 2.5176,0 4.64,1.69149 5.293,4 h 2.414 c 0.653,-2.30851 2.7754,-4 5.293,-4 2.5176,0 4.64,1.69149 5.293,4 h 2.12 c 0.5979,0 1.087,0.45 1.087,1 0,0.55 -0.4891,1 -1.087,1 H 31.9776 C 31.725,20.8033 29.369,23 26.5,23 23.631,23 21.275,20.8033 21.0224,18 H 18.9776 C 18.725,20.8032 16.369,23 13.5,23 10.63098,23 8.27504,20.8032 8.02242,18 H 6 C 5.44772,18 5,17.5523 5,17 5,16.4477 5.44772,16 6,16 H 8.20703 C 8.85996,13.69149 10.98245,12 13.5,12 Z M 9,17.5 C 9,19.9853 11.01472,22 13.5,22 15.9853,22 18,19.9853 18,17.5 18,15.0147 15.9853,13 13.5,13 11.01472,13 9,15.0147 9,17.5 Z m 13.0073,0 c 0,2.4812 2.0115,4.4927 4.4927,4.4927 2.4812,0 4.4927,-2.0115 4.4927,-4.4927 0,-2.4812 -2.0115,-4.49267 -4.4927,-4.49267 -2.4812,0 -4.4927,2.01147 -4.4927,4.49267 z"
     fill="#402a32"
     id="path8" />
</svg>
