<?xml version="1.0" encoding="UTF-8" standalone="no"?>
<svg
   width="40"
   height="40"
   viewBox="0 0 40 40"
   fill="none"
   version="1.1"
   id="svg4"
   xmlns:xlink="http://www.w3.org/1999/xlink"
   xmlns="http://www.w3.org/2000/svg"
   xmlns:svg="http://www.w3.org/2000/svg">
  <defs
     id="defs4">
    <filter
       style="color-interpolation-filters:sRGB"
       id="filter9"
       x="-0.11127364"
       y="-0.078043086"
       width="1.2225473"
       height="1.1560862">
      <feFlood
         result="flood"
         in="SourceGraphic"
         flood-opacity="0.498039"
         flood-color="rgb(0,0,0)"
         id="feFlood8" />
      <feGaussianBlur
         result="blur"
         in="SourceGraphic"
         stdDeviation="1.000000"
         id="feGaussianBlur8" />
      <feOffset
         result="offset"
         in="blur"
         dx="0.000000"
         dy="0.000000"
         id="feOffset8" />
      <feComposite
         result="comp1"
         operator="in"
         in="flood"
         in2="offset"
         id="feComposite8" />
      <feComposite
         result="comp2"
         operator="over"
         in="SourceGraphic"
         in2="comp1"
         id="feComposite9" />
    </filter>
  </defs>
  <path
     xlink:href="#path5"
     id="path8"
     d="m 21.291016,4.5957031 c -0.280483,0.00305 -0.567236,0.03687 -0.851563,0.1015625 a 1.5044863,1.5044863 0 0 0 -0.0625,0.015625 c -0.226647,0.061813 -0.425401,0.1408016 -0.601562,0.2226563 a 1.5044863,1.5044863 0 0 0 -0.0039,0 c -0.0047,0.00219 -0.0015,0.00185 -0.0059,0.00391 -0.06232,0.029307 -0.09607,0.04608 -0.08984,0.042969 a 1.5044863,1.5044863 0 0 0 -0.0039,0.00195 c 0.233878,-0.1176935 0.225904,-0.116277 -0.01758,0.00781 -0.11654,0.059164 -0.2193,0.1201387 -0.310547,0.1777344 a 1.5044863,1.5044863 0 0 0 -0.002,0 c 0.262528,-0.1662789 0.257242,-0.1636503 -0.01172,0.00781 v -0.00195 c -0.09327,0.059356 -0.189879,0.1280944 -0.289062,0.2050782 -0.10092,0.07833 -0.150719,0.1260707 -0.15625,0.1308593 -0.05185,0.04488 -0.116265,0.1013623 -0.189454,0.1738282 -0.0049,0.00486 -0.0151,0.015014 -0.0078,0.00781 a 1.5044863,1.5044863 0 0 0 -0.0078,0.00781 c -0.07264,0.072779 -0.134785,0.1416528 -0.189453,0.2050781 0.150129,-0.173899 0.139599,-0.1695271 -0.02539,0.027344 -0.06308,0.074628 -0.122877,0.151798 -0.179688,0.2304688 -0.06036,0.083583 -0.115361,0.1692256 -0.167969,0.2558594 C 16.93831,4.7916548 14.676717,4.366902 12.888672,5.4003906 12.619359,5.5560477 12.380063,5.7438501 12.171875,5.9511719 a 1.5044863,1.5044863 0 0 0 -0.0078,0.011719 c -0.03282,0.032984 -0.06116,0.059891 -0.08008,0.080078 -0.0327,0.034901 -0.08278,0.087969 -0.144531,0.1621094 -0.06985,0.083871 -0.135736,0.1696355 -0.197265,0.2578125 a 1.5044863,1.5044863 0 0 0 -0.01563,0.023437 c -0.0053,0.00797 -0.0066,0.00995 -0.0039,0.00586 -0.03439,0.050757 -0.06256,0.0957 -0.07617,0.1171875 -0.02906,0.045911 -0.06654,0.1071286 -0.109375,0.1835937 -0.03674,0.065696 -0.05877,0.1082384 -0.06641,0.1230469 -0.02233,0.04333 -0.05463,0.1084563 -0.09375,0.1953125 -0.03794,0.084377 -0.05776,0.1376995 -0.06445,0.1542969 a 1.5044863,1.5044863 0 0 0 -0.002,0 c -0.02529,0.062834 -0.04245,0.1124993 -0.05469,0.1464844 -0.01863,0.051656 -0.04004,0.1155884 -0.06445,0.1953125 a 1.5044863,1.5044863 0 0 0 -0.002,0.00195 c -0.02457,0.080349 -0.04223,0.1528671 -0.05859,0.21875 0.01709,-0.068573 0.0071,-0.04629 -0.01953,0.070312 -0.02094,0.090972 -0.03486,0.1674362 -0.04492,0.2246094 -0.0056,0.032014 -0.01482,0.086418 -0.02539,0.1640625 -0.0099,0.0727 -0.01204,0.1103416 -0.01172,0.1074219 a 1.5044863,1.5044863 0 0 0 -0.002,0.00195 c -0.0035,0.03144 -0.01285,0.100755 -0.01953,0.2109375 -0.01117,0.1834288 -0.0098,0.1881703 0,0.015625 a 1.5044863,1.5044863 0 0 0 0,0.00195 c -0.0062,0.1092333 -0.008,0.2168992 -0.0059,0.3261719 0.0013,0.06687 0.0045,0.1142577 0.0059,0.140625 0.0042,0.077786 0.01031,0.1663729 0.02148,0.2617187 0.01247,0.1062695 0.0191,0.1307363 0.01172,0.076172 a 1.5044863,1.5044863 0 0 0 0,0.00391 c 0.01283,0.093453 0.0278,0.1771324 0.04297,0.2519531 0.0137,0.06752 0.02723,0.1178024 0.03516,0.1503906 0.0057,0.023385 0.0167,0.078025 0.04101,0.1621094 0.02253,0.077941 0.04632,0.1511911 0.07031,0.2187501 0.01979,0.05573 0.04277,0.115728 0.06836,0.177734 -0.007,-0.01684 0.0089,0.02878 0.05469,0.128907 0.0537,0.117263 0.114128,0.234322 0.18164,0.347656 a 1.5044863,1.5044863 0 0 0 0.0098,0.01367 l 2.841797,4.654297 c -2.360483,1.216954 -4.166099,3.11043 -4.9707034,5.40039 -0.478972,1.36328 -0.1265624,2.734215 0.6835934,3.75 -0.7614716,0.971477 -1.1088457,2.276535 -0.7324215,3.574219 a 1.5044863,1.5044863 0 0 0 0.019531,0.05664 c 1.4317312,4.283457 5.5573072,7.038778 10.2109372,7.027344 a 1.5044863,1.5044863 0 0 0 0.0059,0 C 25.483094,35.312308 30.722656,30.090338 30.722656,23 c 0,-4.169214 0.04492,-8.52801 0.04492,-12.71875 5.6e-5,-2.0713493 -1.710341,-3.7851563 -3.783203,-3.7851563 -0.489639,0 -0.969549,0.078283 -1.414063,0.2460938 -0.150658,0.056839 -0.275739,0.1185839 -0.375,0.1699219 -0.04979,0.025782 -0.07532,0.040548 -0.07617,0.041016 -0.07881,0.04328 -0.159841,0.095607 -0.240235,0.1484375 C 24.386978,5.7553654 23.14253,4.5755289 21.291016,4.5957031 Z M 19.167969,22.443359 c 1.168382,0.04456 2.199914,1.009209 2.251953,2.136719 0.06055,1.307934 -1.062549,2.525391 -2.279297,2.525391 -0.767159,0 -2.114645,-0.89755 -2.349609,-1.519532 -0.140001,-0.370599 -0.46209,-0.524256 -0.685547,-0.802734 0.05704,-0.06286 0.161106,-0.11787 0.210937,-0.179687 C 16.916899,23.858584 17.264572,23.253004 17.558594,23 a 1.5044863,1.5044863 0 0 0 0.0059,-0.0059 c 0.386652,-0.336219 1.001053,-0.567211 1.603516,-0.550782 z"
     style="fill:#ffffff;fill-opacity:1;filter:url(#filter9)" />
  <path
     d="m 29.218442,23.00029 c 0,-4.18 0.0457,-8.54 0.0457,-12.71997 0,-1.2599998 -1.02,-2.2799998 -2.28,-2.2799998 -1.7344,0 -2.4766,1.44531 -2.3907,3.3828098 l -1.0233,-3.6562398 c -0.25,-0.85157 -1.3203,-1.89847 -2.7969,-1.5625 -1.21,0.33 -1.9528,1.57688 -1.6328,2.79688 l 0.7578,3.0390598 -2.8359,-4.5546898 c -0.63,-1.09 -2.1911,-1.45358 -3.42188,-0.74219 -1.09,0.63 -1.46874,2.29688 -0.8125,3.3984398 l 3.72658,6.1016 c -2.82032,0.9375 -4.90613,2.9215 -5.71876,5.2343 -0.52258,1.4874 0.7529,3.2674 2.30355,3.2674 1.93331,0 2.27091,-1.8407 3.43861,-2.8455 0.69,-0.6 1.6507,-0.9519 2.6407,-0.9219 1.94,0.07 3.6131,1.6226 3.7031,3.5726 0.1,2.16 -1.6513,4.0993 -3.7813,4.0993 -1.5,0 -3.2305,-1.0961 -3.7579,-2.4922 -0.3375,-0.8934 -1.39538,-1.414 -2.35153,-1.414 -1.53,0 -2.67189,1.5781 -2.21865,3.1406 1.22,3.65 4.71108,6.01 8.78108,6 4.99,-0.03 9.625,-4.4844 9.625,-10.8438 z"
     fill="#ffc83d"
     id="path1" />
  <path
     d="m 20.405842,6.2987302 c -0.9878,0.45906 -1.5515,1.57156 -1.2654,2.66257 l 0.7034,2.8206698 1.656,2.71842 -1.3437,-5.9219198 c -0.1424,-0.57392 -0.2513,-1.71105 0.2497,-2.27974 z"
     fill="#d67d00"
     id="path2" />
  <path
     d="m 13.232372,7.0176702 c -0.76643,0.76312 -0.9705,2.13402 -0.4044,3.0842598 l 3.72177,6.09376 c 0.938,-0.2735 1.953,-0.2735 3.0907,-0.2735 -1.0468,-0.2343 -2.2336,-0.5412 -2.9365,-1.4218 -0.7029,-0.88069 -3.12593,-5.0781698 -3.12593,-5.0781698 -0.36238,-0.5457 -0.82666,-1.65115 -0.34564,-2.40455 z"
     fill="#d67d00"
     id="path3" />
  <path
     d="m 24.587742,11.19662 c -0.025,-1.4813898 0.4541,-2.6463698 1.5147,-3.0464998 -0.4032,0.49646 -0.5157,1.33755 -0.5088,1.8502398 l -0.1875,4.50003 z"
     fill="#d67d00"
     id="path4" />
</svg>
