<?xml version="1.0" encoding="UTF-8" standalone="no"?>
<svg
   width="40"
   height="40"
   viewBox="0 0 40 40"
   fill="none"
   version="1.1"
   id="svg13"
   xmlns:xlink="http://www.w3.org/1999/xlink"
   xmlns="http://www.w3.org/2000/svg"
   xmlns:svg="http://www.w3.org/2000/svg">
  <defs
     id="defs13">
    <filter
       style="color-interpolation-filters:sRGB"
       id="filter27"
       x="-0.080629921"
       y="-0.080629921"
       width="1.1612598"
       height="1.1612598">
      <feFlood
         result="flood"
         in="SourceGraphic"
         flood-opacity="0.498039"
         flood-color="rgb(0,0,0)"
         id="feFlood26" />
      <feGaussianBlur
         result="blur"
         in="SourceGraphic"
         stdDeviation="1.000000"
         id="feGaussianBlur26" />
      <feOffset
         result="offset"
         in="blur"
         dx="0.000000"
         dy="0.000000"
         id="feOffset26" />
      <feComposite
         result="comp1"
         operator="in"
         in="flood"
         in2="offset"
         id="feComposite26" />
      <feComposite
         result="comp2"
         operator="over"
         in="SourceGraphic"
         in2="comp1"
         id="feComposite27" />
    </filter>
  </defs>
  <path
     style="fill:#ffffff;fill-opacity:1;filter:url(#filter27)"
     xlink:href="#path14"
     id="path26"
     d="m 28,4.6171875 c -1.169642,0 -2.055015,0.9240036 -2.242188,2.046875 C 24.338335,6.136575 22.807246,5.7466601 21.082031,5.6523437 A 1.3829279,1.3829279 0 0 0 21,5.6171875 H 20 9 C 7.1481171,5.6171875 5.6171875,7.1481171 5.6171875,9 V 9.5859375 12.414063 14.585938 17.414062 20 c 0,3.921398 1.300219,7.52891 3.796875,10.177734 -0.4653093,0.393923 -0.796875,0.927218 -0.796875,1.572266 0,1.161546 0.9712521,2.132812 2.1328125,2.132812 0.979259,0 1.876587,-0.359943 2.683594,-0.86914 1.899493,0.843689 4.06399,1.36914 6.566406,1.36914 3.072357,0 5.593732,-0.849995 7.734375,-2.101562 0.160527,1.152111 1.074781,2.101563 2.265625,2.101562 1.29957,10e-7 2.382813,-1.083242 2.382812,-2.382812 0,-1.036546 -0.764753,-1.776251 -1.703125,-2.097656 1.299858,-1.420408 2.353611,-3.02666 2.935547,-4.896485 1.054735,-1.085202 1.767578,-2.519335 1.767578,-4.144531 V 20.5 c 0,-1.190407 -0.497947,-2.23948 -1.21289,-3.089844 -0.238516,-1.638821 -0.746153,-3.172054 -1.460938,-4.589843 0.668613,-0.853894 1.173829,-1.863819 1.173828,-3.070313 0,-1.1615607 -0.971265,-2.1328125 -2.132812,-2.1328125 -0.908735,0 -1.557554,0.6635302 -1.859375,1.4785156 C 29.76487,8.9834122 29.666113,8.8477631 29.535156,8.7402344 30.035181,8.3009375 30.382813,7.7057065 30.382812,7 30.382813,5.7004235 29.299602,4.6171875 28,4.6171875 Z" />
  <path
     d="M 20,33 C 28.6684,33 33,27.1797 33,20 33,12.8203 28.6684,7 20,7 11.33161,7 7,12.8203 7,20 c 0,7.1797 4.33161,13 13,13 z"
     fill="#ffb02e"
     id="path1" />
  <path
     d="M 9,7 H 21 L 7,20 V 9 C 7,7.89543 7.89543,7 9,7 Z"
     fill="#bb1d80"
     id="path2" />
  <path
     d="M 7,12.41421 12.41421,7 H 9.58579 L 7,9.58579 Z"
     fill="#5092ff"
     id="path3" />
  <path
     d="M 7,17.4142 17.4142,7 H 14.5858 L 7,14.5858 Z"
     fill="#5092ff"
     id="path4" />
  <path
     d="M 32.5,9.75 C 32.5,9.33579 32.1642,9 31.75,9 31.3358,9 31,9.33579 31,9.75 31,11.05188 29.909,12 28.75,12 28.3358,12 28,12.33579 28,12.75 c 0,0.41421 0.3358,0.75 0.75,0.75 1.918,0 3.75,-1.55188 3.75,-3.75 z"
     fill="#f70a8d"
     id="path5" />
  <path
     d="M 14.5,28.75 C 14.5,28.3358 14.1642,28 13.75,28 13.33579,28 13,28.3358 13,28.75 13,30.0519 11.90902,31 10.75,31 10.33579,31 10,31.3358 10,31.75 c 0,0.4142 0.33579,0.75 0.75,0.75 1.91796,0 3.75,-1.5519 3.75,-3.75 z"
     fill="#f70a8d"
     id="path6" />
  <path
     d="M 13.98156,18.1909 C 14.0296,17.9436 14.1397,17.6405 14.349,17.4125 14.5283,17.2171 14.847,17 15.4999,17 c 0.6418,0 0.9686,0.2216 1.1573,0.4288 0.2181,0.2395 0.3232,0.5449 0.3575,0.7423 0.0945,0.5441 0.6122,0.9086 1.1563,0.8142 0.5442,-0.0945 0.9087,-0.6123 0.8142,-1.1564 C 18.9062,17.374 18.6799,16.6794 18.1357,16.082 17.562,15.4522 16.6955,15 15.4999,15 c -1.1843,0 -2.04721,0.4313 -2.62439,1.0601 -0.54725,0.5963 -0.76855,1.2932 -0.85718,1.749 -0.10542,0.5422 0.24861,1.0671 0.79074,1.1725 0.54213,0.1054 1.06707,-0.2486 1.17249,-0.7907 z"
     fill="#402a32"
     id="path7" />
  <path
     d="M 23.9818,18.1909 C 24.0299,17.9436 24.14,17.6405 24.3492,17.4125 24.5285,17.2171 24.8472,17 25.5002,17 c 0.6417,0 0.9685,0.2216 1.1572,0.4288 0.2182,0.2395 0.3233,0.5449 0.3575,0.7423 0.0945,0.5441 0.6122,0.9086 1.1564,0.8142 0.5441,-0.0945 0.9086,-0.6123 0.8141,-1.1564 C 28.9064,17.374 28.6802,16.6794 28.1359,16.082 27.5623,15.4522 26.6957,15 25.5002,15 c -1.1843,0 -2.0473,0.4313 -2.6244,1.0601 -0.5473,0.5963 -0.7686,1.2932 -0.8572,1.749 -0.1054,0.5422 0.2486,1.0671 0.7907,1.1725 0.5421,0.1054 1.0671,-0.2486 1.1725,-0.7907 z"
     fill="#402a32"
     id="path8" />
  <path
     d="m 29,7 c 0,0.55228 -0.4477,1 -1,1 -0.5523,0 -1,-0.44772 -1,-1 0,-0.55228 0.4477,-1 1,-1 0.5523,0 1,0.44772 1,1 z"
     fill="#00a6ed"
     id="path9" />
  <path
     d="m 13,25 c 0.55228,0 1,-0.4477 1,-1 0,-0.5523 -0.44772,-1 -1,-1 -0.55228,0 -1,0.4477 -1,1 0,0.5523 0.44772,1 1,1 z"
     fill="#00a6ed"
     id="path10" />
  <path
     d="m 30,33 c 0.5523,0 1,-0.4477 1,-1 0,-0.5523 -0.4477,-1 -1,-1 -0.5523,0 -1,0.4477 -1,1 0,0.5523 0.4477,1 1,1 z"
     fill="#00a6ed"
     id="path11" />
  <path
     d="M 30.3214,17 C 28.4871,17 27,18.4871 27,20.3214 V 20.45 c 0,1.4083 1.1417,2.55 2.55,2.55 1.077,0 1.95,-0.873 1.95,-1.95 v -0.3 C 31.5,20.3358 31.1642,20 30.75,20 30.3358,20 30,20.3358 30,20.75 v 0.3 c 0,0.2485 -0.2015,0.45 -0.45,0.45 -0.5799,0 -1.05,-0.4701 -1.05,-1.05 V 20.3214 C 28.5,19.3155 29.3155,18.5 30.3214,18.5 H 30.5 c 1.1046,0 2,0.8954 2,2 v 0.3611 C 32.5,22.5947 31.0947,24 29.3611,24 H 23 c -0.4142,0 -0.75,0.3358 -0.75,0.75 0,0.4142 0.3358,0.75 0.75,0.75 h 6.3611 C 31.9231,25.5 34,23.4231 34,20.8611 V 20.5 C 34,18.567 32.433,17 30.5,17 Z"
     fill="#00a6ed"
     id="path12" />
  <path
     d="m 21.6699,20.92 c -0.5523,0 -1,0.4477 -1,1 0,0.5523 0.4477,1 1,1 0.2877,0 0.52,0.2323 0.52,0.52 0,0.2877 -0.2323,0.52 -0.52,0.52 -0.5523,0 -1,0.4477 -1,1 0,0 0,0 0,0 0,0.5523 0.4477,1 1,1 0.2877,0 0.52,0.2323 0.52,0.52 0,0.2877 -0.2323,0.52 -0.52,0.52 -0.5523,0 -1,0.4477 -1,1 0,0.5523 0.4477,1 1,1 1.3923,0 2.52,-1.1277 2.52,-2.52 0,-0.571 -0.1897,-1.0975 -0.5095,-1.52 0.3198,-0.4225 0.5095,-0.949 0.5095,-1.52 0,-1.3923 -1.1277,-2.52 -2.52,-2.52 z"
     fill="#402a32"
     id="path13" />
</svg>
