<?xml version="1.0" encoding="UTF-8" standalone="no"?>
<svg
   width="40"
   height="40"
   viewBox="0 0 40 40"
   fill="none"
   version="1.1"
   id="svg13"
   xmlns="http://www.w3.org/2000/svg"
   xmlns:svg="http://www.w3.org/2000/svg">
  <defs
     id="defs13">
    <filter
       style="color-interpolation-filters:sRGB"
       id="filter28"
       x="-0.078878562"
       y="-0.081639447"
       width="1.1577571"
       height="1.1632789">
      <feFlood
         result="flood"
         in="SourceGraphic"
         flood-opacity="0.498039"
         flood-color="rgb(0,0,0)"
         id="feFlood27" />
      <feGaussianBlur
         result="blur"
         in="SourceGraphic"
         stdDeviation="1.000000"
         id="feGaussianBlur27" />
      <feOffset
         result="offset"
         in="blur"
         dx="0.000000"
         dy="0.000000"
         id="feOffset27" />
      <feComposite
         result="comp1"
         operator="in"
         in="flood"
         in2="offset"
         id="feComposite27" />
      <feComposite
         result="comp2"
         operator="over"
         in="SourceGraphic"
         in2="comp1"
         id="feComposite28" />
    </filter>
  </defs>
  <path
     id="path27"
     style="fill:#ffffff;fill-opacity:1;filter:url(#filter28)"
     d="m 14.53125,4.7910156 c -1.185441,0 -2.169917,0.9844982 -2.169922,2.1699219 3e-6,0.6487539 0.323326,1.1902017 0.785156,1.5898438 -0.234411,0.045017 -0.475921,0.057415 -0.691406,0.171875 -1.151292,0.6078198 -1.594849,2.0790327 -0.980469,3.2285157 0.418118,0.78285 0.590581,1.623566 0.650391,2.476562 -0.116173,-0.03071 -0.237982,-0.09884 -0.353516,-0.123046 -0.317896,-0.08365 -0.6448,-0.12597 -0.974609,-0.121094 -0.8346436,-0.02223 -1.7166839,0.195199 -2.3515625,0.830078 -0.098889,0.09889 -0.164029,0.201012 -0.2382812,0.302734 -0.3912541,0.412448 -0.7105575,0.942453 -0.8750001,1.560547 l -0.7714843,2.886719 c -6.692e-4,0.0039 -0.00132,0.0078 -0.00195,0.01172 -6.508e-4,6.66e-4 -0.0013,0.0013 -0.00195,0.002 l -0.7695312,2.873047 c -0.00201,0.0065 -0.00396,0.013 -0.00586,0.01953 l -0.00586,0.02148 -0.765625,2.865235 c -6.586e-4,0.0026 -0.00131,0.0052 -0.00195,0.0078 l -0.011719,0.04102 -0.7207031,2.693359 c -0.00415,0.0136 -0.00805,0.02728 -0.011719,0.04102 L 3.921875,29.617187 c -0.7146307,2.64316 1.7982771,5.156006 4.4414063,4.451172 l 1.4511718,-0.388672 c 0.011767,-0.0031 0.023487,-0.0064 0.035156,-0.0098 h 0.00195 l 2.7695349,-0.742153 h -0.154297 c 0.120454,2.15e-4 0.240265,-0.01756 0.355469,-0.05273 l 0.0039,-0.002 2.59375,-0.69336 c 0.02363,-0.0058 0.04707,-0.01232 0.07031,-0.01953 l -0.02344,0.0078 3.042969,-0.814453 0.03516,-0.0098 c 0.0013,-6.64e-4 0.0026,-0.0013 0.0039,-0.002 l 2.554688,-0.683594 c 0.610692,-0.162851 1.132769,-0.479293 1.542968,-0.865234 0.108505,-0.07856 0.219911,-0.147645 0.320313,-0.248047 0.645266,-0.645266 0.857853,-1.544599 0.828125,-2.392578 0.0014,-0.303749 -0.03705,-0.603263 -0.109375,-0.892578 -0.111195,-0.550888 -0.46572,-1.145294 -0.714844,-1.720704 2.26663,-0.449208 4.580555,-0.197777 6.617188,0.945313 1.1368,0.638202 2.616809,0.229675 3.257812,-0.912109 0.0013,-0.002 0.0026,-0.0039 0.0039,-0.0059 0.627011,-1.132668 0.200053,-2.587408 -0.914062,-3.232422 -0.0033,-0.002 -0.0065,-0.0039 -0.0098,-0.0059 -1.299811,-0.734309 -2.697383,-1.188143 -4.121094,-1.490234 1.12477,-0.322896 2.287812,-0.40815 3.376954,-0.002 1.157121,0.431575 2.473239,-0.172186 2.904296,-1.328125 0.431286,-1.156349 -0.174671,-2.472135 -1.328125,-2.902343 -1.181048,-0.440472 -2.432301,-0.653968 -3.689453,-0.628906 -2.004377,0.03996 -4.003356,0.72763 -5.720703,2.005859 0.186366,-0.730843 0.255723,-1.476918 0.263672,-2.226563 0.475645,-0.65258 0.911433,-1.332479 1.212891,-2.085937 0.0027,-0.0078 0.0053,-0.0156 0.0078,-0.02344 l 0.0039,-0.0078 0.01367,-0.03711 c 0.203163,-0.487198 1.206474,-2.7472368 1.328125,-4.7167974 8.37e-4,-0.011708 0.0015,-0.023428 0.002,-0.035156 C 26.201305,7.1794754 25.9259,6.5428587 25.423828,6.1074219 25.082911,5.8102684 24.62244,5.5967637 24.109375,5.5722656 c -0.08268,-0.00422 -0.155432,-0.00454 -0.212891,-0.00195 -1.100761,0.049531 -2.011856,0.9334993 -2.09375,2.0390625 -2.6e-5,0.00456 -2.6e-5,0.00911 0,0.013672 -0.02891,0.4543586 -0.420708,1.515748 -0.726562,2.3867159 C 20.950984,9.9561603 20.85258,9.8527714 20.722656,9.8105469 l 0.04687,0.015625 c -0.02188,-0.00911 -0.04403,-0.01758 -0.06641,-0.025391 C 18.969683,9.2229659 17.143028,10.036154 16.265625,11.576172 16.065361,10.951077 15.994798,10.295446 15.679688,9.7050781 15.509299,9.3822977 15.241611,9.1529944 14.962891,8.9472656 15.917006,8.7213741 16.699219,7.976226 16.699219,6.9609375 c 0,-1.1824568 -0.982528,-2.1699219 -2.167969,-2.1699219 z M 9.0097656,9.1601563 c -1.2946649,0 -2.3691406,1.0744757 -2.3691406,2.3691407 0,1.294665 1.0744757,2.369141 2.3691406,2.369141 1.2946654,0 2.3691404,-1.074476 2.3691404,-2.369141 0,-1.294665 -1.074475,-2.3691408 -2.3691404,-2.3691407 z m 18.9609374,0 c -1.294664,0 -2.36914,1.0745387 -2.369141,2.3691407 10e-7,1.294602 1.074477,2.36914 2.369141,2.369141 1.294666,0 2.369141,-1.074413 2.369141,-2.369141 0,-1.294728 -1.074475,-2.3691408 -2.369141,-2.3691407 z m -5.8125,1.4511717 0.01953,0.01563 c -0.0029,-0.0026 -0.0069,-0.0033 -0.0098,-0.0059 -0.0036,-0.0031 -0.0062,-0.0067 -0.0098,-0.0098 z m -1.458984,0.740235 h 0.0059 c -6.72e-4,0.002 -0.0013,0.0039 -0.002,0.0059 -0.0053,0.04801 -0.03125,0.07747 -0.03125,0.132812 z m -3.962891,4.564453 c 0.436502,0.48217 0.946278,0.892899 1.572266,1.101562 0.08932,0.02977 0.203255,0.0462 0.310547,0.06641 0.206034,0.05401 0.415024,-0.01828 0.625,0.0039 0.190211,0.744124 0.616748,1.407637 1.402343,1.61914 0.658187,0.177206 1.279802,-0.03006 1.798828,-0.40625 -0.139329,0.484205 -0.07034,0.93257 0.121094,1.408203 -0.541712,0.08674 -1.085554,0.135959 -1.621094,0.285157 -0.04719,0.01315 -0.08983,0.03326 -0.136718,0.04687 6.35e-4,-0.02222 0.02539,-0.0343 0.02539,-0.05664 0,-1.289476 -1.072378,-2.357422 -2.359375,-2.357422 -0.212037,0 -0.349045,0.178623 -0.546875,0.232422 -0.419213,-0.367556 -0.83868,-0.709608 -1.259765,-1.027344 0.05552,-0.304576 0.03869,-0.609725 0.06836,-0.916015 z m 6.591797,1.248046 c -0.0028,0.01887 -0.0034,-0.0027 0,0 z m 4.181641,8.066407 c -1.190621,0 -2.177735,0.992008 -2.177735,2.179687 0,1.187679 0.987115,2.179688 2.177735,2.179688 1.190619,0 2.179687,-0.989067 2.179687,-2.179688 0,-1.190621 -0.989066,-2.179687 -2.179687,-2.179687 z" />
  <path
     d="m 8.0504008,32.9 1.47164,-0.3939 0.39487,-0.8553 2.5504702,0.067 2.65246,-0.71 0.5974,-0.9262 2.4819,0.102 2.5913,-0.6936 c 1.8,-0.48 2.41,-2.74 1.09,-4.06 l -9.32004,-9.33 c -1.32,-1.32 -3.5800002,-0.72 -4.0600002,1.09 l -0.77262,2.8866 0.10816,2.3446 -0.88079,0.542 -0.78989,2.9511 0.13235,2.2478 -0.86347,0.4837 -0.34374,1.2842 c -0.49,1.8 1.16,3.45 2.96,2.97 z"
     fill="#f9c23c"
     id="path1" />
  <path
     d="M 10.801231,28.0526 C 9.3209108,26.6703 8.0600208,25.006 6.9466708,22.995 l 0.77734,-2.9042 c 1.27847,2.7979 2.7166102,4.8892 4.4418402,6.5002 1.66269,1.5527 3.63219,2.6968 6.07039,3.5826 l -3.1292,0.8376 c -1.6019,-0.7971 -3.02661,-1.764 -4.30581,-2.9586 z"
     fill="#3f5fff"
     id="path2" />
  <path
     d="m 7.2875008,30.8862 c -0.70767,-0.6618 -1.31601,-1.403 -1.85505,-2.2339 l 0.74486,-2.7829 c 0.70266,1.4902 1.4897,2.634 2.4759,3.5562 0.98386,0.9201 2.2084302,1.6594 3.8381302,2.2857 l -2.9888002,0.8 c -0.82277,-0.4726 -1.55573,-1.0085 -2.21504,-1.6251 z"
     fill="#3f5fff"
     id="path3" />
  <path
     d="m 22.110441,28.69 c 1.4,-1.4 -0.34,-5.4 -3.88,-8.94 -3.54,-3.54 -7.53003,-5.28 -8.9300302,-3.88 -1.4,1.4 0.34,5.4 3.8800302,8.94 3.54,3.54 7.54,5.27 8.93,3.88 z"
     fill="#6d4534"
     id="path4" />
  <path
     d="m 14.610441,10.27004 c 1.24,2.32 1.49,4.97996 0.72,7.48996 -0.65,2.14 -1.99,3.95 -3.80999,5.2 -0.52,-0.65 -0.97,-1.3 -1.35,-1.93 1.39,-0.95 2.41,-2.33 2.90999,-3.96 0.59,-1.91 0.4,-3.93 -0.53999,-5.68996 -0.31,-0.58 -0.09,-1.29 0.47999,-1.59 0.58,-0.31 1.29,-0.09 1.59,0.48 z"
     fill="#f70a8d"
     id="path5" />
  <path
     d="m 25.150241,19.7126 c 1.8907,-1.4936 4.3429,-1.7977 6.4539,-1.0104 0.5424,0.2023 1.1462,-0.0734 1.3485,-0.6159 0.2023,-0.5424 -0.0735,-1.1461 -0.6159,-1.3484 -2.769,-1.0327 -5.9968,-0.6368 -8.4861,1.3296 -0.4543,0.3588 -0.5316,1.018 -0.1727,1.4723 0.3588,0.4543 1.018,0.5317 1.4723,0.1728 z"
     fill="#f70a8d"
     id="path6" />
  <path
     d="m 9.0104208,12.69003 c 0.64065,0 1.1600002,-0.51935 1.1600002,-1.16 0,-0.64065 -0.5193502,-1.16 -1.1600002,-1.16 -0.64065,0 -1.16,0.51935 -1.16,1.16 0,0.64065 0.51935,1.16 1.16,1.16 z"
     fill="#f70a8d"
     id="path7" />
  <path
     d="m 29.130441,11.53003 c 0,0.64065 -0.5194,1.16 -1.16,1.16 -0.6407,0 -1.16,-0.51935 -1.16,-1.16 0,-0.64065 0.5193,-1.16 1.16,-1.16 0.6406,0 1.16,0.51935 1.16,1.16 z"
     fill="#f70a8d"
     id="path8" />
  <path
     d="m 15.490441,6.96 c 0,0.53019 -0.4298,0.96 -0.96,0.96 -0.5302,0 -0.96,-0.42981 -0.96,-0.96 0,-0.53019 0.4298,-0.96 0.96,-0.96 0.5302,0 0.96,0.42981 0.96,0.96 z"
     fill="#f9c23c"
     id="path9" />
  <path
     d="m 28.480441,27.41 c 0,0.5357 -0.4343,0.97 -0.97,0.97 -0.5357,0 -0.97,-0.4343 -0.97,-0.97 0,-0.5357 0.4343,-0.97 0.97,-0.97 0.5357,0 0.97,0.4343 0.97,0.97 z"
     fill="#f9c23c"
     id="path10" />
  <path
     d="m 24.630441,7.01999 c -0.16,-0.14 -0.36,-0.23 -0.58,-0.24 -0.54,-0.03 -1,0.38 -1.04,0.92 -0.07,1.1 -0.83,3.09 -1.12,3.76 0,0.005 -0.0025,0.01 -0.005,0.015 -0.0025,0.005 -0.005,0.01 -0.005,0.015 -0.0536,0.13206 -0.1109,0.26229 -0.1719,0.39048 -0.102,-0.12775 -0.2147,-0.24468 -0.3381,-0.35047 -0.28,-0.25 -0.62,-0.44 -1.02,-0.57 l -0.03,-0.01 c -1.35,-0.45 -2.82,0.28 -3.27,1.64 -0.22,0.66 -0.17,1.36 0.14,1.98 0.31,0.62 0.84,1.08 1.5,1.3 0.0708,0.0236 0.1427,0.0386 0.2144,0.0454 0.5052,0.1365 0.9942,0.1412 1.4649,0.0148 -0.0285,0.1373 -0.0616,0.2739 -0.0993,0.4098 -0.14,0.52 0.17,1.06 0.69,1.2 0.52,0.14 1.06,-0.17 1.2,-0.69 0.2253,-0.8146 0.3229,-1.6442 0.2929,-2.4823 0.5203,-0.6518 0.9359,-1.3699 1.2471,-2.14771 l 0.0147,-0.03564 c 0.1854,-0.44861 1.1582,-2.80229 1.2553,-4.37436 0.01,-0.31 -0.12,-0.6 -0.34,-0.79 z m -4.88,5.79001 c 0.2754,0.0918 0.5577,0.2463 0.6785,0.8761 -0.4925,0.4574 -0.8085,0.4072 -1.0885,0.3139 -0.0337,-0.0112 -0.0676,-0.0205 -0.1016,-0.0279 -0.127,-0.0597 -0.2292,-0.1651 -0.2884,-0.2921 -0.08,-0.15 -0.09,-0.32 -0.03,-0.48 0.11,-0.33 0.47,-0.51 0.8,-0.4 z"
     fill="#00a6ed"
     id="path11" />
  <path
     d="m 21.270441,21.16 c 3.41,-0.95 6.98,-0.52 10.06,1.22 0.57,0.33 0.77,1.04 0.46,1.6 -0.32,0.57 -1.04,0.77 -1.61,0.45 -2.53,-1.42 -5.47,-1.78 -8.27,-1 -2.31,0.64 -4.29,2 -5.72,3.88 -0.61,-0.42 -1.24,-0.9 -1.86,-1.44 1.73,-2.27 4.14,-3.93 6.94,-4.71 z"
     fill="#00a6ed"
     id="path12" />
  <path
     d="m 19.624441,19.9853 c 0,0.6352 -0.5149,1.15 -1.15,1.15 -0.6351,0 -1.15,-0.5148 -1.15,-1.15 0,-0.6351 0.5149,-1.15 1.15,-1.15 0.6351,0 1.15,0.5149 1.15,1.15 z"
     fill="#00a6ed"
     id="path13" />
</svg>
