<?xml version="1.0" encoding="UTF-8" standalone="no"?>
<svg
   width="40"
   height="40"
   viewBox="0 0 40 40"
   fill="none"
   version="1.1"
   id="svg4"
   xmlns:xlink="http://www.w3.org/1999/xlink"
   xmlns="http://www.w3.org/2000/svg"
   xmlns:svg="http://www.w3.org/2000/svg">
  <defs
     id="defs4">
    <filter
       style="color-interpolation-filters:sRGB"
       id="filter6"
       x="-0.075183554"
       y="-0.077455969"
       width="1.1503671"
       height="1.1549119">
      <feFlood
         result="flood"
         in="SourceGraphic"
         flood-opacity="0.498039"
         flood-color="rgb(0,0,0)"
         id="feFlood5" />
      <feGaussianBlur
         result="blur"
         in="SourceGraphic"
         stdDeviation="1.000000"
         id="feGaussianBlur5" />
      <feOffset
         result="offset"
         in="blur"
         dx="0.000000"
         dy="0.000000"
         id="feOffset5" />
      <feComposite
         result="comp1"
         operator="in"
         in="flood"
         in2="offset"
         id="feComposite5" />
      <feComposite
         result="comp2"
         operator="over"
         in="SourceGraphic"
         in2="comp1"
         id="feComposite6" />
    </filter>
  </defs>
  <path
     xlink:href="#path1"
     id="path5"
     d="m 24.28125,5.5683594 c -0.860928,-0.1360249 -1.721336,0.320795 -2.150391,0.7675781 -0.429055,0.4467831 -0.645199,0.879279 -0.828125,1.2050781 -0.137893,0.2455319 -0.257204,0.4372921 -0.292968,0.4824219 -0.492519,0.6212134 -1.552804,1.9777925 -5.234375,3.5722655 -1.827589,0.79149 -2.931459,1.373617 -3.751953,1.970703 -0.820495,0.597086 -1.306825,1.215895 -1.722657,1.757813 a 1.4605296,1.4605296 0 0 0 -0.0078,0.0098 l -0.01563,0.02149 a 1.4605296,1.4605296 0 0 0 -0.0059,0.0078 c -0.05875,0.07622 -0.116366,0.150868 -0.173828,0.22461 -0.4582774,0.553498 -0.9163696,1.347818 -1.1738279,2.40039 -0.1975163,0.807511 -0.1465398,1.78824 0.1289063,2.78125 -1.1083419,0.672921 -2.1114521,1.537353 -2.8710938,2.611328 -0.9734509,1.376258 -1.6425714,2.976081 -1.6425781,4.642578 -5.8e-6,2.157972 0.6624588,4.264697 2.1054687,5.855469 1.44301,1.590773 3.6443028,2.578619 6.3496098,2.644531 l -1.257813,-1.287109 a 1.4605296,1.4605296 0 0 0 1.292969,1.292969 H 28.425781 A 1.4605296,1.4605296 0 0 0 29.625,35.330078 l -1.113281,1.179688 c 4.484616,-0.262582 7.949218,-3.647864 7.949218,-8.082032 0,-3.114208 -1.731949,-5.880899 -4.220703,-7.49414 0.272441,-1.637456 0.24745,-3.328909 -0.382812,-4.873047 a 1.4605296,1.4605296 0 0 0 -0.0293,-0.06641 c -0.864154,-1.846701 -2.506482,-3.096334 -4.332031,-3.929688 0.06875,-0.475127 0.09688,-0.988747 0.02734,-1.576172 C 27.378378,9.2618367 27.093516,8.2220816 26.607422,7.359375 26.121327,6.4966684 25.339454,5.735491 24.28125,5.5683594 Z"
     style="fill:#ffffff;fill-opacity:1;filter:url(#filter6)" />
  <path
     d="m 26.0722,10.659373 c 0.1253,1.05846 -0.0632,1.73503 -0.3089,2.13372 2.0286,0.56016 3.8783,1.97371 4.7425,3.82051 0.6249,1.531 0.6602,3.3581 0.192,5.0264 2.4834,1.2067 4.3022,3.9067 4.3022,6.7886 0,3.7219 -2.723,6.3992 -6.5743,6.6247 v 0.0154 H 13.02984 v -0.0034 c -4.76929,-0.1162 -7.02985,-3.3167 -7.02984,-7.042 10e-6,-2.494 2.14893,-5.4705 4.54851,-6.4912 -0.0012,-0.2187 0.02061,-0.3856 0.05676,-0.5115 -0.92892,-1.879 0.02089,-3.7796 0.61777,-4.5005 0.07971,-0.1018 0.15463,-0.1995 0.22696,-0.2932 l 0.0099,-0.0132 c 0.83087,-1.0828 1.3315,-1.7353 4.8951,-3.27862 3.8869,-1.6834 5.2686,-3.3356297 5.8,-4.0058697 0.1463,-0.18461 0.2811,-0.42475 0.4202,-0.67243 0.3662,-0.65222 0.7625,-1.35778 1.4777,-1.24478 0.9869,0.15587 1.7612,1.46519 2.0193,3.6473697 z"
     fill="#b35f47"
     id="path1" />
  <path
     d="m 16.625,29.158603 c 2.6354,0 4.9414,0 7.9062,0 0,2.3789 -1.7698,3.9185 -3.9531,3.9185 -2.1832,0 -3.9531,-1.4765 -3.9531,-3.9185 z"
     fill="#f92f60"
     id="path2" />
  <path
     fill-rule="evenodd"
     clip-rule="evenodd"
     d="m 19.5853,23.618803 c 0,2.4771 -2.008,4.4851 -4.485,4.4851 -2.47704,0 -4.48507,-2.008 -4.48507,-4.4851 0,-2.477 2.00803,-4.485 4.48507,-4.485 2.477,0 4.485,2.008 4.485,4.485 z m 10.8991,0 c 0,2.4771 -2.008,4.4851 -4.4851,4.4851 -2.477,0 -4.485,-2.008 -4.485,-4.4851 0,-2.477 2.008,-4.485 4.485,-4.485 2.4771,0 4.4851,2.008 4.4851,4.485 z"
     fill="#ffffff"
     id="path3" />
  <path
     fill-rule="evenodd"
     clip-rule="evenodd"
     d="m 16.0152,26.131203 c 1.3716,0 2.4835,-1.1119 2.4835,-2.4835 0,-1.3715 -1.1119,-2.4834 -2.4835,-2.4834 -1.3715,0 -2.4834,1.1119 -2.4834,2.4834 0,1.3716 1.1119,2.4835 2.4834,2.4835 z m 9.0113,0 c 1.3716,0 2.4835,-1.1119 2.4835,-2.4835 0,-1.3715 -1.1119,-2.4834 -2.4835,-2.4834 -1.3715,0 -2.4834,1.1119 -2.4834,2.4834 0,1.3716 1.1119,2.4835 2.4834,2.4835 z"
     fill="#402a32"
     id="path4" />
</svg>
