<?xml version="1.0" encoding="UTF-8" standalone="no"?>
<svg
   width="40"
   height="40"
   viewBox="0 0 40 40"
   fill="none"
   version="1.1"
   id="svg2"
   xmlns:xlink="http://www.w3.org/1999/xlink"
   xmlns="http://www.w3.org/2000/svg"
   xmlns:svg="http://www.w3.org/2000/svg">
  <defs
     id="defs2">
    <filter
       style="color-interpolation-filters:sRGB"
       id="filter5"
       x="-0.12390844"
       y="-0.079703101"
       width="1.2478169"
       height="1.1594062">
      <feFlood
         result="flood"
         in="SourceGraphic"
         flood-opacity="0.498039"
         flood-color="rgb(0,0,0)"
         id="feFlood4" />
      <feGaussianBlur
         result="blur"
         in="SourceGraphic"
         stdDeviation="1.000000"
         id="feGaussianBlur4" />
      <feOffset
         result="offset"
         in="blur"
         dx="0.000000"
         dy="0.000000"
         id="feOffset4" />
      <feComposite
         result="comp1"
         operator="in"
         in="flood"
         in2="offset"
         id="feComposite4" />
      <feComposite
         result="comp2"
         operator="over"
         in="SourceGraphic"
         in2="comp1"
         id="feComposite5" />
    </filter>
  </defs>
  <path
     xlink:href="#path3"
     id="path4"
     d="m 19.798828,5.1679687 c -2.592289,-0.05519 -5.068034,0.8525153 -6.945312,2.5410157 a 1.2779325,1.2779325 0 0 0 -0.002,0.00195 c -1.871018,1.6938868 -2.9433599,4.0302865 -2.9433599,6.5000005 0,2.061458 1.7929919,3.646484 3.8417969,3.646484 2.048797,0 3.833984,-1.584496 3.833984,-3.636719 0,-0.461672 0.178894,-0.876617 0.566407,-1.228515 0.39285,-0.356746 0.899965,-0.551845 1.488281,-0.539063 1.122677,0.02468 1.974609,0.897422 1.974609,1.865234 v 1.242188 c 0,0.816036 -0.622285,1.567286 -1.61914,1.736328 a 1.2779325,1.2779325 0 0 0 -0.002,0 c -2.390708,0.408356 -4.232421,2.391936 -4.232421,4.775391 v 2.789062 c 0,1.454654 0.91719,2.645465 2.169921,3.232422 -1.291053,0.603613 -2.207031,1.898436 -2.207031,3.40625 0,2.071288 1.706056,3.777344 3.777344,3.777344 2.071288,0 3.777344,-1.706056 3.777344,-3.777344 0,-1.470096 -0.879563,-2.724782 -2.119141,-3.347656 1.30738,-0.568504 2.267577,-1.802156 2.267578,-3.300782 v -1.074218 c 3.430033,-1.398724 5.851563,-4.536516 5.851563,-8.216797 v -1.251953 c 0,-4.9798997 -4.289694,-9.038899 -9.476563,-9.1406253 z"
     style="fill:#ffffff;fill-opacity:1;filter:url(#filter5)" />
  <path
     d="m 17.03742,24.862139 c 0,1.3022 1.1451,2.3595 2.5552,2.3595 1.4101,0 2.5551,-1.0573 2.5551,-2.3693 v -1.7022 c 0,-0.1111 0.0737,-0.2085 0.1796,-0.242 3.3495,-1.0578 5.6729,-3.9898 5.6729,-7.347 v -1.2532 c 0,-4.2393 -3.6896,-7.7736897 -8.2274,-7.8617997 -2.2795,-0.04896 -4.4317,0.74408 -6.06447,2.21266 C 12.0862,10.127379 11.185,12.105069 11.185,14.210039 c 0,1.3119 1.15565,2.3693 2.56576,2.3693 1.41006,0 2.55516,-1.0574 2.55516,-2.3595 0,-0.82242 0.3499,-1.59587 0.986,-2.17351 0.6361,-0.57764 1.4737,-0.89094 2.3749,-0.87136 1.7812,0.03916 3.2231,1.449 3.2231,3.14277 v 1.2434 c 0,1.4686 -1.1238,2.7316 -2.6824,2.9959 -1.8342,0.3133 -3.1701,1.7917 -3.1701,3.5148 z"
     fill="#f8312f"
     id="path1" />
  <path
     d="m 19.50022,33.999539 c 1.3807,0 2.5,-1.1193 2.5,-2.5 0,-1.3807 -1.1193,-2.5 -2.5,-2.5 -1.3807,0 -2.5,1.1193 -2.5,2.5 0,1.3807 1.1193,2.5 2.5,2.5 z"
     fill="#f8312f"
     id="path2" />
</svg>
