<?xml version="1.0" encoding="UTF-8" standalone="no"?>
<svg
   width="40"
   height="40"
   viewBox="0 0 40 40"
   fill="none"
   version="1.1"
   id="svg12"
   xmlns:xlink="http://www.w3.org/1999/xlink"
   xmlns="http://www.w3.org/2000/svg"
   xmlns:svg="http://www.w3.org/2000/svg">
  <defs
     id="defs12">
    <filter
       style="color-interpolation-filters:sRGB"
       id="filter25"
       x="-0.078131689"
       y="-0.093345488"
       width="1.1562634"
       height="1.186691">
      <feFlood
         result="flood"
         in="SourceGraphic"
         flood-opacity="0.498039"
         flood-color="rgb(0,0,0)"
         id="feFlood24" />
      <feGaussianBlur
         result="blur"
         in="SourceGraphic"
         stdDeviation="1.000000"
         id="feGaussianBlur24" />
      <feOffset
         result="offset"
         in="blur"
         dx="0.000000"
         dy="0.000000"
         id="feOffset24" />
      <feComposite
         result="comp1"
         operator="in"
         in="flood"
         in2="offset"
         id="feComposite24" />
      <feComposite
         result="comp2"
         operator="over"
         in="SourceGraphic"
         in2="comp1"
         id="feComposite25" />
    </filter>
  </defs>
  <path
     xlink:href="#path13"
     id="path24"
     d="m 9.3417969,7.6445312 c -1.4727447,0 -2.6953125,1.2225676 -2.6953125,2.6953128 v 1.230469 c 0,1.639639 0.6207088,3.155761 1.5332031,4.488281 l -2.515625,3 a 1.3560678,1.3560678 0 0 0 -0.00391,0.0039 c -1.0668147,1.283059 -1.3182618,3.069201 -0.6367187,4.591797 a 1.3560678,1.3560678 0 0 0 0.00195,0 c 0.7005753,1.562228 1.6384649,2.994949 2.7675781,4.251953 a 1.3560678,1.3560678 0 0 0 0.017578,0.0078 c 1.1467899,1.27782 2.4908201,2.372324 3.9863281,3.238282 a 1.3560678,1.3560678 0 0 0 0.0059,0.01172 c 0.09118,0.05279 0.138483,0.07522 0.136719,0.07422 0.06831,0.03863 0.133994,0.0758 0.195313,0.109375 0.05723,0.0314 0.13466,0.07534 0.236328,0.128906 0.121832,0.06442 0.221327,0.11146 0.298828,0.150391 a 1.3560678,1.3560678 0 0 0 0.002,0.002 c -0.0112,-0.0056 0.01365,0.0062 0.07227,0.03516 1.518357,0.753072 3.175537,1.281079 4.917968,1.527344 a 1.3560678,1.3560678 0 0 0 0.0039,-0.002 c 0.142555,0.02018 0.263538,0.03342 0.359375,0.04492 a 1.3560678,1.3560678 0 0 0 0.002,0 c 0.04905,0.0059 0.102466,0.01295 0.162109,0.01953 0.251566,0.02763 0.510773,0.05182 0.775391,0.06836 0.04644,0.004 0.09733,0.0081 0.164062,0.01172 a 1.3560678,1.3560678 0 0 0 0.02344,0.002 c 0.04664,0.0017 0.0961,0.0039 0.148437,0.0059 0.05291,0.0022 0.09482,0.0028 0.126953,0.0039 0.04008,0.0013 0.0634,0.0017 0.07227,0.002 a 1.3560678,1.3560678 0 0 0 0.0039,0 c 0.0863,0.0026 0.176061,0.0045 0.269531,0.0059 0.07246,0.0012 0.149396,0.002 0.228516,0.002 0.204998,0 0.399477,-0.0056 0.580078,-0.01172 a 1.3560678,1.3560678 0 0 0 0.002,0 c -0.01383,4.84e-4 0.02174,0.0015 0.105469,-0.002 0.04914,-0.0019 0.09706,-0.0057 0.140625,-0.0078 l -0.01172,0.002 c -0.09829,0.004 -0.09015,0.0049 0.0293,0 a 1.3560678,1.3560678 0 0 0 0.01367,-0.002 c 0.02353,-0.0012 0.04767,-0.0023 0.07422,-0.0039 0.122544,-0.0066 0.141521,-0.01013 0.07227,-0.0059 0.224122,-0.0138 0.451072,-0.0309 0.681641,-0.05469 0.18727,-0.01898 0.361256,-0.04275 0.523438,-0.06445 a 1.3560678,1.3560678 0 0 0 0.0039,0 c 0.01206,-0.0016 0.06249,-0.0078 0.132812,-0.01758 a 1.3560678,1.3560678 0 0 0 0.01172,0.0039 c 1.18027,-0.166776 2.320045,-0.463979 3.402344,-0.86914 l 0.0039,-0.002 c 4.55e-4,-2.02e-4 0.01018,-0.0032 0.01172,-0.0039 0.06182,-0.02322 0.11817,-0.05811 0.179687,-0.08203 -1.75e-4,9.6e-5 0.0022,-0.0021 0.002,-0.002 0.688799,-0.267984 1.364239,-0.569067 2.007813,-0.927735 -0.0363,0.02101 -0.0099,0.0072 0.03711,-0.01953 0.07663,-0.04318 0.15231,-0.08864 0.226563,-0.134765 0.0024,-0.0014 0.0035,-0.0045 0.0059,-0.0059 1.519876,-0.881838 2.889024,-1.997469 4.048828,-3.30664 a 1.3560678,1.3560678 0 0 0 0.03516,-0.07617 c 1.075567,-1.225176 1.982,-2.606408 2.658203,-4.117188 a 1.3560678,1.3560678 0 0 0 0.002,-0.0059 c 0.673596,-1.519176 0.444595,-3.315167 -0.648438,-4.597656 l -2.505859,-2.986329 c 0.910396,-1.332099 1.529297,-2.847171 1.529297,-4.484374 v -1.230469 c 3.4e-5,-1.4727822 -1.222568,-2.6953128 -2.695313,-2.6953128 h -1.230468 c -1.696351,0 -3.277342,0.641152 -4.638672,1.6210938 -1.45859,-0.7129259 -3.06239,-1.1816406 -4.791016,-1.1816406 -1.727359,0 -3.328937,0.4679303 -4.787109,1.1777344 -1.36181,-0.976239 -2.943926,-1.6171876 -4.642578,-1.6171876 z"
     style="fill:#ffffff;fill-opacity:1;filter:url(#filter25)" />
  <path
     d="m 8.0024414,11.57 v -1.23 c 0,-0.74 0.6,-1.34 1.34,-1.34 h 1.2299996 c 1.68174,0 3.30169,0.63554 4.53646,1.76564 1.4356,-0.84254 3.1065,-1.3257 4.8935,-1.3257 1.7893,0 3.4622,0.48437 4.8967,1.33117 C 26.133501,9.63449 27.752101,9 29.432501,9 h 1.23 c 0.74,0 1.34,0.6 1.34,1.34 v 1.23 c 0,1.7167 -0.6623,3.369 -1.8368,4.6129 l 3.1367,3.737 c 0.75,0.88 0.91,2.11 0.44,3.17 -0.643,1.4366 -1.5046,2.7541 -2.5425,3.9101 H 8.8015214 c -1.03632,-1.1537 -1.89677,-2.4678 -2.53908,-3.9001 -0.47,-1.05 -0.3,-2.28 0.44,-3.17 l 3.13878,-3.7448 c -1.17578,-1.2442 -1.83878,-2.8974 -1.83878,-4.6151 z"
     fill="#9b9b9b"
     id="path1" />
  <path
     d="m 27.302401,12.7799 c 0.07,0.07 0.14,0.15 0.2,0.23 l 1.6256,1.9367 c 0.8076,-0.9293 1.2644,-2.1272 1.2644,-3.3666 v -0.62 c 0,-0.19 -0.15,-0.34 -0.34,-0.34 h -0.62 c -1.169,0 -2.287,0.39316 -3.1863,1.11114 0.3782,0.32176 0.7314,0.67246 1.0563,1.04876 z"
     fill="#636363"
     id="path2" />
  <path
     d="m 13.756521,11.72301 c -0.90098,-0.71308 -2.02436,-1.11302 -3.18409,-1.11302 H 9.9524314 c -0.19,0 -0.34,0.15 -0.34,0.34 v 0.62 c 0,1.24021 0.4573996,2.43891 1.2736196,3.36851 l 1.61639,-1.9286 c 0.03,-0.04 0.0625,-0.08 0.095,-0.12 0.0325,-0.04 0.065,-0.08 0.095,-0.12 0.32765,-0.3755 0.68343,-0.7256 1.06408,-1.04689 z"
     fill="#636363"
     id="path3" />
  <path
     d="m 15.782401,17.5 h -0.08 c -1.11,0 -2.14998,0.49 -2.86998,1.33 l -2.59,2.98 c -1.2299996,1.42 -1.7699996,3.28 -1.4899996,5.13 2.5523996,2.8811 6.1984796,4.7714 10.2964796,5.0292 0.0509,0.0044 0.1021,0.008 0.1535,0.0108 0.0607,0.0023 0.1214,0.0045 0.182,0.0067 0.0293,0.0012 0.0587,0.0023 0.088,0.0033 0.1792,0.0059 0.3568,0.01 0.53,0.01 0.1808,0 0.3663,-0.0048 0.55,-0.0111 V 31.99 c 0.0703,-0.0025 0.1404,-0.0054 0.2104,-0.0088 0.0099,-4e-4 0.0198,-8e-4 0.0296,-0.0012 0.024,-0.0012 0.0479,-0.0026 0.0718,-0.0041 4.1435,-0.2302 7.8326,-2.1286 10.4082,-5.0359 0.28,-1.85 -0.26,-3.71 -1.49,-5.13 l -2.59,-2.98 c -0.72,-0.84 -1.76,-1.33 -2.87,-1.33 h -0.08 c -2.03,0.04 -3.68,1.74 -3.69,3.8 v 2.1 h -1.08 v -2.1 c -0.01,-2.06 -1.66,-3.76 -3.69,-3.8 z"
     fill="#d3d3d3"
     id="path4" />
  <path
     d="m 14.062401,19.88 c 0.4,-0.48 1.01,-0.78 1.69,-0.77 1.17,0.02 2.1,1.01 2.1,2.19 v 2.1346 c -1.8202,0.2486 -3.23,1.8092 -3.23,3.7054 0,2.538 1.9602,4.6469 4.4842,4.8339 -0.423,-0.0248 -0.8413,-0.067 -1.2542,-0.1259 v 0.002 c -1.7264,-0.244 -3.3648,-0.7872 -4.84904,-1.572 -0.17575,-0.0926 -0.34943,-0.1887 -0.52094,-0.288 V 29.9838 C 10.049501,28.451 9.5512314,25.0722 11.462431,22.87 Z"
     fill="#636363"
     id="path5" />
  <path
     d="m 19.267301,31.9824 c 0.2335,0.0112 0.4683,0.0171 0.7044,0.0176 -0.2296,-7e-4 -0.4667,-0.0088 -0.7044,-0.0176 z"
     fill="#636363"
     id="path6" />
  <path
     d="m 20.034501,32 c 0.2286,-5e-4 0.4563,-0.0063 0.6827,-0.0171 -0.2259,0.0085 -0.4577,0.0164 -0.6827,0.0171 z"
     fill="#636363"
     id="path7" />
  <path
     d="m 20.924201,31.9716 c 0.4207,-0.0259 0.837,-0.0692 1.2482,-0.1287 V 31.85 c 1.84,-0.26 3.58,-0.86 5.14,-1.73 2.63,-1.46 3.22,-4.98 1.25,-7.25 l -2.6,-2.99 c -0.4,-0.48 -1.01,-0.78 -1.69,-0.77 -1.17,0.02 -2.1,1.01 -2.1,2.19 v 2.1387 c 1.8129,0.2621 3.2,1.8239 3.2,3.7013 0,2.5358 -1.9416,4.6368 -4.4482,4.8316 z"
     fill="#636363"
     id="path8" />
  <path
     d="m 16.000001,20 c -0.5523,0 -1,0.4477 -1,1 v 1 c 0,0.5523 0.4477,1 1,1 0.5523,0 1,-0.4477 1,-1 v -1 c 0,-0.5523 -0.4477,-1 -1,-1 z"
     fill="#212121"
     id="path9" />
  <path
     d="m 24.000001,20 c -0.5523,0 -1,0.4477 -1,1 v 1 c 0,0.5523 0.4477,1 1,1 0.5523,0 1,-0.4477 1,-1 v -1 c 0,-0.5523 -0.4477,-1 -1,-1 z"
     fill="#212121"
     id="path10" />
  <path
     d="m 21.502401,29.6801 c -0.6,0 -1.13,-0.26 -1.5,-0.68 -0.37,0.42 -0.9,0.68 -1.5,0.68 -1.1,0 -2,-0.9 -2,-2 0,-0.28 0.22,-0.5 0.5,-0.5 0.28,0 0.5,0.22 0.5,0.5 0,0.55 0.45,1 1,1 0.55,0 1,-0.45 1,-1 0,-0.28 0.22,-0.5 0.5,-0.5 0.28,0 0.5,0.22 0.5,0.5 0,0.55 0.45,1 1,1 0.55,0 1,-0.45 1,-1 0,-0.28 0.22,-0.5 0.5,-0.5 0.28,0 0.5,0.22 0.5,0.5 0,1.1 -0.9,2 -2,2 z"
     fill="#212121"
     id="path11" />
  <path
     d="m 19.322501,26.32 -1.25,-1.26 c -0.61,-0.61 -0.18,-1.66 0.68,-1.66 h 2.5 c 0.86,0 1.29,1.05 0.68,1.66 l -1.25,1.26 c -0.37,0.38 -0.98,0.38 -1.36,0 z"
     fill="#212121"
     id="path12" />
</svg>
