<?xml version="1.0" encoding="UTF-8" standalone="no"?>
<svg
   width="40"
   height="40"
   viewBox="0 0 40 40"
   fill="none"
   version="1.1"
   id="svg13"
   xmlns:xlink="http://www.w3.org/1999/xlink"
   xmlns="http://www.w3.org/2000/svg"
   xmlns:svg="http://www.w3.org/2000/svg">
  <defs
     id="defs13">
    <filter
       style="color-interpolation-filters:sRGB"
       id="filter27"
       x="-0.073955494"
       y="-0.090766731"
       width="1.147911"
       height="1.1815335">
      <feFlood
         result="flood"
         in="SourceGraphic"
         flood-opacity="0.498039"
         flood-color="rgb(0,0,0)"
         id="feFlood26" />
      <feGaussianBlur
         result="blur"
         in="SourceGraphic"
         stdDeviation="1.000000"
         id="feGaussianBlur26" />
      <feOffset
         result="offset"
         in="blur"
         dx="0.000000"
         dy="0.000000"
         id="feOffset26" />
      <feComposite
         result="comp1"
         operator="in"
         in="flood"
         in2="offset"
         id="feComposite26" />
      <feComposite
         result="comp2"
         operator="over"
         in="SourceGraphic"
         in2="comp1"
         id="feComposite27" />
    </filter>
  </defs>
  <path
     xlink:href="#path14"
     id="path26"
     d="m 19.220703,6.7792969 c -1.162219,0 -2.015984,1.2392538 -1.609375,2.3242187 l 0.777344,2.0761724 c 0.258647,0.689392 0.96355,1.117187 1.611328,1.117187 0.647778,0 1.3528,-0.427688 1.611328,-1.117187 L 22.388672,9.1035156 C 22.795281,8.0185509 21.941516,6.7792969 20.779297,6.7792969 Z m -3.574219,0.84375 c -0.330816,0.018938 -0.68421,0.142758 -0.970703,0.3710937 a 1.220461,1.220461 0 0 0 -0.002,0.00195 l -1.216797,0.9707032 c -0.906014,0.7247008 -0.807397,2.2240681 0.189453,2.8203121 l 1.902344,1.138672 c 0.631498,0.377816 1.450407,0.273112 1.957031,-0.130859 0.506625,-0.403971 0.789757,-1.177205 0.5625,-1.876953 L 17.382812,8.8085938 C 17.13512,8.0464043 16.387907,7.5806389 15.646484,7.6230469 Z m 8.501953,0 c -0.665074,0.040284 -1.30793,0.4977317 -1.53125,1.1855469 l -0.685546,2.1093752 c -0.227257,0.699748 0.05588,1.472982 0.5625,1.876953 0.506624,0.403971 1.325533,0.508675 1.957031,0.130859 l 1.902344,-1.138672 c 0.99679,-0.596272 1.095523,-2.0955884 0.189453,-2.8203121 l -0.002,-0.00195 -1.214844,-0.9687501 a 1.220461,1.220461 0 0 0 -0.002,-0.00195 C 24.976439,7.7169612 24.544215,7.5990738 24.148437,7.6230469 Z M 12.060547,12.03125 c -1.279101,-0.04939 -2.3190667,0.818738 -2.7382814,1.876953 -0.1190877,-0.01005 -0.221541,-0.07446 -0.34375,-0.06836 -0.6762386,0.03367 -1.3231566,0.272859 -1.8398437,0.732422 -0.49006,0.435879 -0.8204514,1.129567 -0.8222657,1.873046 -0.836859,0.122762 -1.5725809,0.550511 -2.0039062,1.152344 -0.4458082,0.622041 -0.5922528,1.357968 -0.5097656,2.046875 a 1.220461,1.220461 0 0 0 0.00195,0.01758 l 1,7.5 a 1.220461,1.220461 0 0 0 0.011719,0.07813 c 0.5962564,2.981282 3.0720163,5.980469 6.6972658,5.980469 2.63319,0 5.042514,-1.85925 5.683594,-4.423828 0.729923,-2.919435 2.655367,-5.767052 2.808593,-5.992188 0.153295,0.225042 2.080813,3.073165 2.810547,5.992188 0.641189,2.564487 3.050404,4.423828 5.683594,4.423828 3.625227,0 6.101007,-2.999178 6.697266,-5.980469 a 1.220461,1.220461 0 0 0 0.01172,-0.07813 l 1,-7.5 a 1.220461,1.220461 0 0 0 0.002,-0.01758 c 0.08268,-0.689953 -0.06528,-1.425236 -0.511718,-2.046875 -0.431606,-0.600987 -1.16602,-1.029237 -2.001953,-1.152344 -0.0018,-0.743478 -0.332206,-1.437167 -0.822266,-1.873046 -0.516687,-0.459563 -1.163605,-0.698749 -1.839844,-0.732422 -0.120072,-0.006 -0.220821,0.0568 -0.33789,0.06641 -0.418629,-1.059282 -1.46501,-1.924401 -2.744141,-1.875 -0.795903,0.03072 -1.542185,0.41589 -2.005859,0.984375 -0.03097,0.03797 -0.01622,0.09363 -0.04492,0.132813 -0.04634,-0.0139 -0.09997,-0.03313 -0.138672,-0.04297 0.0261,0.0066 -0.0037,-0.0022 -0.08203,-0.01953 -0.244298,-0.05388 -0.516572,-0.07733 -0.796875,-0.05078 -0.115179,0.0109 -0.220622,0.02923 -0.31836,0.05078 a 1.220461,1.220461 0 0 0 -0.01367,0.01172 c -1.255451,0.284095 -2.418231,1.428115 -2.267578,3.017578 a 1.220461,1.220461 0 0 0 0.002,0.01953 l 0.185547,1.671875 C 22.286064,17.790589 22.099033,17.779297 22,17.779297 c -0.263989,0 -0.514319,0.04869 -0.744141,0.125 -0.0027,7.59e-4 -0.0099,0.0015 -0.01172,0.002 -0.0028,7.85e-4 -0.01751,0.0058 -0.01758,0.0059 l 0.01172,-0.0059 c -0.09065,0.03022 -0.06234,0.02221 -0.03125,0.01172 -8.91e-4,3.16e-4 -0.0011,0.0016 -0.002,0.002 l -0.0078,0.002 c -0.141849,0.05107 -0.267342,0.111465 -0.376954,0.171875 a 1.220461,1.220461 0 0 0 -0.0059,0.0098 c -0.331639,0.184696 -0.441084,0.605986 -0.675781,0.916015 -0.258298,-0.387938 -0.575175,-0.723021 -0.97461,-0.9375 a 1.220461,1.220461 0 0 0 -0.0039,-0.0059 c -0.02554,-0.01375 0.0014,0.0019 -0.0059,-0.002 -0.01164,-0.0061 -0.04281,-0.0246 -0.0078,-0.0059 a 1.220461,1.220461 0 0 0 -0.002,0 1.220461,1.220461 0 0 0 -0.01953,-0.0098 c -0.09994,-0.05149 -0.204981,-0.09819 -0.3125,-0.136719 h -0.002 c 6.78e-4,2.14e-4 -0.01338,-0.0063 -0.04687,-0.01758 a 1.220461,1.220461 0 0 0 -0.0059,-0.002 c -0.121111,-0.04022 -0.235115,-0.0667 -0.34375,-0.08594 a 1.220461,1.220461 0 0 0 -0.0039,-0.002 c -0.114077,-0.01988 -0.248405,-0.03516 -0.396484,-0.03516 -0.101221,0 -0.284086,0.0089 -0.472656,0.02539 l 0.185546,-1.669921 a 1.220461,1.220461 0 0 0 0.002,-0.01953 c 0.0763,-0.804978 -0.228561,-1.545946 -0.669922,-2.05664 -0.404556,-0.468107 -0.932663,-0.743753 -1.50586,-0.896485 a 1.220461,1.220461 0 0 0 -0.126953,-0.08203 c -0.209729,-0.04523 -0.217285,-0.0437 -0.02539,-0.0039 a 1.220461,1.220461 0 0 0 -0.0098,-0.002 c -0.06888,-0.01371 -0.156577,-0.02901 -0.261719,-0.03906 -0.15037,-0.01429 -0.290814,-0.01294 -0.419922,-0.0039 0.174125,-0.01228 0.163612,-0.01203 -0.0059,0 a 1.220461,1.220461 0 0 0 -0.0039,0 c -0.109123,0.0081 -0.123957,0.01176 -0.04102,0.0039 -0.113255,0.01022 -0.228974,0.02805 -0.345703,0.05469 0.03776,-0.0088 0.04669,-0.01161 -0.02539,0.0059 -0.242829,0.05906 -0.278184,0.07266 -0.03516,0.0098 l 0.01367,-0.002 c -0.038,0.0094 -0.102979,0.03192 -0.154297,0.04687 -0.02905,-0.03971 -0.01355,-0.0963 -0.04492,-0.134766 -0.463674,-0.568482 -1.209958,-0.953656 -2.005859,-0.984375 z m -1.111328,1.263672 c 0.01432,0.0072 -0.01172,0.01758 -0.03906,0.01563 z m 11.412109,4.511719 c -7.2e-4,5.3e-5 0.05614,4.11e-4 0.111328,0.002 v 0.002 c -0.05468,-0.0016 -0.11063,-0.004 -0.111328,-0.0039 z m 0.195313,0.0039 c 0.01663,4.52e-4 0.05092,0.002 0.05078,0.002 l 0.0039,0.002 c -1.28e-4,-5e-6 -0.0037,8e-6 -0.0039,0 -0.02191,-0.0029 -0.02952,-0.0015 -0.05078,-0.0039 z"
     style="fill:#ffffff;fill-opacity:1;filter:url(#filter27)" />
  <path
     d="m 13.512802,15 c 0.0046,-0.9392 -0.55431,-1.7135 -1.5,-1.75 -0.96578,-0.0373 -1.67865,0.7842 -1.71594,1.75 v 0.6358 c -0.29025,-0.3721 -0.7510895,-0.6018 -1.2582395,-0.5765 -0.8274,0.0412 -1.56702,0.6133 -1.52582,1.4407 V 18 c -0.30636,-0.2569 -0.54512,-0.4199 -0.97345,-0.3686 -1.15904,0.1388 -1.625033,1.0461 -1.52655,1.8686 l 1,7.5 c 0.5,2.5 2.56857,5 5.4999995,5 2,0 4.01418,-1.5566 4.49998,-3.5 0.8392,-3.3565 3.0858,-6.5469 3.0858,-6.5469 1,-1.5 -0.0858,-2.9531 -1.0858,-2.9531 -0.5,0 -1.5,0 -2,1.5 l 0.5,-4.5 c 0.0912,-0.9622 -0.7578,-1.6797 -1.5,-1.75 -0.6051,-0.0573 -1.1433,0.3113 -1.49998,0.75 z"
     fill="#ffc83d"
     id="path1" />
  <path
     d="m 26.499982,15 c -0.0046,-0.9392 0.5543,-1.7135 1.5,-1.75 0.9658,-0.0373 1.6787,0.7842 1.7159,1.75 v 0.6358 c 0.2903,-0.3721 0.7511,-0.6018 1.2583,-0.5765 0.8274,0.0412 1.567,0.6133 1.5258,1.4407 V 18 c 0.3064,-0.2569 0.5451,-0.4199 0.9735,-0.3686 1.159,0.1388 1.625,1.0461 1.5265,1.8686 l -1,7.5 c -0.5,2.5 -2.5686,5 -5.5,5 -2,0 -4.0141,-1.5566 -4.5,-3.5 -0.8391,-3.3565 -3.0858,-6.5469 -3.0858,-6.5469 -1,-1.5 0.0858,-2.9531 1.0858,-2.9531 0.5,0 1.5,0 2,1.5 l -0.5,-4.5 c -0.0912,-0.9622 0.7578,-1.6797 1.5,-1.75 0.6051,-0.0573 1.1433,0.3113 1.5,0.75 z"
     fill="#ffc83d"
     id="path2" />
  <path
     d="m 15.167582,14.2737 c -0.0519,-0.0109 -0.1036,-0.0188 -0.1548,-0.0237 -0.5894,-0.0558 -1.11543,0.2926 -1.47196,0.7162 -0.01543,0.072 -0.02798,0.1468 -0.03728,0.2243 -0.07805,0.6504 -0.2274,3.5946 -0.26892,4.8714 -0.009,0.276 0.20748,0.507 0.48348,0.516 0.276,0.009 0.50698,-0.2075 0.51598,-0.4835 0.0418,-1.2857 0.1904,-4.1852 0.2623,-4.7848 0.0666,-0.5548 0.3574,-0.8154 0.6712,-1.0359 z"
     fill="#d67d00"
     id="path3" />
  <path
     d="M 10.296862,15.6306 V 15 c 0.0082,-0.2123 0.04906,-0.4177 0.11807,-0.6084 0.36789,0.1783 0.64775,0.5488 0.83151,0.879 0.20929,0.376 0.36559,0.8288 0.40016,1.2338 0.07459,0.8737 0.13653,2.7774 0.1189,3.6541 -0.0055,0.2761 -0.23386,0.4954 -0.50995,0.4899 -0.27609,-0.0056 -0.4954,-0.2339 -0.48985,-0.51 0.01693,-0.8416 -0.04387,-2.7102 -0.11547,-3.5489 -0.02011,-0.2356 -0.12163,-0.5524 -0.27758,-0.8326 -0.02545,-0.0458 -0.05081,-0.0878 -0.07579,-0.1263 z"
     fill="#d67d00"
     id="path4" />
  <path
     d="m 7.4630525,17.9587 c 0.01641,0.0135 0.03298,0.0273 0.04975,0.0413 v -1.1932 c 0.38409,0.1325 0.70555,0.4626 0.9279,0.7651 0.25485,0.3468 0.46678,0.7763 0.55195,1.1738 0.18385,0.8581 0.36828,2.0257 0.45784,2.8986 0.02818,0.2747 -0.17166,0.5203 -0.44636,0.5485 -0.2747,0.0281 -0.52023,-0.1717 -0.54842,-0.4464 -0.08585,-0.8368 -0.26462,-1.9686 -0.44087,-2.7912 -0.04954,-0.2312 -0.19003,-0.5327 -0.37994,-0.7911 -0.06004,-0.0817 -0.11799,-0.1497 -0.17185,-0.2054 z"
     fill="#d67d00"
     id="path5" />
  <path
     d="M 16.077082,20.3222 C 16.594282,19 17.533382,19 18.012782,19 c 0.1919,0 0.387,0.0536 0.5699,0.1507 l 0.0038,0.0338 c -0.3234,0.0359 -0.6749,0.1692 -0.9819,0.4747 -0.308,0.3065 -0.6026,0.8181 -0.753,1.6628 -0.0483,0.2719 -0.308,0.4531 -0.5798,0.4047 -0.2719,-0.0484 -0.4531,-0.308 -0.4047,-0.5799 0.0534,-0.3 0.1241,-0.5744 0.21,-0.8246 z"
     fill="#d67d00"
     id="path6" />
  <path
     d="m 26.446382,14.9362 c -0.3559,-0.4099 -0.8709,-0.7407 -1.4464,-0.6862 -0.056,0.0053 -0.1126,0.0143 -0.1693,0.0268 0.3121,0.2199 0.6004,0.4806 0.6667,1.0328 0.0719,0.5996 0.2205,3.4991 0.2623,4.7848 0.009,0.276 0.24,0.4925 0.516,0.4835 0.276,-0.009 0.4925,-0.24 0.4835,-0.516 -0.0415,-1.2768 -0.1909,-4.221 -0.2689,-4.8714 -0.0106,-0.0883 -0.0254,-0.173 -0.0439,-0.2543 z"
     fill="#d67d00"
     id="path7" />
  <path
     d="m 21.409882,19.1616 c 0.1887,-0.104 0.3911,-0.1616 0.5901,-0.1616 0.4424,0 1.2762,0 1.8088,1.039 0.1358,0.3222 0.2436,0.6902 0.3179,1.1078 0.0484,0.2719 -0.1328,0.5315 -0.4046,0.5799 -0.2719,0.0484 -0.5315,-0.1328 -0.5799,-0.4047 -0.1503,-0.8447 -0.4449,-1.3563 -0.753,-1.6628 -0.3069,-0.3055 -0.6585,-0.4388 -0.9818,-0.4747 z"
     fill="#d67d00"
     id="path8" />
  <path
     d="m 32.499982,16.8004 v 1.191 c -0.0449,0.049 -0.0923,0.1063 -0.1411,0.1727 -0.1899,0.2584 -0.3304,0.5599 -0.3799,0.7911 -0.0862,0.4021 -0.1964,1.0979 -0.2865,1.7061 -0.0447,0.3014 -0.0838,0.5767 -0.1117,0.7768 -0.014,0.1 -0.0251,0.1812 -0.0328,0.2372 l -0.0116,0.0853 -10e-5,0.001 c -0.0368,0.2737 -0.2885,0.4661 -0.5622,0.4293 -0.2737,-0.0368 -0.4657,-0.2884 -0.429,-0.5621 l 0.0121,-0.0889 c 0.0078,-0.0569 0.0191,-0.1389 0.0332,-0.24 0.0282,-0.202 0.0677,-0.4803 0.1129,-0.7852 0.0895,-0.6041 0.204,-1.3308 0.2979,-1.769 0.0851,-0.3975 0.297,-0.827 0.5519,-1.1738 0.226,-0.3075 0.5544,-0.6435 0.9469,-0.7715 z"
     fill="#d67d00"
     id="path9" />
  <path
     d="m 29.595082,14.3839 c 0.0707,0.1929 0.1125,0.4009 0.1208,0.6161 v 0.6018 c -0.031,0.0461 -0.0628,0.0977 -0.0947,0.1551 -0.156,0.2802 -0.2575,0.597 -0.2776,0.8326 -0.035,0.41 -0.0641,1.2939 -0.0844,2.092 -0.01,0.3954 -0.0178,0.7643 -0.0231,1.0344 -0.0026,0.135 -0.0046,0.2453 -0.0059,0.3217 l -0.002,0.1185 c -0.0045,0.2761 -0.2319,0.4968 -0.508,0.4923 -0.2761,-0.0044 -0.4964,-0.2318 -0.4919,-0.5079 l 0.002,-0.1204 c 0.0014,-0.077 0.0034,-0.188 0.006,-0.3237 0.0053,-0.2714 0.0131,-0.6424 0.0233,-1.0403 0.02,-0.7886 0.0495,-1.7055 0.0876,-2.1517 0.0346,-0.405 0.1909,-0.8578 0.4002,-1.2338 0.1864,-0.335 0.4718,-0.7115 0.8477,-0.8867 z"
     fill="#d67d00"
     id="path10" />
  <path
     d="m 19.531782,10.75156 -0.7785,-2.076 C 18.630782,8.34869 18.872382,8 19.221482,8 h 1.557 c 0.3491,0 0.5907,0.34869 0.4682,0.67556 l -0.7785,2.076 c -0.1622,0.43259 -0.7741,0.43259 -0.9364,0 z"
     fill="#46a4fb"
     id="path11" />
  <path
     d="m 23.091882,11.29485 0.6852,-2.10866 c 0.1078,-0.33202 0.5141,-0.45408 0.7871,-0.2365 l 1.2176,0.97044 c 0.273,0.21759 0.2446,0.64087 -0.055,0.82009 l -1.9027,1.13822 c -0.3964,0.23716 -0.8749,-0.1442 -0.7322,-0.58359 z"
     fill="#46a4fb"
     id="path12" />
  <path
     d="m 16.908082,11.29485 -0.6851,-2.10866 c -0.1079,-0.33202 -0.5142,-0.45408 -0.7872,-0.2365 l -1.2176,0.97044 c -0.27299,0.21759 -0.24463,0.64087 0.055,0.82009 l 1.9027,1.13822 c 0.3964,0.23716 0.8749,-0.1442 0.7322,-0.58359 z"
     fill="#46a4fb"
     id="path13" />
</svg>
