<?xml version="1.0" encoding="UTF-8" standalone="no"?>
<svg
   width="40"
   height="40"
   viewBox="0 0 40 40"
   fill="none"
   version="1.1"
   id="svg5"
   xmlns:xlink="http://www.w3.org/1999/xlink"
   xmlns="http://www.w3.org/2000/svg"
   xmlns:svg="http://www.w3.org/2000/svg">
  <defs
     id="defs5">
    <filter
       style="color-interpolation-filters:sRGB"
       id="filter11"
       x="-0.077433991"
       y="-0.077433991"
       width="1.154868"
       height="1.154868">
      <feFlood
         result="flood"
         in="SourceGraphic"
         flood-opacity="0.498039"
         flood-color="rgb(0,0,0)"
         id="feFlood10" />
      <feGaussianBlur
         result="blur"
         in="SourceGraphic"
         stdDeviation="1.000000"
         id="feGaussianBlur10" />
      <feOffset
         result="offset"
         in="blur"
         dx="0.000000"
         dy="0.000000"
         id="feOffset10" />
      <feComposite
         result="comp1"
         operator="in"
         in="flood"
         in2="offset"
         id="feComposite10" />
      <feComposite
         result="comp2"
         operator="over"
         in="SourceGraphic"
         in2="comp1"
         id="feComposite11" />
    </filter>
  </defs>
  <path
     style="fill:#ffffff;fill-opacity:1;filter:url(#filter11)"
     xlink:href="#path6"
     id="path10"
     d="m 19.998047,4.5019531 c -1.070184,0 -2.07226,0.1010147 -3.03711,0.25 C 15.137585,4.2581138 13.083982,4.794858 11.613281,6.3496094 9.0317957,5.5626546 6.6309265,6.200353 5.4160156,7.8925781 4.1929122,9.5962145 4.2807463,11.977824 5.5664062,13.964844 c -0.6734087,1.881648 -1.0644531,3.903009 -1.0644531,6.033203 0,4.166813 1.2647319,8.057808 3.8945313,10.914062 2.6297996,2.856255 6.5990926,4.583985 11.6015626,4.583985 5.002437,0 8.971264,-1.727796 11.601562,-4.583985 2.630299,-2.856188 3.896485,-6.747118 3.896485,-10.914062 0,-2.129836 -0.391385,-4.150316 -1.064453,-6.03125 1.284795,-1.985736 1.374143,-4.3654674 0.152343,-6.0683595 C 33.369814,6.2061786 30.969537,5.5687827 28.388672,6.3554687 26.922845,4.8051106 24.877562,4.268099 23.058594,4.7539062 22.08682,4.6028162 21.075508,4.5019531 19.998047,4.5019531 Z" />
  <path
     d="m 19.9989,33.9978 c 9.3344,0 13.9989,-6.2675 13.9989,-13.9989 0,-7.73139 -4.6645,-13.9988998 -13.9989,-13.9988998 C 10.66443,6.0000002 6,12.26751 6,19.9989 c 0,7.7314 4.66443,13.9989 13.9989,13.9989 z"
     fill="#ffb02e"
     id="path1" />
  <path
     d="m 20,29 c -9,0 -9,-9 -9,-9 h 18 c 0,0 0,9 -9,9 z"
     fill="#bb1d80"
     id="path2" />
  <path
     d="M 12,20.5 V 20 h 16 v 0.5 c 0,0.5523 -0.4477,1 -1,1 H 13 c -0.55228,0 -1,-0.4477 -1,-1 z"
     fill="#ffffff"
     id="path3" />
  <path
     d="m 7.18104,13.75037 c 2.01599,2.32673 4.69806,3.34563 6.07282,3.73903 0.56313,0.1612 1.15404,-5e-4 1.57104,-0.4118 1.1935,-1.1771 3.5989,-3.87827 4.1131,-6.96229 C 19.656,5.8087202 14.256,4.4958562 12.07985,8.0454202 6.98933,5.6543702 4.296489,10.42127 7.18104,13.75037 Z"
     fill="#f70a8d"
     id="path4" />
  <path
     d="m 32.8172,13.75198 c -2.015,2.32552 -4.6957,3.34412 -6.0699,3.73742 -0.5632,0.1612 -1.1541,-5e-4 -1.5711,-0.4118 -1.1931,-1.1768 -3.5972,-3.87666 -4.1111,-6.95921 -0.7177,-4.3048298 4.6801,-5.6171598 6.8553,-2.0690398 5.0885,-2.39007 7.7802,2.3748798 4.8968,5.7026298 z"
     fill="#f70a8d"
     id="path5" />
</svg>
