<?xml version="1.0" encoding="UTF-8" standalone="no"?>
<svg
   width="40"
   height="40"
   viewBox="0 0 40 40"
   fill="none"
   version="1.1"
   id="svg7"
   xmlns:xlink="http://www.w3.org/1999/xlink"
   xmlns="http://www.w3.org/2000/svg"
   xmlns:svg="http://www.w3.org/2000/svg">
  <defs
     id="defs7">
    <filter
       style="color-interpolation-filters:sRGB"
       id="filter15"
       x="-0.072572644"
       y="-0.07724901"
       width="1.1451453"
       height="1.154498">
      <feFlood
         result="flood"
         in="SourceGraphic"
         flood-opacity="0.498039"
         flood-color="rgb(0,0,0)"
         id="feFlood14" />
      <feGaussianBlur
         result="blur"
         in="SourceGraphic"
         stdDeviation="1.000000"
         id="feGaussianBlur14" />
      <feOffset
         result="offset"
         in="blur"
         dx="0.000000"
         dy="0.000000"
         id="feOffset14" />
      <feComposite
         result="comp1"
         operator="in"
         in="flood"
         in2="offset"
         id="feComposite14" />
      <feComposite
         result="comp2"
         operator="over"
         in="SourceGraphic"
         in2="comp1"
         id="feComposite15" />
    </filter>
  </defs>
  <path
     xlink:href="#path8"
     id="path14"
     d="m 15.998047,0.46484375 c -3.937178,0 -7.1536132,1.14750805 -9.6660158,3.00000005 H 5 C 3.8598227,3.4648437 2.7867935,3.8159065 1.9042969,4.4121094 1.3157963,4.8096923 0.80969243,5.3157959 0.41210938,5.9042969 -0.18409352,6.7867935 -0.53515625,7.8598227 -0.53515625,9 v 0.6738281 c 0,1.4871589 0.44995291,2.8827889 1.1484375,4.1308599 -0.0815073,0.719894 -0.1484375,1.444974 -0.1484375,2.193359 0,4.174425 1.26698755,8.075042 3.90429685,10.939453 2.6373094,2.864411 6.6179624,4.595703 11.6289064,4.595703 5.010911,0 8.993051,-1.73136 11.630859,-4.595703 2.637809,-2.864343 3.904297,-6.764894 3.904297,-10.939453 0,-0.746605 -0.06732,-1.469669 -0.148437,-2.1875 0.700102,-1.248892 1.15039,-2.647429 1.15039,-4.1367189 V 8.5 C 32.535156,5.7371748 30.262825,3.4648438 27.5,3.4648438 H 25.664062 C 23.151652,1.6123503 19.935199,0.46484375 15.998047,0.46484375 Z"
     style="fill:#ffffff;fill-opacity:1;filter:url(#filter15)"
     transform="translate(4,4)" />
  <path
     d="m 19.9989,33.9978 c 9.3344,0 13.9989,-6.2675 13.9989,-13.9989 C 33.9978,12.26751 29.3333,6 19.9989,6 10.66443,6 6,12.26751 6,19.9989 c 0,7.7314 4.66443,13.9989 13.9989,13.9989 z"
     fill="#ffb02e"
     id="path1" />
  <path
     d="m 15.8395,22.4566 c -0.2962,-0.4579 -0.9062,-0.5945 -1.37,-0.3043 -0.4682,0.293 -0.61017,0.9101 -0.3172,1.3782 l 8e-4,0.0012 7e-4,0.0011 0.0016,0.0026 0.0035,0.0055 0.0087,0.0134 c 0.0065,0.0099 0.0143,0.0216 0.0237,0.0352 0.0186,0.027 0.043,0.0612 0.0735,0.1014 0.0611,0.0804 0.1469,0.1852 0.2601,0.3058 0.2265,0.2415 0.563,0.5465 1.0305,0.8456 C 16.4995,25.4464 17.9369,26 20,26 c 2.0632,0 3.5005,-0.5536 4.4446,-1.1577 0.4675,-0.2991 0.804,-0.6041 1.0306,-0.8456 0.1131,-0.1206 0.1989,-0.2254 0.26,-0.3058 0.0305,-0.0402 0.055,-0.0744 0.0736,-0.1014 0.0093,-0.0136 0.0172,-0.0253 0.0236,-0.0352 l 0.0087,-0.0134 0.0036,-0.0055 0.0015,-0.0026 8e-4,-0.0011 7e-4,-0.0012 c 0.2932,-0.468 0.151,-1.0852 -0.3172,-1.3782 -0.4638,-0.2902 -1.0738,-0.1536 -1.3699,0.3043 -0.0024,0.0033 -0.0083,0.0117 -0.018,0.0244 -0.022,0.029 -0.0633,0.0804 -0.126,0.1473 -0.1253,0.1336 -0.336,0.3285 -0.6499,0.5294 C 22.7478,23.5536 21.6852,24 20,24 18.3148,24 17.2522,23.5536 16.6333,23.1577 16.3194,22.9568 16.1088,22.7619 15.9834,22.6283 15.9207,22.5614 15.8794,22.51 15.8574,22.481 15.8477,22.4683 15.8418,22.4599 15.8395,22.4566 Z"
     fill="#402a32"
     id="path2" />
  <path
     d="M 15,9 H 9 C 6.79086,9 5,10.79086 5,13 v 0.67376 C 5,16.3252 6.49802,18.749 8.8695,19.9348 l 0.93584,0.4679 c 1.40195,0.7009 3.04379,0.794 4.51986,0.2669 C 17.1112,19.6746 19,17.0253 19,14.067 V 13 C 19,10.79086 17.2091,9 15,9 Z"
     fill="#321b41"
     id="path3" />
  <path
     d="m 24.5,9 h 7 c 1.933,0 3.5,1.567 3.5,3.5 v 1.17376 c 0,2.65144 -1.498,5.07524 -3.8695,6.26104 l -0.9358,0.4679 c -1.402,0.7009 -3.0438,0.794 -4.5199,0.2669 C 22.8888,19.6746 21,17.0253 21,14.067 V 12.5 C 21,10.567 22.567,9 24.5,9 Z"
     fill="#321b41"
     id="path4" />
  <path
     d="M 18,10.35418 C 17.2671,9.52375 16.1947,9 15,9 H 9 C 6.79086,9 5,10.79086 5,13 v 0.67376 C 5,16.3252 6.49802,18.749 8.8695,19.9348 l 0.93584,0.4679 c 1.40195,0.7009 3.04378,0.794 4.51986,0.2669 C 17.1112,19.6746 19,17.0253 19,14.067 V 14 c 0,-0.55228 0.4477,-1 1,-1 0.5523,0 1,0.44772 1,1 v 0.067 c 0,2.9583 1.8888,5.6076 4.6748,6.6026 1.4761,0.5271 3.1179,0.434 4.5199,-0.2669 l 0.9358,-0.4679 C 33.502,18.749 35,16.3252 35,13.67376 V 12.5 C 35,10.567 33.433,9 31.5,9 h -7 c -1.1241,0 -2.1244,0.52992 -2.7648,1.35357 v -0.0028 C 21.7206,10.36537 21.704,10.3824 21.6855,10.40132 21.4936,10.59759 21.1031,10.9969 20.7395,11 H 18.9957 C 18.6321,10.9969 18.2418,10.59771 18.0499,10.40145 18.0314,10.38253 18.0146,10.36538 18,10.35077 Z M 15,10 c 1.6569,0 3,1.34315 3,3 v 1.067 c 0,2.5305 -1.6183,4.8062 -4.0111,5.6608 -1.22207,0.4365 -2.58074,0.3582 -3.73635,-0.2196 L 9.31672,19.0403 C 7.28401,18.024 6,15.9464 6,13.67376 V 13 c 0,-1.65685 1.34315,-3 3,-3 z m 7,2.5 C 22,11.11929 23.1193,10 24.5,10 h 7 c 1.3807,0 2.5,1.11929 2.5,2.5 v 1.17376 c 0,2.27264 -1.284,4.35024 -3.3167,5.36654 l -0.9359,0.4679 C 28.5918,20.086 27.2332,20.1643 26.0111,19.7278 23.6183,18.8732 22,16.5975 22,14.067 Z"
     fill="#8d65c5"
     id="path5" />
  <path
     d="m 16.3891,14.2678 c 0.5858,-0.58581 0.4275,-1.69385 -0.3535,-2.4749 -0.7811,-0.78104 -1.8891,-0.93934 -2.47491,-0.35355 -0.58579,0.58579 -0.4275,1.69383 0.35355,2.47487 0.78106,0.78108 1.88906,0.93938 2.47486,0.35358 z"
     fill="#ffffff"
     id="path6" />
  <path
     d="m 32.3891,14.2678 c 0.5858,-0.58581 0.4275,-1.69385 -0.3535,-2.4749 -0.7811,-0.78104 -1.8891,-0.93934 -2.4749,-0.35355 -0.5858,0.58579 -0.4275,1.69383 0.3535,2.47487 0.7811,0.78108 1.8891,0.93938 2.4749,0.35358 z"
     fill="#ffffff"
     id="path7" />
</svg>
