<?xml version="1.0" encoding="UTF-8" standalone="no"?>
<svg
   width="40"
   height="40"
   viewBox="0 0 40 40"
   fill="none"
   version="1.1"
   id="svg1"
   xmlns:xlink="http://www.w3.org/1999/xlink"
   xmlns="http://www.w3.org/2000/svg"
   xmlns:svg="http://www.w3.org/2000/svg">
  <defs
     id="defs1">
    <filter
       style="color-interpolation-filters:sRGB"
       id="filter3"
       x="-0.078126741"
       y="-0.083308151"
       width="1.1562535"
       height="1.1666163">
      <feFlood
         result="flood"
         in="SourceGraphic"
         flood-opacity="0.498039"
         flood-color="rgb(0,0,0)"
         id="feFlood2" />
      <feGaussianBlur
         result="blur"
         in="SourceGraphic"
         stdDeviation="1.000000"
         id="feGaussianBlur2" />
      <feOffset
         result="offset"
         in="blur"
         dx="0.000000"
         dy="0.000000"
         id="feOffset2" />
      <feComposite
         result="comp1"
         operator="in"
         in="flood"
         in2="offset"
         id="feComposite2" />
      <feComposite
         result="comp2"
         operator="over"
         in="SourceGraphic"
         in2="comp1"
         id="feComposite3" />
    </filter>
  </defs>
  <path
     xlink:href="#path1"
     id="path2"
     d="m 20.003906,5.5859375 c -1.545144,0 -3.135472,0.8264016 -3.955078,2.3808594 a 1.4150169,1.4150169 0 0 0 -0.002,0.00586 L 13.798828,12.28125 a 1.4150169,1.4150169 0 0 0 -0.0059,0.01172 c -0.117641,0.230892 -0.343556,0.39154 -0.619141,0.429687 l -4.7441405,0.650391 a 1.4150169,1.4150169 0 0 0 -0.00195,0 c -3.6229927,0.49935 -5.0952777,5.184878 -2.4121094,7.660156 l 3.25,3 c 0.2109931,0.195215 0.3019374,0.473448 0.2519531,0.740234 a 1.4150169,1.4150169 0 0 0 -0.00195,0.0098 l -0.7910156,4.396484 c -0.63272,3.510334 3.1686126,6.345198 6.3652346,4.759766 l 4.529297,-2.248047 h 0.002 c 0.237297,-0.115626 0.520515,-0.115626 0.757812,0 L 24.90625,33.9375 c 3.197935,1.600396 7.001968,-1.244858 6.369141,-4.755859 l -0.791016,-4.398438 a 1.4150169,1.4150169 0 0 0 -0.002,-0.0098 c -0.04998,-0.266721 0.04095,-0.544998 0.251953,-0.740234 l 3.248047,-3 a 1.4150169,1.4150169 0 0 0 0.0039,-0.002 c 2.677287,-2.482099 1.206043,-7.159257 -2.414062,-7.658203 a 1.4150169,1.4150169 0 0 0 -0.002,0 l -4.74414,-0.650391 c -0.261114,-0.03615 -0.496245,-0.200605 -0.63086,-0.453125 L 23.953125,7.9726562 a 1.4150169,1.4150169 0 0 0 0,-0.00195 C 23.139382,6.4137541 21.549051,5.5859375 20.003906,5.5859375 Z"
     style="fill:#ffffff;fill-opacity:1;filter:url(#filter3)" />
  <path
     d="m 22.699198,8.6271325 2.2477,4.3090305 c 0.3411,0.63986 0.9633,1.08974 1.6857,1.18974 l 4.7462,0.6499 c 2.5387,0.3499 3.522,3.4792 1.6456,5.2188 l -3.2511,2.9993 c -0.5619,0.5199 -0.8228,1.2897 -0.6823,2.0395 l 0.7927,4.399 c 0.4415,2.4495 -2.1072,4.3591 -4.3448,3.2393 l -4.5355,-2.2495 c -0.6321,-0.3099 -1.3747,-0.3099 -2.0068,0 l -4.5355,2.2495 c -2.23763,1.1098 -4.7863296,-0.7898 -4.34482,-3.2393 l 0.7927,-4.399 c 0.14048,-0.7498 -0.12041,-1.5196 -0.68233,-2.0395 L 6.9755584,19.994602 c -1.8764,-1.729599 -0.89305,-4.868899 1.64562,-5.218799 l 4.7461896,-0.6499 c 0.72243,-0.1 1.35463,-0.53989 1.68573,-1.18974 l 2.2477,-4.3090305 c 1.1439,-2.16951 4.2645,-2.16951 5.3984,0 z"
     fill="#fcd53f"
     id="path1" />
</svg>
