<?xml version="1.0" encoding="UTF-8" standalone="no"?>
<svg
   width="40"
   height="40"
   viewBox="0 0 40 40"
   fill="none"
   version="1.1"
   id="svg10"
   xmlns:xlink="http://www.w3.org/1999/xlink"
   xmlns="http://www.w3.org/2000/svg"
   xmlns:svg="http://www.w3.org/2000/svg">
  <defs
     id="defs10">
    <filter
       style="color-interpolation-filters:sRGB"
       id="filter21"
       x="-0.076479741"
       y="-0.074111744"
       width="1.1529595"
       height="1.1482235">
      <feFlood
         result="flood"
         in="SourceGraphic"
         flood-opacity="0.498039"
         flood-color="rgb(0,0,0)"
         id="feFlood20" />
      <feGaussianBlur
         result="blur"
         in="SourceGraphic"
         stdDeviation="1.000000"
         id="feGaussianBlur20" />
      <feOffset
         result="offset"
         in="blur"
         dx="0.000000"
         dy="0.000000"
         id="feOffset20" />
      <feComposite
         result="comp1"
         operator="in"
         in="flood"
         in2="offset"
         id="feComposite20" />
      <feComposite
         result="comp2"
         operator="over"
         in="SourceGraphic"
         in2="comp1"
         id="feComposite21" />
    </filter>
  </defs>
  <path
     xlink:href="#path11"
     id="path20"
     d="m 19.998047,4.3085937 c -2.318295,0 -4.400891,0.3800803 -6.253906,1.0566407 -1.820844,0.085566 -3.09517,0.8881214 -3.7929691,1.5859375 C 9.6773009,7.2250294 9.5372665,7.5746572 9.4394531,7.9296875 6.033327,10.862001 4.3085937,15.241249 4.3085937,19.998047 c 0,2.757059 0.6374583,5.343668 1.7675782,7.654297 -1.0824685,2.363459 -0.8966295,5.356879 1.3671875,7.167968 C 9.8997854,36.785517 12.575252,36.691406 14,36.691406 h 2.763672 c 0.868434,0 1.572886,-0.447682 2.113281,-1.0625 0.373222,0.02116 0.730304,0.06055 1.121094,0.06055 5.045826,0 9.07539,-1.748542 11.74414,-4.646484 2.668751,-2.897943 3.947266,-6.838989 3.947266,-11.044922 0,-4.205929 -1.278447,-8.147463 -3.947266,-11.044922 C 29.073369,6.0556657 25.043756,4.3085937 19.998047,4.3085937 Z"
     style="fill:#ffffff;fill-opacity:1;filter:url(#filter21)" />
  <path
     d="m 19.9989,33.9978 c 9.3344,0 13.9989,-6.2675 13.9989,-13.9989 C 33.9978,12.26751 29.3333,6 19.9989,6 10.66443,6 6,12.26751 6,19.9989 c 0,7.7314 4.66443,13.9989 13.9989,13.9989 z"
     fill="#ffb02e"
     id="path1" />
  <path
     d="m 13.99994,25.5 v -3.0607 c 0,-0.7949 -0.6444,-1.4393 -1.43932,-1.4393 -0.84075,0 -1.5052,0.7181 -1.51746,1.5588 -0.01987,1.3614 -0.20806,3.1628 -1.04321,3.4412 -3.0001,1 -3.99996,5.5 -1.50001,7.5 2.00006,1.6001 4,1.5 5.5,1.5 h 2.76396 c 0.6826,0 1.236,-0.5534 1.236,-1.2361 0,-0.4682 -0.2645,-0.8962 -0.6832,-1.1055 L 16.9999,32.5 h 0.7193 c 0.4589,0 0.8589,-0.3123 0.9702,-0.7575 l 0.068,-0.2724 C 18.8806,30.9774 18.5079,30.5 17.9999,30.5 l 0.3292,-0.1646 c 0.4111,-0.2056 0.6708,-0.6258 0.6708,-1.0854 0,-0.4596 -0.2597,-0.8798 -0.6708,-1.0854 L 17.9999,28 h 1.75 c 0.6904,0 1.25,-0.5596 1.25,-1.25 0,-0.6904 -0.5596,-1.25 -1.25,-1.25 z"
     fill="#ffb02e"
     id="path2" />
  <path
     d="m 14.4191,20.2244 c 2.3229,0 4.206,-1.883 4.206,-4.2059 0,-2.32293 -1.8831,-4.206 -4.206,-4.206 -2.32289,0 -4.20597,1.88307 -4.20597,4.206 0,2.3229 1.88308,4.2059 4.20597,4.2059 z"
     fill="#ffffff"
     id="path3" />
  <path
     d="m 25.5683,20.3011 c 2.344,0 4.2443,-1.9002 4.2443,-4.2443 0,-2.34406 -1.9003,-4.2443 -4.2443,-4.2443 -2.3441,0 -4.2443,1.90024 -4.2443,4.2443 0,2.3441 1.9002,4.2443 4.2443,4.2443 z"
     fill="#ffffff"
     id="path4" />
  <path
     d="m 13.99994,25.5 v -3.0607 c 0,-0.7949 -0.6444,-1.4393 -1.43932,-1.4393 -0.84075,0 -1.5052,0.7181 -1.51746,1.5588 -0.01987,1.3614 -0.20806,3.1628 -1.04321,3.4412 -3.0001,1 -3.99996,5.5 -1.50001,7.5 2.00006,1.6001 4,1.5 5.5,1.5 h 2.76396 c 0.6826,0 1.236,-0.5534 1.236,-1.2361 0,-0.4682 -0.2645,-0.8962 -0.6832,-1.1055 L 16.9999,32.5 h 0.7193 c 0.4589,0 0.8589,-0.3123 0.9702,-0.7575 l 0.068,-0.2724 C 18.8806,30.9774 18.5079,30.5 17.9999,30.5 l 0.3292,-0.1646 c 0.4111,-0.2056 0.6708,-0.6258 0.6708,-1.0854 0,-0.4596 -0.2597,-0.8798 -0.6708,-1.0854 L 17.9999,28 h 1.75 c 0.6904,0 1.25,-0.5596 1.25,-1.25 0,-0.6904 -0.5596,-1.25 -1.25,-1.25 z"
     fill="#ff822d"
     id="path5" />
  <path
     d="M 11.14645,8.14645 C 11.54338,7.74951 12.63008,7 14,7 c 1.3699,0 2.4566,0.74951 2.8536,1.14645 0.1952,0.19526 0.1952,0.51184 0,0.7071 -0.1953,0.19527 -0.5119,0.19527 -0.7072,0 C 15.8767,8.58382 15.0301,8 14,8 c -1.03008,0 -1.87671,0.58382 -2.14645,0.85355 -0.19526,0.19527 -0.51184,0.19527 -0.7071,0 -0.19527,-0.19526 -0.19527,-0.51184 0,-0.7071 z"
     fill="#402a32"
     id="path6" />
  <path
     d="M 22.1799,12.11589 C 22.6506,11.72368 23.9203,11 25.5,11 c 1.5797,0 2.8494,0.72368 3.3201,1.11589 0.2121,0.17678 0.2408,0.49206 0.064,0.7042 -0.1768,0.21214 -0.4921,0.2408 -0.7042,0.06402 C 27.8506,12.60966 26.8003,12 25.5,12 c -1.3003,0 -2.3506,0.60966 -2.6799,0.88411 -0.2121,0.17678 -0.5274,0.14812 -0.7042,-0.06402 -0.1768,-0.21214 -0.1481,-0.52742 0.064,-0.7042 z"
     fill="#402a32"
     id="path7" />
  <path
     d="m 17,15.5 c 0,1.6569 -1.3431,3 -3,3 -1.65685,0 -3,-1.3431 -3,-3 0,-1.65685 1.34315,-3 3,-3 1.6569,0 3,1.34315 3,3 z"
     fill="#402a32"
     id="path8" />
  <path
     d="m 28,15.5 c 0,1.6569 -1.3431,3 -3,3 -1.6569,0 -3,-1.3431 -3,-3 0,-1.65685 1.3431,-3 3,-3 1.6569,0 3,1.34315 3,3 z"
     fill="#402a32"
     id="path9" />
  <path
     d="m 20.0815,22.9857 c -1.1702,-0.2 -2.0195,0.3665 -2.3744,0.7214 -0.3905,0.3905 -1.0237,0.3905 -1.4142,0 -0.3905,-0.3905 -0.3905,-1.0237 0,-1.4142 0.6451,-0.6451 2.1123,-1.6228 4.1256,-1.2786 1.963,0.3356 2.9739,1.4563 3.4885,2.5646 0.2326,0.5009 0.015,1.0955 -0.4859,1.3281 -0.5009,0.2326 -1.0955,0.015 -1.3281,-0.4859 -0.2807,-0.6046 -0.791,-1.2267 -2.0115,-1.4354 z"
     fill="#402a32"
     id="path10" />
</svg>
