<?xml version="1.0" encoding="UTF-8" standalone="no"?>
<svg
   width="40"
   height="40"
   viewBox="0 0 40 40"
   fill="none"
   version="1.1"
   id="svg2"
   xmlns:xlink="http://www.w3.org/1999/xlink"
   xmlns="http://www.w3.org/2000/svg"
   xmlns:svg="http://www.w3.org/2000/svg">
  <defs
     id="defs2">
    <filter
       style="color-interpolation-filters:sRGB"
       id="filter15"
       x="-0.098556304"
       y="-0.078987406"
       width="1.1971126"
       height="1.1579748">
      <feFlood
         result="flood"
         in="SourceGraphic"
         flood-opacity="0.498039"
         flood-color="rgb(0,0,0)"
         id="feFlood14" />
      <feGaussianBlur
         result="blur"
         in="SourceGraphic"
         stdDeviation="1.000000"
         id="feGaussianBlur14" />
      <feOffset
         result="offset"
         in="blur"
         dx="0.000000"
         dy="0.000000"
         id="feOffset14" />
      <feComposite
         result="comp1"
         operator="in"
         in="flood"
         in2="offset"
         id="feComposite14" />
      <feComposite
         result="comp2"
         operator="over"
         in="SourceGraphic"
         in2="comp1"
         id="feComposite15" />
    </filter>
  </defs>
  <path
     xlink:href="#path1"
     id="path14"
     d="m 18.632812,3.7949219 c -0.829642,-0.01232 -1.88738,0.1944453 -2.833984,0.9335937 -0.951326,0.7428358 -1.662109,2.0655241 -1.662109,3.8027344 0,1.692111 -0.01231,2.711656 -0.07031,3.310547 -0.05801,0.598891 -0.103611,0.694086 -0.267578,0.957031 -0.41188,0.660325 -1.145518,1.183905 -2.111328,1.828125 -1.021362,0.681211 -2.2733757,1.501976 -3.25,2.912109 -0.9766243,1.410134 -1.6132813,3.364514 -1.6132813,6.117188 0,1.46185 0.1399927,4.118563 1.8320313,6.457031 1.692039,2.338469 4.937058,4.152639 10.410156,4.0625 h 3.111328 c 0.05134,0.0012 0.106099,0.002 0.134766,0.002 h 3.857422 c 1.166676,0 2.202189,-0.368805 2.923828,-1.05664 0.721639,-0.687835 1.082031,-1.654253 1.082031,-2.619141 0,-0.579193 -0.117649,-1.106719 -0.308594,-1.585937 0.765701,-0.750245 1.308594,-1.685086 1.308594,-2.742188 0,-0.90771 -0.403287,-1.673383 -0.941406,-2.337891 0.553347,-0.705858 0.941406,-1.518975 0.941406,-2.412109 0,-1.148221 -0.625743,-2.058085 -1.435547,-2.779297 0.263872,-0.570043 0.435547,-1.179003 0.435547,-1.814453 0,-2.198228 -1.807631,-4.005859 -4.005859,-4.005859 h -3.119141 c 0.04098,-0.597034 0.08532,-1.111656 0.111328,-1.796875 C 23.206662,9.8535622 23.22966,8.730236 23.0625,7.8320312 22.94386,7.1943319 22.69679,6.251726 22.023437,5.3847656 21.351391,4.5194869 20.161181,3.7977298 18.632812,3.7949219 Z"
     style="fill:#ffffff;fill-opacity:1;filter:url(#filter15)" />
  <path
     d="m 15.3125,8.5309574 c 0,-2.9 2.125,-3.58333 3.3125,-3.5625 2.4125,0 3.0823,2.00899 3.2812,3.07809 0.2474,1.32936 0.0053,4.5090696 -0.1058,5.9687896 l -0.0031,0.0417 c 0.1587,-0.0372 0.3301,-0.0574 0.5152,-0.0574 H 26.17 c 1.56,0 2.83,1.27 2.83,2.83 0,0.8061 -0.2586,1.5347 -0.7654,2.0508 1.0443,0.4607 1.7654,1.4277 1.7654,2.543 0,1.0229 -0.4627,1.9211 -1.3643,2.4184 0.8234,0.5109 1.3643,1.3657 1.3643,2.3316 0,1.1077 -0.5426,2.0692 -1.5976,2.5336 0.3743,0.386 0.5976,0.9604 0.5976,1.7942 0,1.379 -0.9688,2.5016 -2.83,2.5016 h -3.8575 c -0.0454,0 -0.0901,-10e-4 -0.1342,-0.0032 H 19.0469 C 8.60938,33.171537 8,26.405937 8,23.655937 c 0,-5.1561 2.29793,-6.6888 4.34062,-8.0512 0.96578,-0.6442 1.87438,-1.2503 2.45628,-2.1832 0.4881,-0.78274 0.5156,-1.49999 0.5156,-4.8905796 z"
     fill="#ffc83d"
     id="path1" />
  <path
     d="m 22,13.999737 c -1.0208,0.0312 -4,0.5937 -4,2.9687 0,1.2501 0.4688,1.9532 1.0313,2.3438 -0.5625,0.25 -1.0625,1.1781 -1.0625,2.3281 0,1.2813 1.0625,2.2188 1.0625,2.2188 0,0 -1.0625,1.0312 -1.0625,2.2656 0,0.932 0.4086,1.6196 1.0625,2.0883 -0.3542,0.1997 -1.0625,0.8929 -1.0625,2.0679 0,1.4012 1.3082,2.5748 3.8704,2.6799 -1.2484,-0.2311 -1.8548,-1.3749 -1.8548,-2.4595 0,-0.3585 0.1341,-0.9341 0.467,-1.4428 H 26 c 0.2761,0 0.5,-0.2239 0.5,-0.5 0,-0.2762 -0.2239,-0.5 -0.5,-0.5 h -5.4111 c -0.4051,-0.5301 -0.6045,-1.2175 -0.6045,-1.885 0,-0.4154 0.1563,-1.0883 0.546,-1.6738 H 26 c 0.2761,0 0.5,-0.2239 0.5,-0.5 0,-0.2761 -0.2239,-0.5 -0.5,-0.5 h -5.2493 c -0.5139,-0.5491 -0.7663,-1.3252 -0.7663,-2.0762 0,-0.3573 0.1156,-0.905 0.3959,-1.4238 H 26 c 0.2761,0 0.5,-0.2239 0.5,-0.5 0,-0.2761 -0.2239,-0.5 -0.5,-0.5 h -5.1732 c -0.5634,-0.5965 -0.8424,-1.4836 -0.8424,-2.17 0,-0.81 0.4422,-2.5997 2.0158,-2.8098 z"
     fill="#d67d00"
     id="path2" />
</svg>
