<?xml version="1.0" encoding="UTF-8" standalone="no"?>
<svg
   width="40"
   height="40"
   viewBox="0 0 40 40"
   fill="none"
   version="1.1"
   id="svg2"
   xmlns:xlink="http://www.w3.org/1999/xlink"
   xmlns="http://www.w3.org/2000/svg"
   xmlns:svg="http://www.w3.org/2000/svg">
  <defs
     id="defs2">
    <filter
       style="color-interpolation-filters:sRGB"
       id="filter4"
       x="-0.097122985"
       y="-0.078064049"
       width="1.194246"
       height="1.1561281">
      <feFlood
         result="flood"
         in="SourceGraphic"
         flood-opacity="0.498039"
         flood-color="rgb(0,0,0)"
         id="feFlood3" />
      <feGaussianBlur
         result="blur"
         in="SourceGraphic"
         stdDeviation="1.000000"
         id="feGaussianBlur3" />
      <feOffset
         result="offset"
         in="blur"
         dx="0.000000"
         dy="0.000000"
         id="feOffset3" />
      <feComposite
         result="comp1"
         operator="in"
         in="flood"
         in2="offset"
         id="feComposite3" />
      <feComposite
         result="comp2"
         operator="over"
         in="SourceGraphic"
         in2="comp1"
         id="feComposite4" />
    </filter>
  </defs>
  <path
     xlink:href="#path1"
     id="path3"
     d="m 12.830078,4.6132812 c -1.202847,0 -2.289408,0.3835621 -3.048828,1.1074219 C 9.0218299,6.4445629 8.6445313,7.4617159 8.6445313,8.46875 c 0,0.5535581 0.092879,1.0784324 0.265625,1.554688 -0.738575,0.778128 -1.265625,1.720613 -1.2656251,2.773437 0,0.896871 0.3705474,1.666196 0.8769532,2.339844 -0.5188685,0.718375 -0.8769531,1.533188 -0.8769532,2.410156 10e-8,1.15034 0.6022125,2.068303 1.3847657,2.814453 -0.2397657,0.564209 -0.3847656,1.164382 -0.3847656,1.779297 0,2.295955 1.8895917,4.185547 4.1855467,4.185547 h 2.925781 c -0.03665,0.55094 -0.07625,0.996028 -0.09961,1.611328 -0.04473,1.178407 -0.0703,2.300424 0.103516,3.234375 0.121578,0.653494 0.373385,1.621096 1.074218,2.523437 0.699526,0.900659 1.954729,1.657329 3.533203,1.660157 0.865735,0.01271 1.955845,-0.199597 2.94336,-0.970703 0.992921,-0.775328 1.732422,-2.164124 1.732422,-3.945313 0,-1.691629 0.01187,-2.709721 0.06836,-3.292969 0.05649,-0.583247 0.09046,-0.637519 0.242188,-0.880859 0.385427,-0.617916 1.091824,-1.124785 2.058593,-1.769531 1.021594,-0.681413 2.299806,-1.517889 3.298828,-2.960938 0.999023,-1.443049 1.644532,-3.441291 1.644532,-6.220703 0,-1.475129 -0.139163,-4.174297 -1.867188,-6.5624999 C 28.760257,6.3637505 25.443676,4.5244647 19.931641,4.6152344 h -3.109375 c -0.05107,-0.00111 -0.10644,-0.00195 -0.134766,-0.00195 z"
     style="fill:#ffffff;fill-opacity:1;filter:url(#filter4)" />
  <path
     d="m 23.6875,30.439915 c 0,2.9 -2.125,3.5834 -3.3125,3.5625 -2.4125,0 -3.0823,-2.009 -3.2812,-3.0781 -0.2474,-1.3293 -0.0053,-4.509 0.1058,-5.9688 l 0.0031,-0.0416 c -0.1587,0.0371 -0.3301,0.0573 -0.5152,0.0573 H 12.83 c -1.56,0 -2.83,-1.27 -2.83,-2.83 0,-0.8061 0.25865,-1.5347 0.76542,-2.0507 C 9.72106,19.629715 9,18.662715 9,17.547415 c 0,-1.0229 0.46273,-1.9211 1.36431,-2.4183 C 9.54092,14.618115 9,13.763395 9,12.797465 9,11.689725 9.54264,10.728215 10.5976,10.263815 10.22328,9.8778949 10,9.3034949 10,8.4696149 c 0,-1.37898 0.96875,-2.50161 2.83,-2.50161 l 3.8575,10e-6 c 0.0454,0 0.0901,0.00107 0.1342,0.0032 h 3.1314 C 30.3906,5.7993349 31,12.564965 31,15.314915 c 0,5.1561 -2.2979,6.6888 -4.3406,8.0513 -0.9658,0.6441 -1.8744,1.2502 -2.4563,2.1831 -0.4881,0.7828 -0.5156,1.5 -0.5156,4.8906 z"
     fill="#ffc83d"
     id="path1" />
  <path
     d="M 18.3943,10.912425 H 13 c -0.27614,0 -0.5,-0.22386 -0.5,-0.5 0,-0.27614 0.22386,-0.5000001 0.5,-0.5000001 h 5.5486 c 0.3329,-0.50872 0.467,-1.08431 0.467,-1.44281 0,-1.08463 -0.6064,-2.22837 -1.8548,-2.4595 2.5622,0.10506 3.8704,1.27869 3.8704,2.67985 0,1.175 -0.7083,1.8682001 -1.0625,2.0679201 0.6539,0.4687 1.0625,1.15638 1.0625,2.08833 0,1.2344 -1.0625,2.2656 -1.0625,2.2656 0,0 1.0625,0.9375 1.0625,2.2188 0,1.15 -0.5,2.0781 -1.0625,2.3281 0.5625,0.3906 1.0313,1.0937 1.0313,2.3437 0,2.375 -2.9792,2.9375 -4,2.9688 l -2e-4,-0.0202 c 1.5735,-0.2101 2.0158,-1.9998 2.0158,-2.8098 0,-0.6864 -0.279,-1.5735 -0.8424,-2.17 H 13 c -0.27614,0 -0.5,-0.2239 -0.5,-0.5 0,-0.2762 0.22386,-0.5 0.5,-0.5 h 5.6197 c 0.2803,-0.5188 0.3959,-1.0665 0.3959,-1.4238 0,-0.751 -0.2524,-1.5271 -0.7663,-2.0762 H 13 c -0.27614,0 -0.5,-0.2239 -0.5,-0.5 0,-0.2762 0.22386,-0.5 0.5,-0.5 h 5.4696 c 0.3897,-0.58548 0.546,-1.25841 0.546,-1.67375 0,-0.46641 -0.1396,-1.25761 -0.6213,-1.88504 z"
     fill="#d67d00"
     id="path2" />
</svg>
