<?xml version="1.0" encoding="UTF-8" standalone="no"?>
<svg
   width="40"
   height="40"
   viewBox="0 0 40 40"
   fill="none"
   version="1.1"
   id="svg4"
   xmlns:xlink="http://www.w3.org/1999/xlink"
   xmlns="http://www.w3.org/2000/svg"
   xmlns:svg="http://www.w3.org/2000/svg">
  <defs
     id="defs4">
    <filter
       style="color-interpolation-filters:sRGB"
       id="filter9"
       x="-0.094595843"
       y="-0.07734619"
       width="1.1891917"
       height="1.1546924">
      <feFlood
         result="flood"
         in="SourceGraphic"
         flood-opacity="0.498039"
         flood-color="rgb(0,0,0)"
         id="feFlood8" />
      <feGaussianBlur
         result="blur"
         in="SourceGraphic"
         stdDeviation="1.000000"
         id="feGaussianBlur8" />
      <feOffset
         result="offset"
         in="blur"
         dx="0.000000"
         dy="0.000000"
         id="feOffset8" />
      <feComposite
         result="comp1"
         operator="in"
         in="flood"
         in2="offset"
         id="feComposite8" />
      <feComposite
         result="comp2"
         operator="over"
         in="SourceGraphic"
         in2="comp1"
         id="feComposite9" />
    </filter>
  </defs>
  <path
     xlink:href="#path5"
     id="path8"
     d="m 19.988281,4.484375 c -0.651769,0.00304 -1.328974,0.2684703 -1.816406,0.7949219 L 10.605469,13.40625 a 1.5161299,1.5161299 0 0 0 -0.0039,0.0039 c -0.684645,0.740639 -0.8056317,1.850036 -0.431641,2.667969 0.37399,0.817933 1.258396,1.439453 2.255859,1.439453 h 2.763672 v 4.28125 c -0.0093,0.59238 0.301098,1.062964 0.623047,1.503906 H 10 c -1.376898,0 -2.515625,1.138728 -2.515625,2.515625 0,1.376897 1.1387289,2.515625 2.515625,2.515625 h 0.705078 v 4.654297 c 0,1.376898 1.138729,2.515625 2.515625,2.515625 1.376896,0 2.515625,-1.138729 2.515625,-2.515625 v -4.654297 h 0.1875 v 2.523438 c 0,2.553936 2.106678,4.65625 4.666016,4.65625 1.248434,0 2.382377,-0.511108 3.224609,-1.322266 0.440933,0.739644 1.102069,1.322266 2.015625,1.322266 1.376898,0 2.515625,-1.138729 2.515625,-2.515625 v -1.175781 h 0.253906 c 2.332095,0 4.25586,-1.920505 4.25586,-4.253907 0,-2.333401 -1.922458,-4.255859 -4.25586,-4.255859 h -2.769531 c -0.916677,0 -1.579618,0.586277 -2.019531,1.330078 -0.228607,-0.219721 -0.51812,-0.360951 -0.78711,-0.53125 0.981798,-0.40048 1.78711,-1.180776 1.78711,-2.298828 v -4.304688 h 2.763672 c 1.003369,-1e-6 1.883928,-0.62875 2.255859,-1.445312 0.371931,-0.816562 0.256415,-1.929197 -0.439453,-2.669922 L 21.824219,5.265625 a 1.5161299,1.5161299 0 0 0 -0.02344,-0.023437 C 21.30687,4.7347893 20.640052,4.4813283 19.988281,4.484375 Z"
     style="fill:#ffffff;fill-opacity:1;filter:url(#filter9)" />
  <path
     d="M 11.71503,14.439397 19.285,6.3090473 c 0.38,-0.41042 1.04,-0.41042 1.43,-0.00977 l 7.57,8.1303197 c 0.56,0.5961 0.12,1.5635 -0.71,1.5635 h -3.64 c -0.35,0 -0.64,0.2834 -0.64,0.6254 v 5.1943 c 0,0.645 -0.53,1.1629 -1.19,1.1629 h -4.22 c -0.65,0 -1.19,-0.5179 -1.18,-1.1531 v -5.1943 c 0,-0.342 -0.29,-0.6254 -0.64,-0.6254 h -3.63997 c -0.83,0 -1.27,-0.9577 -0.71,-1.5635 z"
     fill="#321b41"
     id="path1" />
  <path
     d="M 16.44,24.817497 H 10 c -0.55,0 -1,0.45 -1,1 0,0.55 0.45,1 1,1 h 2.22 v 6.17 c 0,0.55 0.45,1 1,1 0.55,0 1,-0.45 1,-1 v -6.17 h 2.22 c 0.55,0 1,-0.45 1,-1 0,-0.56 -0.45,-1 -1,-1 z"
     fill="#321b41"
     id="path2" />
  <path
     d="m 25.83,24.827497 h 2.77 c 1.51,0 2.74,1.23 2.74,2.74 0,1.51 -1.23,2.74 -2.74,2.74 h -1.77 v 2.69 c 0,0.55 -0.45,1 -1,1 -0.55,0 -1,-0.45 -1,-1 v -7.17 c 0,-0.55 0.45,-1 1,-1 z m 1,3.48 h 1.77 c 0.41,0 0.74,-0.33 0.74,-0.74 0,-0.41 -0.33,-0.74 -0.74,-0.74 h -1.77 z"
     fill="#321b41"
     id="path3" />
  <path
     d="m 17.4399,30.857497 c 0,1.73 1.41,3.14 3.15,3.14 1.73,0 3.15,-1.41 3.15,-3.14 v -2.88 c 0,-1.73 -1.41,-3.14 -3.15,-3.14 -1.74,0 -3.15,1.41 -3.15,3.14 z m 2,-2.88 c 0,-0.64 0.52,-1.15 1.15,-1.15 0.63,0 1.15,0.51 1.15,1.15 v 2.88 c 0,0.64 -0.52,1.15 -1.15,1.15 -0.63,0 -1.15,-0.52 -1.15,-1.15 z"
     fill="#321b41"
     id="path4" />
</svg>
