<?xml version="1.0" encoding="UTF-8" standalone="no"?>
<svg
   width="40"
   height="40"
   viewBox="0 0 40 40"
   fill="none"
   version="1.1"
   id="svg7"
   xmlns:xlink="http://www.w3.org/1999/xlink"
   xmlns="http://www.w3.org/2000/svg"
   xmlns:svg="http://www.w3.org/2000/svg">
  <defs
     id="defs7">
    <filter
       style="color-interpolation-filters:sRGB"
       id="filter9"
       x="-0.077816478"
       y="-0.077816478"
       width="1.155633"
       height="1.155633">
      <feFlood
         result="flood"
         in="SourceGraphic"
         flood-opacity="0.498039"
         flood-color="rgb(0,0,0)"
         id="feFlood8" />
      <feGaussianBlur
         result="blur"
         in="SourceGraphic"
         stdDeviation="1.000000"
         id="feGaussianBlur8" />
      <feOffset
         result="offset"
         in="blur"
         dx="0.000000"
         dy="0.000000"
         id="feOffset8" />
      <feComposite
         result="comp1"
         operator="in"
         in="flood"
         in2="offset"
         id="feComposite8" />
      <feComposite
         result="comp2"
         operator="over"
         in="SourceGraphic"
         in2="comp1"
         id="feComposite9" />
    </filter>
  </defs>
  <path
     xlink:href="#path1"
     id="path8"
     d="m 19.998047,4.578125 c -4.985286,0 -8.93021,1.719272 -11.544922,4.5585938 -2.6147115,2.8393212 -3.875,6.7098652 -3.875,10.8613282 0,4.151467 1.2603456,8.021522 3.875,10.861328 2.614654,2.839806 6.559537,4.560547 11.544922,4.560547 4.985352,0 8.929768,-1.720804 11.544922,-4.560547 2.615153,-2.839743 3.876953,-6.709737 3.876953,-10.861328 0,-4.151587 -1.261743,-8.022069 -3.876953,-10.8613282 C 28.927758,6.2974599 24.9833,4.578125 19.998047,4.578125 Z"
     style="fill:#ffffff;fill-opacity:1;filter:url(#filter9)" />
  <path
     d="m 19.9989,33.9978 c 9.3344,0 13.9989,-6.2675 13.9989,-13.9989 C 33.9978,12.26751 29.3333,6 19.9989,6 10.66443,6 6,12.26751 6,19.9989 c 0,7.7314 4.66443,13.9989 13.9989,13.9989 z"
     fill="#ffb02e"
     id="path1" />
  <path
     d="M 17.9577,21.3801 C 18.6085,20.5997 19,19.5956 19,18.5 19,16.0147 16.9853,14 14.5,14 12.01472,14 10,16.0147 10,18.5 c 0,1.0956 0.39151,2.0997 1.04226,2.8801 0.4187,-0.2101 0.94518,-0.4342 1.54512,-0.6037 0.57935,-0.1636 1.99072,-0.8272 1.99072,-0.8272 0,0 1.8697,0.7981 2.6195,1.0919 0.2808,0.11 0.5359,0.2265 0.7601,0.339 z"
     fill="#ffffff"
     id="path2" />
  <path
     d="m 10.97423,13.65811 c 0.14346,-0.43037 0.50202,-1.10762 1.09492,-1.6705 C 12.65355,11.4328 13.45198,11 14.4999,11 c 0.2761,0 0.5,-0.22386 0.5,-0.5 0,-0.27614 -0.2239,-0.5 -0.5,-0.5 -1.3521,0 -2.387,0.5672 -3.11926,1.26239 -0.72377,0.68712 -1.16522,1.50987 -1.35509,2.0795 -0.08732,0.26197 0.05426,0.54513 0.31623,0.63245 0.26197,0.08736 0.54513,-0.05425 0.63245,-0.31623 z"
     fill="#402a32"
     id="path3" />
  <path
     d="m 25.5,12 c -0.2761,0 -0.5,0.22386 -0.5,0.5 0,0.27614 0.2239,0.5 0.5,0.5 0.5591,0 1.3408,0.2157 2.0404,0.66948 0.6934,0.44972 1.2626,1.10412 1.4745,1.95182 0.067,0.2679 0.3385,0.4307 0.6064,0.3638 0.2679,-0.067 0.4307,-0.3385 0.3638,-0.6064 C 29.697,14.2264 28.9329,13.38077 28.0846,12.83052 27.2425,12.2843 26.2743,12 25.5,12 Z"
     fill="#402a32"
     id="path4" />
  <path
     d="m 18,19 c 0,0.7885 -0.3042,1.5059 -0.8016,2.0414 C 16.4484,20.7475 15.5155,20.5 14.5,20.5 c -0.6871,0 -1.33643,0.1133 -1.91686,0.2776 C 12.2166,20.2801 12,19.6654 12,19 c 0,-1.6569 1.34315,-3 3,-3 1.6569,0 3,1.3431 3,3 z"
     fill="#402a32"
     id="path5" />
  <path
     d="M 22.9701,19.2425 C 23.0479,18.9314 23.5452,18 25,18 c 1.4548,0 1.9521,0.9314 2.0299,1.2425 0.1339,0.5358 0.6768,0.8616 1.2126,0.7276 0.5358,-0.1339 0.8616,-0.6768 0.7276,-1.2126 C 28.7146,17.7352 27.5452,16 25,16 c -2.5452,0 -3.7146,1.7352 -3.9701,2.7575 -0.134,0.5358 0.1918,1.0787 0.7276,1.2126 0.5358,0.134 1.0787,-0.1918 1.2126,-0.7276 z"
     fill="#402a32"
     id="path6" />
  <path
     d="m 20,27.0001 c 3.138,0 4.8586,-1.6448 5.2,-2.1 0.3314,-0.4419 0.9582,-0.5314 1.4,-0.2 0.4418,0.3313 0.5314,0.9581 0.2,1.4 -0.6586,0.8781 -2.938,2.9 -6.8,2.9 -3.1118,0 -5.1094,-1.4792 -5.8,-2.4 -0.33137,-0.4419 -0.24183,-1.0687 0.2,-1.4 0.4418,-0.3314 1.0686,-0.2419 1.4,0.2 0.3094,0.4124 1.7118,1.6 4.2,1.6 z"
     fill="#402a32"
     id="path7" />
</svg>
