<?xml version="1.0" encoding="UTF-8" standalone="no"?>
<svg
   width="40"
   height="40"
   viewBox="0 0 40 40"
   fill="none"
   version="1.1"
   id="svg8"
   xmlns:xlink="http://www.w3.org/1999/xlink"
   xmlns="http://www.w3.org/2000/svg"
   xmlns:svg="http://www.w3.org/2000/svg">
  <defs
     id="defs8">
    <filter
       style="color-interpolation-filters:sRGB"
       id="filter10"
       x="-0.077228798"
       y="-0.077136701"
       width="1.1544576"
       height="1.1542734">
      <feFlood
         result="flood"
         in="SourceGraphic"
         flood-opacity="0.498039"
         flood-color="rgb(0,0,0)"
         id="feFlood9" />
      <feGaussianBlur
         result="blur"
         in="SourceGraphic"
         stdDeviation="1.000000"
         id="feGaussianBlur9" />
      <feOffset
         result="offset"
         in="blur"
         dx="0.000000"
         dy="0.000000"
         id="feOffset9" />
      <feComposite
         result="comp1"
         operator="in"
         in="flood"
         in2="offset"
         id="feComposite9" />
      <feComposite
         result="comp2"
         operator="over"
         in="SourceGraphic"
         in2="comp1"
         id="feComposite10" />
    </filter>
  </defs>
  <path
     xlink:href="#path1"
     id="path9"
     d="m 19.503906,4.4941406 c -1.12465,0.09144 -2.290242,0.2946048 -3.49414,0.6171875 -4.813758,1.2898427 -8.1770366,3.9693149 -9.9667973,7.3867189 -1.7897606,3.417404 -2.0057168,7.479785 -0.9316406,11.488281 1.0740696,4.008511 3.292158,7.421122 6.5507809,9.486328 3.258624,2.065206 7.510373,2.703963 12.324219,1.414063 4.813848,-1.289847 8.177072,-3.970806 9.966797,-7.388672 C 35.74285,24.080181 35.958893,20.0183 34.884766,16.009766 33.005183,8.994959 27.379202,3.853835 19.503906,4.4941406 Z"
     style="fill:#ffffff;fill-opacity:1;filter:url(#filter10)" />
  <path
     d="m 23.621531,33.520744 c 9.0164,-2.4159 11.8998,-9.6771 9.8987,-17.145 -2.001,-7.4679502 -8.1286,-12.3146609 -17.145,-9.8987302 -9.0164097,2.41594 -11.8997527,9.6771302 -9.8987297,17.1450302 2.00103,7.468 8.1286297,12.3147 17.1450297,9.8987 z"
     fill="#ffb02e"
     id="path1" />
  <path
     d="m 22.588231,29.659044 c -9.65929,2.5881 -12.24748,-7.0711 -12.24748,-7.0711 l 19.31848,-5.1764 c 0,0 2.5882,9.6593 -7.071,12.2475 z"
     fill="#bb1d80"
     id="path2" />
  <path
     d="m 27.632531,19.507444 -14.48884,3.8823 c -0.8002,0.2144 -1.62271,-0.2605 -1.83712,-1.0607 l 17.38666,-4.6587 c 0.2144,0.8002 -0.2605,1.6227 -1.0607,1.8371 z"
     fill="#ffffff"
     id="path3" />
  <path
     d="m 23.379531,32.552744 c 4.0569,-1.0871 4.2445,-6.7796 4.0983,-7.8274 -0.3403,-2.3353 -4.0962,-1.8841 -6.526,-1.233 -2.4298,0.651 -5.9613,2.1617 -5.0651,4.3388 0.3973,0.9806 3.4359,5.8086 7.4928,4.7216 z"
     fill="#f70a8d"
     id="path4" />
  <path
     d="m 14.428431,20.457344 c 2.4006,-0.6432 3.8252,-3.1107 3.182,-5.5113 -0.6433,-2.40064 -3.1108,-3.82526 -5.51137,-3.18202 -2.4005997,0.64324 -3.8252197,3.11072 -3.1819797,5.51132 0.64323,2.4006 3.1107497,3.8252 5.5113497,3.182 z"
     fill="#ffffff"
     id="path5" />
  <path
     d="m 25.053631,17.610344 c 2.4006,-0.6432 3.8252,-3.1108 3.182,-5.51135 -0.6433,-2.4006002 -3.1108,-3.8252202 -5.5114,-3.1819802 -2.4006,0.64324 -3.8252,3.1107502 -3.182,5.5113302 0.6433,2.4006 3.1108,3.8252 5.5114,3.182 z"
     fill="#ffffff"
     id="path6" />
  <path
     d="m 25.915631,11.167664 c 0.2859,1.06693 -0.3472,2.1636 -1.4142,2.44949 -1.0669,0.28588 -2.1636,-0.34729 -2.4495,-1.41422 -0.2858,-1.06693 0.3473,-2.1636 1.4143,-2.4494902 1.0669,-0.28588 2.1636,0.3472802 2.4494,1.4142202 z"
     fill="#402a32"
     id="path7" />
  <path
     d="m 15.100931,17.171344 c 0.2859,1.0669 -0.3472,2.1636 -1.41416,2.4495 -1.06694,0.2859 -2.16361,-0.3473 -2.44949,-1.4142 -0.28589,-1.067 0.34728,-2.1637 1.41421,-2.4495 1.06693,-0.2859 2.16364,0.3472 2.44944,1.4142 z"
     fill="#402a32"
     id="path8" />
</svg>
