<?xml version="1.0" encoding="UTF-8" standalone="no"?>
<!-- Created with Inkpad (http://www.taptrix.com/) -->

<svg
   height="32pt"
   width="32pt"
   version="1.1"
   viewBox="0 0 32 32"
   id="svg8"
   sodipodi:docname="smiling-face-with-heart-eyes.svg"
   xmlns:inkscape="http://www.inkscape.org/namespaces/inkscape"
   xmlns:sodipodi="http://sodipodi.sourceforge.net/DTD/sodipodi-0.dtd"
   xmlns="http://www.w3.org/2000/svg"
   xmlns:svg="http://www.w3.org/2000/svg">
  <sodipodi:namedview
     id="namedview1"
     pagecolor="#ffffff"
     bordercolor="#000000"
     borderopacity="0.25"
     inkscape:showpageshadow="2"
     inkscape:pageopacity="0.0"
     inkscape:pagecheckerboard="0"
     inkscape:deskcolor="#d1d1d1"
     inkscape:document-units="pt" />
  <defs
     id="defs2">
    <filter
       style="color-interpolation-filters:sRGB"
       inkscape:label="Drop Shadow"
       id="filter15"
       x="-0.090766502"
       y="-0.090766307"
       width="1.181533"
       height="1.1815326">
      <feFlood
         result="flood"
         in="SourceGraphic"
         flood-opacity="0.498039"
         flood-color="rgb(0,0,0)"
         id="feFlood14" />
      <feGaussianBlur
         result="blur"
         in="SourceGraphic"
         stdDeviation="1.000000"
         id="feGaussianBlur14" />
      <feOffset
         result="offset"
         in="blur"
         dx="0.000000"
         dy="0.000000"
         id="feOffset14" />
      <feComposite
         result="comp1"
         operator="in"
         in="flood"
         in2="offset"
         id="feComposite14" />
      <feComposite
         result="comp2"
         operator="over"
         in="SourceGraphic"
         in2="comp1"
         id="feComposite15" />
    </filter>
  </defs>
  <path
     id="path14"
     style="fill:#ffffff;filter:url(#filter15)"
     inkscape:label="path14"
     d="m 14,2.7792969 c 0,0 -5.1150186,-0.076606 -8.5078125,3.5703125 L 5.9804687,6.0292969 C 5.4720349,6.2074392 4.8626377,6.5272436 4.3691406,7.1191406 3.9290009,7.6470413 3.7011753,8.4370916 3.640625,9.2929688 3.633285,9.3967252 3.552734,9.4495444 3.552734,9.5566406 c 0,0.076948 0.00399,0.137362 0.00586,0.1875 C 3.1117348,10.980865 2.7792969,12.345962 2.7792969,14 v 4 a 1.220461,1.220461 0 0 0 0,0.02539 c 0,0 0.00366,0.189295 0.019531,0.439453 0.028418,0.447771 0.1039645,1.188304 0.3164063,2.123047 0.066873,0.29424 0.1478144,0.606646 0.2441406,0.927734 0.6752039,2.250679 2.2001851,5.150536 5.4921875,6.669922 0.237757,0.109728 0.481367,0.210475 0.7304688,0.302734 0.2525927,0.09356 0.5129019,0.179189 0.7812499,0.25586 0.26583,0.07595 0.543308,0.145341 0.832032,0.205078 0.291943,0.0604 0.586012,0.106906 0.882812,0.146484 0.301695,0.04022 0.614302,0.07303 0.935547,0.09375 0.318453,0.02054 0.646813,0.03125 0.986328,0.03125 h 4 c 0.339515,0 0.667875,-0.01071 0.986328,-0.03125 0.321217,-0.02072 0.633793,-0.05351 0.935547,-0.09375 0.296843,-0.03958 0.590913,-0.0861 0.882812,-0.146484 0.28873,-0.05974 0.5662,-0.129125 0.832032,-0.205078 0.27004,-0.07715 0.528897,-0.163119 0.779297,-0.25586 0.24689,-0.09144 0.491971,-0.191757 0.732421,-0.302734 0.241364,-0.111393 0.465768,-0.228955 0.677735,-0.347656 2.839001,-1.589841 4.187259,-4.231622 4.814453,-6.322266 0.09633,-0.321086 0.177268,-0.633494 0.244141,-0.927734 C 29.218312,19.120283 29.220703,18 29.220703,18 v -3 -1 a 1.220461,1.220461 0 0 0 0,-0.002 c 0,0 0.0062,-2.38716 -1.105469,-4.951172 l 0.101563,0.4609375 C 28.183093,7.8760884 27.178562,6.737716 26.265625,6.28125 l 0.416016,0.3398437 C 25.03164,4.5149031 22.213311,2.7792969 18,2.7792969 Z" />
  <path
     d="M 4,14 C 4,4 14,4 14,4 h 4 c 10,0 10,10 10,10 v 4 c 0,0 0,10 -10,10 H 14 C 4,28 4,18 4,18 Z"
     opacity="1"
     fill="#f3c160"
     id="path2" />
  <path
     d="m 9,17 c 0,0 -1,0 -1,1 0,2 2,7 8,7 6,0 8,-5 8,-7 0,-1 -1,-1 -1,-1 z"
     opacity="1"
     fill="#0d1c30"
     id="path3" />
  <path
     d="m 16,25 c 3,0 4,-1 4,-1 0,0 -1,-1 -4,-1 -3,0 -4,1 -4,1 0,0 1,1 4,1 z"
     opacity="1"
     fill="#eb7162"
     id="path4" />
  <path
     d="m 9,17 c 0,0 0,2 1,2 h 12 c 1,0 1,-2 1,-2 z"
     opacity="1"
     fill="#ffffff"
     id="path5" />
  <path
     d="M 9.88724,15.9473 C 9.88724,15.9473 15,13.391 15,9.55638 15,7 12.4436,7 12.4436,7 11.1654,7 9.88724,8.27819 9.88724,8.27819 9.88724,8.27819 8.60904,7 7.33085,7 c 0,0 -2.55638,0 -2.55638,2.55638 0,3.83462 5.11277,6.39092 5.11277,6.39092 z"
     opacity="1"
     fill="#eb7162"
     id="path6" />
  <path
     d="M 21.8872,16 C 21.8872,16 27,13.4436 27,9.60905 27,7.05266 24.4436,7.05266 24.4436,7.05266 c -1.2782,0 -2.5564,1.27819 -2.5564,1.27819 0,0 -1.2782,-1.27819 -2.5563,-1.27819 0,0 -2.5564,0 -2.5564,2.55639 0,3.83455 5.1127,6.39095 5.1127,6.39095 z"
     opacity="1"
     fill="#eb7162"
     id="path7" />
  <path
     d="m 4,18 c 0,0 0,9 9,9 14,0 15,-12 15,-12 v 3 c 0,0 0,10 -10,10 H 14 C 4,28 4,18 4,18 Z"
     opacity="1"
     fill="#f3b360"
     id="path8" />
</svg>
