<?xml version="1.0" encoding="UTF-8" standalone="no"?>
<!-- Created with Inkscape (http://www.inkscape.org/) -->

<svg
   width="31.999998"
   height="31.999998"
   viewBox="0 0 8.466666 8.4666661"
   version="1.1"
   id="svg1"
   xml:space="preserve"
   xmlns="http://www.w3.org/2000/svg"
   xmlns:svg="http://www.w3.org/2000/svg"><defs
     id="defs1"><filter
       style="color-interpolation-filters:sRGB"
       id="filter15"
       x="-0.10463345"
       y="-0.10463805"
       width="1.2092669"
       height="1.2092761"><feFlood
         result="flood"
         in="SourceGraphic"
         flood-opacity="0.498039"
         flood-color="rgb(0,0,0)"
         id="feFlood14" /><feGaussianBlur
         result="blur"
         in="SourceGraphic"
         stdDeviation="0.300000"
         id="feGaussianBlur14" /><feOffset
         result="offset"
         in="blur"
         dx="0.000000"
         dy="0.000000"
         id="feOffset14" /><feComposite
         result="comp1"
         operator="in"
         in="flood"
         in2="offset"
         id="feComposite14" /><feComposite
         result="comp2"
         operator="over"
         in="SourceGraphic"
         in2="comp1"
         id="feComposite15" /></filter></defs><g
     id="layer1"><path
       id="path14"
       style="fill:#ffffff;stroke-width:0.264583;filter:url(#filter15)"
       d="m 4.4980469,0.79296875 c -0.3085713,0 -0.5216964,0.0807968 -0.6503906,0.20898435 -0.064347,0.064094 -0.1015693,0.1370271 -0.1210938,0.1953125 -0.019525,0.058285 -0.023437,0.125 -0.023437,0.125 V 2.3105469 L 2.921875,3.6777344 C 2.7927396,3.5504584 2.6239054,3.4394531 2.3808594,3.4394531 H 1.5878906 c -0.3525599,10e-8 -0.60129695,0.2150836 -0.69921872,0.4101563 -0.0979218,0.1950727 -0.0957031,0.3828125 -0.0957031,0.3828125 v 2.6464843 c -1.1994e-4,0.00116 -6.1007e-4,0.00318 0,0.021484 -8.7727e-4,-0.026365 2.4671e-4,-0.00242 0.001953,0.021484 0.002131,0.029937 0.004994,0.053372 0.009766,0.082031 0.0116533,0.069904 0.0349928,0.1617829 0.0839844,0.2597657 0.0105655,0.021126 0.0235603,0.045112 0.0410156,0.072266 0.0190563,0.029644 0.0383048,0.054559 0.0546875,0.074219 0.12196332,0.146356 0.33839012,0.2636719 0.60351562,0.2636719 h 0.7929688 c 0.2525883,0 0.4554396,-0.1094982 0.5800781,-0.2460937 0.169316,0.1349575 0.3978448,0.2460937 0.7441406,0.2460937 h 2.6445313 c 0,0 0.1873445,0.00206 0.3828125,-0.095703 0.195468,-0.097758 0.4121094,-0.346333 0.4121093,-0.6992188 0,-0.1215351 -0.050287,-0.2116359 -0.091797,-0.3066406 0.072777,-0.010027 0.1022161,6.63e-4 0.2089843,-0.052734 0.195468,-0.097758 0.4121094,-0.3463329 0.4121094,-0.6992187 0,-0.2346021 -0.1033076,-0.400346 -0.2246094,-0.5292969 C 7.5705206,5.1620649 7.6738282,4.9963211 7.6738282,4.7617189 7.6738282,4.4295297 7.4803812,4.200401 7.294922,4.0917971 7.357018,3.9816153 7.4101564,3.8582939 7.4101563,3.7050783 7.4101563,3.3521924 7.193515,3.1036177 6.998047,3.0058596 6.8025789,2.9081013 6.6152344,2.9101563 6.6152344,2.9101563 H 5.4140625 C 5.4844329,2.695448 5.5566407,2.4155368 5.5566406,2.1171875 5.5566407,1.8085944 5.4822203,1.497228 5.3125,1.2421875 5.1427797,0.98714696 4.8509546,0.79296868 4.4980469,0.79296875 Z"
       transform="rotate(180,4.2332458,4.2333999)" /><path
       style="fill:#7391fe;fill-opacity:1;stroke-width:0.264583"
       d="m 5.5560749,4.2334667 c 0,0 0,0.5291666 0.5291667,0.5291666 l 0.79375,1e-7 c 0.5291666,-1e-7 0.5291666,-0.5291667 0.5291666,-0.5291667 V 1.5876335 c 0,0 1e-7,-0.5291666 -0.5291666,-0.5291666 h -0.79375 c -0.5291666,0 -0.5291667,0.5291666 -0.5291667,0.5291666 z"
       id="path2" /><path
       style="fill:#f3c160;fill-opacity:1;stroke-width:0.264583"
       d="M 5.556075,4.2334667 4.4977415,6.0855499 v 1.0583333 c 0,0 2e-7,0.2645833 -0.5291663,0.2645833 -0.5291668,0 -0.7937501,-0.5291666 -0.79375,-1.0583332 -10e-8,-0.5291667 0.2645833,-1.0583332 0.2645833,-1.0583332 l -1.5875,-10e-8 c 0,0 -0.5291667,-1e-7 -0.5291667,-0.5291667 0,-0.5291666 0.5291667,-0.5291666 0.5291667,-0.5291666 H 1.5873252 c 0,0 -0.5291667,0 -0.5291667,-0.5291666 0,-0.5291667 0.5291667,-0.5291667 0.5291667,-0.5291667 0,0 -0.5291667,0 -0.5291667,-0.5291666 0,-0.5291666 0.5291667,-0.5291666 0.5291667,-0.5291666 h 0.5291667 c 0,0 -0.5291667,0 -0.5291667,-0.5291667 0,-0.5291666 0.5291667,-0.5291666 0.5291667,-0.5291666 h 2.6458332 c 0.7937499,0 0.79375,0.5291667 0.7937499,0.5291666 v 1.321781 z"
       id="path1" /><path
       style="fill:#d39118;fill-opacity:1;stroke-width:0.264583"
       d="m 2.9102418,1.0584668 c 0,1e-7 0.2645833,1e-7 0.2645834,0.5291667 -10e-8,0.5291667 -0.5291668,0.5291667 -0.5291668,0.5291667 0,10e-8 0.5291667,0 0.5291668,0.5291666 -10e-8,0.5291666 -0.5291668,0.5291666 -0.5291668,0.5291666 0,0 0.5291667,0 0.5291668,0.5291667 -10e-8,0.5291666 -0.5291668,0.5291666 -0.5291668,0.5291666 0,0 0.5291667,0 0.5291668,0.5291667 -10e-8,0.5291666 -0.5291667,0.5291667 -0.5291667,0.5291667 0,0 0.79375,0 0.79375,-0.5291667 -10e-8,-0.5291667 -0.5291667,-0.5291667 -0.5291667,-0.5291667 0,0 0.5291666,0 0.5291667,-0.5291666 -10e-8,-0.5291667 -0.5291667,-0.5291667 -0.5291667,-0.5291667 0,0 0.5291666,0 0.5291667,-0.5291666 -10e-8,-0.5291666 -0.5291667,-0.5291666 -0.5291667,-0.5291666 0,0 0.5291666,0 0.5291667,-0.5291667 0,-0.5291666 -0.5291667,-0.5291667 -0.5291667,-0.5291667 z"
       id="path9" /><path
       style="fill:#586ae9;fill-opacity:1;stroke-width:0.264583"
       d="m 7.408333,2.9104165 c 0,0 -10e-8,1.5874999 -0.79375,1.5874999 h -0.79375 c -0.2645833,0 -0.2645833,-0.2645833 -0.2645833,-0.2645833 0,0 -1e-7,0.5291666 0.5291666,0.5291666 h 0.79375 c 0.5291666,0 0.5291667,-0.5291666 0.5291667,-0.5291666 z"
       id="path10" /></g></svg>
