<svg width="466.102" height="80.902" viewBox="0 0 466.102 80.902" xmlns="http://www.w3.org/2000/svg">
    <g id="svgGroup" stroke-linecap="round" fill-rule="evenodd" stroke-width="0" fill="#fff">
        <path id="letter-f" d="M 32.5 24.3 L 32.5 38.5 L 23.3 38.5 L 23.3 80.1 L 6.2 80.1 L 6.2 38.5 L 0 38.5 L 0 24.3 L 6.2 24.3 L 6.2 22.7 Q 6.2 12.4 12.1 7.05 Q 18 1.7 29.4 1.7 Q 31.3 1.7 32.2 1.8 L 32.2 16.3 Q 27.3 16 25.3 17.7 Q 23.3 19.4 23.3 23.8 L 23.3 24.3 L 32.5 24.3 Z" />
        <path id="letter-o" d="M 65.9 80.9 Q 57.7 80.9 51.15 77.4 Q 44.6 73.9 40.85 67.4 Q 37.1 60.9 37.1 52.2 Q 37.1 43.6 40.9 37.05 Q 44.7 30.5 51.3 27 Q 57.9 23.5 66.1 23.5 Q 74.3 23.5 80.9 27 Q 87.5 30.5 91.3 37.05 Q 95.1 43.6 95.1 52.2 Q 95.1 60.8 91.25 67.35 Q 87.4 73.9 80.75 77.4 Q 74.1 80.9 65.9 80.9 Z M 65.9 66.1 Q 61 66.1 57.75 62.5 Q 54.5 58.9 54.5 52.2 Q 54.5 45.4 57.8 41.85 Q 61.1 38.3 66.1 38.3 Q 71 38.3 74.35 41.9 Q 77.7 45.5 77.7 52.2 Q 77.7 58.9 74.25 62.5 Q 70.8 66.1 65.9 66.1 Z" />
        <path id="letter-l" d="M 104.2 6.1 L 121.3 6.1 L 121.3 80.1 L 104.2 80.1 L 104.2 6.1 Z" />
        <path id="letter-i" d="M 133.7 24.3 L 150.8 24.3 L 150.8 80.1 L 133.7 80.1 L 133.7 24.3 Z M 142.3 18.5 Q 137.8 18.5 134.95 15.85 Q 132.1 13.2 132.1 9.3 Q 132.1 5.3 134.95 2.65 Q 137.8 0 142.3 0 Q 146.7 0 149.55 2.65 Q 152.4 5.3 152.4 9.3 Q 152.4 13.2 149.55 15.85 Q 146.7 18.5 142.3 18.5 Z" />
        <path id="letter-o" d="M 188.6 80.9 Q 180.4 80.9 173.85 77.4 Q 167.3 73.9 163.55 67.4 Q 159.8 60.9 159.8 52.2 Q 159.8 43.6 163.6 37.05 Q 167.4 30.5 174 27 Q 180.6 23.5 188.8 23.5 Q 197 23.5 203.6 27 Q 210.2 30.5 214 37.05 Q 217.8 43.6 217.8 52.2 Q 217.8 60.8 213.95 67.35 Q 210.1 73.9 203.45 77.4 Q 196.8 80.9 188.6 80.9 Z M 188.6 66.1 Q 183.7 66.1 180.45 62.5 Q 177.2 58.9 177.2 52.2 Q 177.2 45.4 180.5 41.85 Q 183.8 38.3 188.8 38.3 Q 193.7 38.3 197.05 41.9 Q 200.4 45.5 200.4 52.2 Q 200.4 58.9 196.95 62.5 Q 193.5 66.1 188.6 66.1 Z" />
        <path id="letter-l" style="opacity:0.7;" d="M 226.9 6.1 L 244 6.1 L 244 80.1 L 226.9 80.1 L 226.9 6.1 Z" />
        <path id="letter-a" style="opacity:0.7;" d="M 294.8 32.2 L 294.8 24.3 L 311.9 24.3 L 311.9 80.1 L 294.8 80.1 L 294.8 72.2 Q 292.3 76.1 287.85 78.5 Q 283.4 80.9 277.5 80.9 Q 270.7 80.9 265.1 77.35 Q 259.5 73.8 256.25 67.25 Q 253 60.7 253 52.1 Q 253 43.5 256.25 37 Q 259.5 30.5 265.1 27 Q 270.7 23.5 277.6 23.5 Q 283.5 23.5 287.95 25.9 Q 292.4 28.3 294.8 32.2 Z M 294.8 52.2 Q 294.8 58.6 291.25 62.3 Q 287.7 66 282.6 66 Q 277.5 66 273.95 62.25 Q 270.4 58.5 270.4 52.1 Q 270.4 45.7 273.95 42.05 Q 277.5 38.4 282.6 38.4 Q 287.7 38.4 291.25 42.1 Q 294.8 45.8 294.8 52.2 Z" />
        <path id="letter-b" style="opacity:0.7;" d="M 341.4 72.3 L 341.4 80.1 L 324.3 80.1 L 324.3 6.1 L 341.4 6.1 L 341.4 32.2 Q 343.8 28.3 348.3 25.9 Q 352.8 23.5 358.6 23.5 Q 365.5 23.5 371.1 27 Q 376.7 30.5 379.95 37 Q 383.2 43.5 383.2 52.1 Q 383.2 60.7 379.95 67.25 Q 376.7 73.8 371.1 77.35 Q 365.5 80.9 358.6 80.9 Q 352.7 80.9 348.3 78.55 Q 343.9 76.2 341.4 72.3 Z M 365.8 52.1 Q 365.8 58.5 362.2 62.25 Q 358.6 66 353.5 66 Q 348.4 66 344.85 62.3 Q 341.3 58.6 341.3 52.2 Q 341.3 45.8 344.85 42.1 Q 348.4 38.4 353.5 38.4 Q 358.7 38.4 362.25 42.05 Q 365.8 45.7 365.8 52.1 Z" />
        <path id="letter-s" style="opacity:0.7;" d="M 389.2 61.8 Q 389.6 67.2 392.9 71.55 Q 396.2 75.9 401.9 78.4 Q 407.6 80.9 414.9 80.9 Q 421.7 80.9 426.85 78.7 Q 432 76.5 434.75 72.65 Q 437.5 68.8 437.5 63.9 Q 437.4 58.1 434.45 54.65 Q 431.5 51.2 427.6 49.65 Q 423.7 48.1 417.5 46.5 Q 412.1 45.3 409.55 44.1 Q 407 42.9 407 40.5 Q 407 38.5 408.6 37.35 Q 410.2 36.2 413.2 36.2 Q 416.7 36.2 418.85 37.9 Q 421 39.6 421.4 42.5 L 437.2 42.5 Q 436.3 33.9 430.25 28.7 Q 424.2 23.5 413.7 23.5 Q 406.6 23.5 401.45 25.8 Q 396.3 28.1 393.65 32.05 Q 391 36 391 40.8 Q 391 46.5 393.9 49.85 Q 396.8 53.2 400.8 54.75 Q 404.8 56.3 410.8 57.7 Q 416.4 59.1 418.9 60.25 Q 421.4 61.4 421.4 63.8 Q 421.4 65.8 419.65 67.05 Q 417.9 68.3 414.7 68.3 Q 411.2 68.3 408.8 66.5 Q 406.4 64.7 406.1 61.8 L 389.2 61.8 Z" />
        <path id="letter-dot" d="M 456 80.9 Q 451.5 80.9 448.65 78.25 Q 445.8 75.6 445.8 71.7 Q 445.8 67.7 448.65 65 Q 451.5 62.3 456 62.3 Q 460.4 62.3 463.25 65 Q 466.1 67.7 466.1 71.7 Q 466.1 75.6 463.25 78.25 Q 460.4 80.9 456 80.9 Z" />
    </g>
</svg>