<svg height="32px" viewBox="0 0 32 32" width="32px" xmlns="http://www.w3.org/2000/svg">
    <path d="M16 0C30.6667 0 32 1.33333 32 16C32 30.6667 30.6667 32 16 32C1.33333 32 0 30.6667 0 16C0 1.33333 1.33333 0 16 0Z" fill="#2d2d2d"  stroke="none"/>
    <path d="M19 27L24 27C24 27 26 27 26 25C26 23 24 23 24 23L8 23C8 23 6 23 6 21C6 19 8 19 8 19M12 19L13 14L21 6C21 6 23 4 25 6C27 8 25 10 25 10L17 18L12 19ZM14 15L13 16M15 16L14 17M16 17L15 18M21 7L24 10" fill="none" stroke="#ffffff" stroke-linecap="round" stroke-linejoin="round" stroke-width="2"/>
</svg>
